<svg xmlns="http://www.w3.org/2000/svg" width="1440" height="2420" viewBox="0 0 1440 2420">
<rect x="0" y="0" width="1440" height="2420" fill="#f8fafc"/>
<rect x="0" y="0" width="1440" height="72" fill="#ffffff"/>
<line x1="0" y1="72" x2="1440" y2="72" stroke="#e2e8f0" stroke-width="1"/>
<rect x="120" y="19" width="34.0" height="34.0" fill="#2563eb" rx="10.0"/>
<text x="137.0" y="41.0" font-family="Inter, sans-serif" font-size="18.0" fill="#ffffff" font-weight="800" text-anchor="middle">P</text>
<text x="164.0" y="41.0" font-family="Inter, sans-serif" font-size="16.0" fill="#0f172a" font-weight="700" text-anchor="start">Print Hub 3D</text>
<text x="350" y="41" font-family="Inter, sans-serif" font-size="14" fill="#2563eb" font-weight="600" text-anchor="start">Trang chủ</text>
<rect x="350" y="50" width="72" height="2.5" fill="#2563eb" rx="2"/>
<text x="461.8" y="41" font-family="Inter, sans-serif" font-size="14" fill="#475569" font-weight="500" text-anchor="start">Chợ mô hình</text>
<text x="590.0" y="41" font-family="Inter, sans-serif" font-size="14" fill="#475569" font-weight="500" text-anchor="start">Dịch vụ in 3D</text>
<text x="734.6" y="41" font-family="Inter, sans-serif" font-size="14" fill="#475569" font-weight="500" text-anchor="start">Sạp bán hàng</text>
<circle cx="1302" cy="36" r="18" fill="#dbeafe"/>
<text x="1302" y="42.3" font-family="Inter, sans-serif" font-size="16.2" fill="#2563eb" font-weight="700" text-anchor="middle">T</text>
<text x="1274" y="41" font-family="Inter, sans-serif" font-size="13" fill="#475569" font-weight="500" text-anchor="end">Tuấn Anh</text>
<circle cx="1192" cy="36" r="17" fill="#f1f5f9"/>
<text x="1192" y="41" font-family="Inter, sans-serif" font-size="14" fill="#475569" font-weight="400" text-anchor="middle">🔔</text>
<circle cx="1200" cy="28" r="7" fill="#ef4444"/>
<text x="1200" y="31" font-family="Inter, sans-serif" font-size="9" fill="#ffffff" font-weight="700" text-anchor="middle">3</text>
<circle cx="1142" cy="36" r="17" fill="#f1f5f9"/>
<text x="1142" y="41" font-family="Inter, sans-serif" font-size="14" fill="#475569" font-weight="400" text-anchor="middle">🛒</text>
<circle cx="1150" cy="28" r="7" fill="#2563eb"/>
<text x="1150" y="31" font-family="Inter, sans-serif" font-size="9" fill="#ffffff" font-weight="700" text-anchor="middle">2</text>
<defs><linearGradient id="hero" x1="0" y1="0" x2="1" y2="1"><stop offset="0" stop-color="#eff6ff"/><stop offset="0.6" stop-color="#f0f9ff"/><stop offset="1" stop-color="#ecfeff"/></linearGradient></defs>
<rect x="0" y="72" width="1440" height="620" fill="url(#hero)"/>
<circle cx="1180" cy="222" r="190" fill="#dbeafe" opacity="0.5"/>
<circle cx="1310" cy="472" r="130" fill="#cffafe" opacity="0.6"/>
<rect x="120" y="164" width="278.55999999999995" height="30" fill="#ffffff" rx="15.0"/>
<text x="259.28" y="183.32" font-family="Inter, sans-serif" font-size="12" fill="#2563eb" font-weight="600" text-anchor="middle">◆  Nền tảng mô hình 3D số 1 Việt Nam</text>
<text x="120" y="262" font-family="Inter, sans-serif" font-size="60" fill="#0f172a" font-weight="800" text-anchor="start">Chợ mô hình 3D</text>
<text x="120" y="330" font-family="Inter, sans-serif" font-size="60" fill="#2563eb" font-weight="800" text-anchor="start">&amp; in 3D theo yêu cầu</text>
<text x="120" y="384" font-family="Inter, sans-serif" font-size="17" fill="#64748b" font-weight="400" text-anchor="start">Mua bán file STL chất lượng cao từ hàng nghìn nhà thiết kế.</text>
<text x="120" y="416" font-family="Inter, sans-serif" font-size="17" fill="#64748b" font-weight="400" text-anchor="start">Mở sạp kinh doanh riêng hoặc đặt in 3D giao tận nơi.</text>
<rect x="120" y="458" width="190" height="52" fill="#2563eb" rx="12"/>
<text x="215.0" y="489.04" font-family="Inter, sans-serif" font-size="14" fill="#ffffff" font-weight="600" text-anchor="middle">Khám phá chợ mô hình</text>
<rect x="328" y="458" width="160" height="52" fill="#ffffff" rx="12" stroke="#e2e8f0" stroke-width="1"/>
<text x="408.0" y="489.04" font-family="Inter, sans-serif" font-size="14" fill="#475569" font-weight="600" text-anchor="middle">Đặt in 3D ngay</text>
<text x="120" y="572" font-family="Inter, sans-serif" font-size="30" fill="#0f172a" font-weight="800" text-anchor="start">12.400+</text>
<text x="120" y="598" font-family="Inter, sans-serif" font-size="13" fill="#64748b" font-weight="400" text-anchor="start">Mô hình 3D</text>
<text x="295" y="572" font-family="Inter, sans-serif" font-size="30" fill="#0f172a" font-weight="800" text-anchor="start">850+</text>
<text x="295" y="598" font-family="Inter, sans-serif" font-size="13" fill="#64748b" font-weight="400" text-anchor="start">Sạp bán hàng</text>
<text x="470" y="572" font-family="Inter, sans-serif" font-size="30" fill="#0f172a" font-weight="800" text-anchor="start">36K+</text>
<text x="470" y="598" font-family="Inter, sans-serif" font-size="13" fill="#64748b" font-weight="400" text-anchor="start">Đơn hàng</text>
<rect x="870" y="182" width="450" height="400" fill="#ffffff" rx="28" stroke="#e2e8f0" stroke-width="1"/>
<defs><linearGradient id="g44402" x1="0" y1="0" x2="1" y2="1"><stop offset="0" stop-color="#eff6ff"/><stop offset="1" stop-color="#e0f2fe"/></linearGradient></defs>
<rect x="898" y="210" width="394" height="300" fill="url(#g44402)" rx="20"/>
<path d="M1095.0 284.1 L1161.0 327.0 L1161.0 393.0 L1095.0 435.9 L1029.0 393.0 L1029.0 327.0 Z" fill="#3b82f6" opacity="0.9"/>
<path d="M1095.0 284.1 L1161.0 327.0 L1095.0 369.9 L1029.0 327.0 Z" fill="#dbeafe"/>
<path d="M1095.0 369.9 L1161.0 327.0 L1161.0 393.0 L1095.0 435.9 Z" fill="#1d4ed8" opacity="0.75"/>
<text x="1095.0" y="496" font-family="Inter, sans-serif" font-size="10" fill="#2563eb" font-weight="600" text-anchor="middle" opacity="0.75">Xoay 360° · Zoom · Pan</text>
<circle cx="1095" cy="538" r="17" fill="#eff6ff"/>
<text x="1095" y="543" font-family="Inter, sans-serif" font-size="14" fill="#2563eb" font-weight="700" text-anchor="middle">↻</text>
<circle cx="1145" cy="538" r="17" fill="#f1f5f9"/>
<text x="1145" y="543" font-family="Inter, sans-serif" font-size="13" fill="#475569" font-weight="700" text-anchor="middle">⤢</text>
<circle cx="1045" cy="538" r="17" fill="#f1f5f9"/>
<text x="1045" y="543" font-family="Inter, sans-serif" font-size="13" fill="#475569" font-weight="700" text-anchor="middle">▦</text>
<text x="898" y="543" font-family="Inter, sans-serif" font-size="13" fill="#475569" font-weight="600" text-anchor="start">Viewer STL trực tiếp</text>
<text x="120" y="762" font-family="Inter, sans-serif" font-size="32" fill="#0f172a" font-weight="800" text-anchor="start">Danh mục nổi bật</text>
<text x="120" y="794" font-family="Inter, sans-serif" font-size="15" fill="#64748b" font-weight="400" text-anchor="start">Tìm mô hình theo lĩnh vực bạn quan tâm</text>
<text x="1320" y="762" font-family="Inter, sans-serif" font-size="14" fill="#2563eb" font-weight="600" text-anchor="end">Xem tất cả →</text>
<rect x="120.0" y="820" width="183.33333333333334" height="140" fill="#ffffff" rx="20" stroke="#e2e8f0" stroke-width="1"/>
<rect x="185.66666666666669" y="844" width="52" height="52" fill="#eff6ff" rx="16.64"/>
<text x="211.66666666666669" y="880.4" font-family="Inter, sans-serif" font-size="26.0" fill="#2563eb" font-weight="700" text-anchor="middle">◈</text>
<text x="211.66666666666669" y="918" font-family="Inter, sans-serif" font-size="13" fill="#0f172a" font-weight="600" text-anchor="middle">Mô hình</text>
<text x="211.66666666666669" y="935" font-family="Inter, sans-serif" font-size="13" fill="#0f172a" font-weight="600" text-anchor="middle">sưu tầm</text>
<rect x="323.33333333333337" y="820" width="183.33333333333334" height="140" fill="#ffffff" rx="20" stroke="#e2e8f0" stroke-width="1"/>
<rect x="389.00000000000006" y="844" width="52" height="52" fill="#eff6ff" rx="16.64"/>
<text x="415.00000000000006" y="880.4" font-family="Inter, sans-serif" font-size="26.0" fill="#2563eb" font-weight="700" text-anchor="middle">⚙</text>
<text x="415.00000000000006" y="918" font-family="Inter, sans-serif" font-size="13" fill="#0f172a" font-weight="600" text-anchor="middle">Đồ dùng</text>
<text x="415.00000000000006" y="935" font-family="Inter, sans-serif" font-size="13" fill="#0f172a" font-weight="600" text-anchor="middle">chức năng</text>
<rect x="526.6666666666667" y="820" width="183.33333333333334" height="140" fill="#ffffff" rx="20" stroke="#e2e8f0" stroke-width="1"/>
<rect x="592.3333333333334" y="844" width="52" height="52" fill="#eff6ff" rx="16.64"/>
<text x="618.3333333333334" y="880.4" font-family="Inter, sans-serif" font-size="26.0" fill="#2563eb" font-weight="700" text-anchor="middle">🏠</text>
<text x="618.3333333333334" y="918" font-family="Inter, sans-serif" font-size="13" fill="#0f172a" font-weight="600" text-anchor="middle">Trang trí</text>
<text x="618.3333333333334" y="935" font-family="Inter, sans-serif" font-size="13" fill="#0f172a" font-weight="600" text-anchor="middle">nhà cửa</text>
<rect x="730.0" y="820" width="183.33333333333334" height="140" fill="#ffffff" rx="20" stroke="#e2e8f0" stroke-width="1"/>
<rect x="795.6666666666666" y="844" width="52" height="52" fill="#eff6ff" rx="16.64"/>
<text x="821.6666666666666" y="880.4" font-family="Inter, sans-serif" font-size="26.0" fill="#2563eb" font-weight="700" text-anchor="middle">♟</text>
<text x="821.6666666666666" y="918" font-family="Inter, sans-serif" font-size="13" fill="#0f172a" font-weight="600" text-anchor="middle">Board game</text>
<rect x="933.3333333333334" y="820" width="183.33333333333334" height="140" fill="#ffffff" rx="20" stroke="#e2e8f0" stroke-width="1"/>
<rect x="999.0" y="844" width="52" height="52" fill="#eff6ff" rx="16.64"/>
<text x="1025.0" y="880.4" font-family="Inter, sans-serif" font-size="26.0" fill="#2563eb" font-weight="700" text-anchor="middle">💍</text>
<text x="1025.0" y="918" font-family="Inter, sans-serif" font-size="13" fill="#0f172a" font-weight="600" text-anchor="middle">Trang sức</text>
<rect x="1136.6666666666667" y="820" width="183.33333333333334" height="140" fill="#ffffff" rx="20" stroke="#e2e8f0" stroke-width="1"/>
<rect x="1202.3333333333335" y="844" width="52" height="52" fill="#eff6ff" rx="16.64"/>
<text x="1228.3333333333335" y="880.4" font-family="Inter, sans-serif" font-size="26.0" fill="#2563eb" font-weight="700" text-anchor="middle">🔧</text>
<text x="1228.3333333333335" y="918" font-family="Inter, sans-serif" font-size="13" fill="#0f172a" font-weight="600" text-anchor="middle">Linh kiện</text>
<text x="1228.3333333333335" y="935" font-family="Inter, sans-serif" font-size="13" fill="#0f172a" font-weight="600" text-anchor="middle">thay thế</text>
<text x="120" y="1022" font-family="Inter, sans-serif" font-size="32" fill="#0f172a" font-weight="800" text-anchor="start">Mô hình nổi bật</text>
<text x="120" y="1054" font-family="Inter, sans-serif" font-size="15" fill="#64748b" font-weight="400" text-anchor="start">Được yêu thích nhất tuần này</text>
<text x="1320" y="1022" font-family="Inter, sans-serif" font-size="14" fill="#2563eb" font-weight="600" text-anchor="end">Xem tất cả →</text>
<rect x="120.0" y="1080" width="282.0" height="336" fill="#ffffff" rx="22" stroke="#e2e8f0" stroke-width="1"/>
<defs><linearGradient id="g48424" x1="0" y1="0" x2="1" y2="1"><stop offset="0" stop-color="#eff6ff"/><stop offset="1" stop-color="#e0f2fe"/></linearGradient></defs>
<rect x="121.0" y="1081" width="280.0" height="190" fill="url(#g48424)" rx="22"/>
<path d="M261.0 1127.93 L302.8 1155.1 L302.8 1196.9 L261.0 1224.07 L219.2 1196.9 L219.2 1155.1 Z" fill="#3b82f6" opacity="0.9"/>
<path d="M261.0 1127.93 L302.8 1155.1 L261.0 1182.27 L219.2 1155.1 Z" fill="#dbeafe"/>
<path d="M261.0 1182.27 L302.8 1155.1 L302.8 1196.9 L261.0 1224.07 Z" fill="#1d4ed8" opacity="0.75"/>
<circle cx="370.0" cy="1110" r="16" fill="#ffffff"/>
<text x="370.0" y="1115" font-family="Inter, sans-serif" font-size="14" fill="#64748b" font-weight="400" text-anchor="middle">♡</text>
<rect x="136.0" y="1096" width="50.8" height="20" fill="#ffffff" rx="10.0"/>
<text x="161.4" y="1109.6" font-family="Inter, sans-serif" font-size="10" fill="#2563eb" font-weight="600" text-anchor="middle">STL ×4</text>
<text x="138.0" y="1300" font-family="Inter, sans-serif" font-size="14.5" fill="#0f172a" font-weight="700" text-anchor="start">Rồng Á Đông chi tiết cao</text>
<text x="138.0" y="1322" font-family="Inter, sans-serif" font-size="12" fill="#64748b" font-weight="400" text-anchor="start">Sạp Dragon Studio</text>
<path d="M138.0 1342.5 l1.76 3.74 l4.18 0.05 l-3.3 2.5300000000000002 l1.21 3.96 l-3.8499999999999996 -2.42 l-3.8499999999999996 2.42 l1.21 -3.96 l-3.3 -2.5300000000000002 l4.18 -0.05 Z" fill="#f59e0b"/>
<path d="M151.0 1342.5 l1.76 3.74 l4.18 0.05 l-3.3 2.5300000000000002 l1.21 3.96 l-3.8499999999999996 -2.42 l-3.8499999999999996 2.42 l1.21 -3.96 l-3.3 -2.5300000000000002 l4.18 -0.05 Z" fill="#f59e0b"/>
<path d="M164.0 1342.5 l1.76 3.74 l4.18 0.05 l-3.3 2.5300000000000002 l1.21 3.96 l-3.8499999999999996 -2.42 l-3.8499999999999996 2.42 l1.21 -3.96 l-3.3 -2.5300000000000002 l4.18 -0.05 Z" fill="#f59e0b"/>
<path d="M177.0 1342.5 l1.76 3.74 l4.18 0.05 l-3.3 2.5300000000000002 l1.21 3.96 l-3.8499999999999996 -2.42 l-3.8499999999999996 2.42 l1.21 -3.96 l-3.3 -2.5300000000000002 l4.18 -0.05 Z" fill="#f59e0b"/>
<path d="M190.0 1342.5 l1.76 3.74 l4.18 0.05 l-3.3 2.5300000000000002 l1.21 3.96 l-3.8499999999999996 -2.42 l-3.8499999999999996 2.42 l1.21 -3.96 l-3.3 -2.5300000000000002 l4.18 -0.05 Z" fill="#f59e0b"/>
<text x="208.0" y="1351" font-family="Inter, sans-serif" font-size="11.5" fill="#64748b" font-weight="600" text-anchor="start">4.9</text>
<text x="384.0" y="1354" font-family="Inter, sans-serif" font-size="17" fill="#2563eb" font-weight="800" text-anchor="end">250.000₫</text>
<rect x="426.0" y="1080" width="282.0" height="336" fill="#ffffff" rx="22" stroke="#e2e8f0" stroke-width="1"/>
<defs><linearGradient id="g14616" x1="0" y1="0" x2="1" y2="1"><stop offset="0" stop-color="#eff6ff"/><stop offset="1" stop-color="#e0f2fe"/></linearGradient></defs>
<rect x="427.0" y="1081" width="280.0" height="190" fill="url(#g14616)" rx="22"/>
<path d="M567.0 1127.93 L608.8 1155.1 L608.8 1196.9 L567.0 1224.07 L525.2 1196.9 L525.2 1155.1 Z" fill="#3b82f6" opacity="0.9"/>
<path d="M567.0 1127.93 L608.8 1155.1 L567.0 1182.27 L525.2 1155.1 Z" fill="#dbeafe"/>
<path d="M567.0 1182.27 L608.8 1155.1 L608.8 1196.9 L567.0 1224.07 Z" fill="#1d4ed8" opacity="0.75"/>
<circle cx="676.0" cy="1110" r="16" fill="#ffffff"/>
<text x="676.0" y="1115" font-family="Inter, sans-serif" font-size="14" fill="#64748b" font-weight="400" text-anchor="middle">♡</text>
<rect x="442.0" y="1096" width="50.8" height="20" fill="#ffffff" rx="10.0"/>
<text x="467.4" y="1109.6" font-family="Inter, sans-serif" font-size="10" fill="#2563eb" font-weight="600" text-anchor="middle">STL ×4</text>
<text x="444.0" y="1300" font-family="Inter, sans-serif" font-size="14.5" fill="#0f172a" font-weight="700" text-anchor="start">Chậu cây hình học</text>
<text x="444.0" y="1322" font-family="Inter, sans-serif" font-size="12" fill="#64748b" font-weight="400" text-anchor="start">Sạp GeoPrint</text>
<path d="M444.0 1342.5 l1.76 3.74 l4.18 0.05 l-3.3 2.5300000000000002 l1.21 3.96 l-3.8499999999999996 -2.42 l-3.8499999999999996 2.42 l1.21 -3.96 l-3.3 -2.5300000000000002 l4.18 -0.05 Z" fill="#f59e0b"/>
<path d="M457.0 1342.5 l1.76 3.74 l4.18 0.05 l-3.3 2.5300000000000002 l1.21 3.96 l-3.8499999999999996 -2.42 l-3.8499999999999996 2.42 l1.21 -3.96 l-3.3 -2.5300000000000002 l4.18 -0.05 Z" fill="#f59e0b"/>
<path d="M470.0 1342.5 l1.76 3.74 l4.18 0.05 l-3.3 2.5300000000000002 l1.21 3.96 l-3.8499999999999996 -2.42 l-3.8499999999999996 2.42 l1.21 -3.96 l-3.3 -2.5300000000000002 l4.18 -0.05 Z" fill="#f59e0b"/>
<path d="M483.0 1342.5 l1.76 3.74 l4.18 0.05 l-3.3 2.5300000000000002 l1.21 3.96 l-3.8499999999999996 -2.42 l-3.8499999999999996 2.42 l1.21 -3.96 l-3.3 -2.5300000000000002 l4.18 -0.05 Z" fill="#f59e0b"/>
<path d="M496.0 1342.5 l1.76 3.74 l4.18 0.05 l-3.3 2.5300000000000002 l1.21 3.96 l-3.8499999999999996 -2.42 l-3.8499999999999996 2.42 l1.21 -3.96 l-3.3 -2.5300000000000002 l4.18 -0.05 Z" fill="#f59e0b"/>
<text x="514.0" y="1351" font-family="Inter, sans-serif" font-size="11.5" fill="#64748b" font-weight="600" text-anchor="start">4.7</text>
<text x="690.0" y="1354" font-family="Inter, sans-serif" font-size="17" fill="#2563eb" font-weight="800" text-anchor="end">89.000₫</text>
<rect x="732.0" y="1080" width="282.0" height="336" fill="#ffffff" rx="22" stroke="#e2e8f0" stroke-width="1"/>
<defs><linearGradient id="g3425" x1="0" y1="0" x2="1" y2="1"><stop offset="0" stop-color="#eff6ff"/><stop offset="1" stop-color="#e0f2fe"/></linearGradient></defs>
<rect x="733.0" y="1081" width="280.0" height="190" fill="url(#g3425)" rx="22"/>
<path d="M873.0 1127.93 L914.8 1155.1 L914.8 1196.9 L873.0 1224.07 L831.2 1196.9 L831.2 1155.1 Z" fill="#3b82f6" opacity="0.9"/>
<path d="M873.0 1127.93 L914.8 1155.1 L873.0 1182.27 L831.2 1155.1 Z" fill="#dbeafe"/>
<path d="M873.0 1182.27 L914.8 1155.1 L914.8 1196.9 L873.0 1224.07 Z" fill="#1d4ed8" opacity="0.75"/>
<circle cx="982.0" cy="1110" r="16" fill="#ffffff"/>
<text x="982.0" y="1115" font-family="Inter, sans-serif" font-size="14" fill="#64748b" font-weight="400" text-anchor="middle">♡</text>
<rect x="748.0" y="1096" width="50.8" height="20" fill="#ffffff" rx="10.0"/>
<text x="773.4" y="1109.6" font-family="Inter, sans-serif" font-size="10" fill="#2563eb" font-weight="600" text-anchor="middle">STL ×4</text>
<text x="750.0" y="1300" font-family="Inter, sans-serif" font-size="14.5" fill="#0f172a" font-weight="700" text-anchor="start">Bộ cờ vua Trung Cổ</text>
<text x="750.0" y="1322" font-family="Inter, sans-serif" font-size="12" fill="#64748b" font-weight="400" text-anchor="start">Sạp Tabletop VN</text>
<path d="M750.0 1342.5 l1.76 3.74 l4.18 0.05 l-3.3 2.5300000000000002 l1.21 3.96 l-3.8499999999999996 -2.42 l-3.8499999999999996 2.42 l1.21 -3.96 l-3.3 -2.5300000000000002 l4.18 -0.05 Z" fill="#f59e0b"/>
<path d="M763.0 1342.5 l1.76 3.74 l4.18 0.05 l-3.3 2.5300000000000002 l1.21 3.96 l-3.8499999999999996 -2.42 l-3.8499999999999996 2.42 l1.21 -3.96 l-3.3 -2.5300000000000002 l4.18 -0.05 Z" fill="#f59e0b"/>
<path d="M776.0 1342.5 l1.76 3.74 l4.18 0.05 l-3.3 2.5300000000000002 l1.21 3.96 l-3.8499999999999996 -2.42 l-3.8499999999999996 2.42 l1.21 -3.96 l-3.3 -2.5300000000000002 l4.18 -0.05 Z" fill="#f59e0b"/>
<path d="M789.0 1342.5 l1.76 3.74 l4.18 0.05 l-3.3 2.5300000000000002 l1.21 3.96 l-3.8499999999999996 -2.42 l-3.8499999999999996 2.42 l1.21 -3.96 l-3.3 -2.5300000000000002 l4.18 -0.05 Z" fill="#f59e0b"/>
<path d="M802.0 1342.5 l1.76 3.74 l4.18 0.05 l-3.3 2.5300000000000002 l1.21 3.96 l-3.8499999999999996 -2.42 l-3.8499999999999996 2.42 l1.21 -3.96 l-3.3 -2.5300000000000002 l4.18 -0.05 Z" fill="#f59e0b"/>
<text x="820.0" y="1351" font-family="Inter, sans-serif" font-size="11.5" fill="#64748b" font-weight="600" text-anchor="start">5.0</text>
<text x="996.0" y="1354" font-family="Inter, sans-serif" font-size="17" fill="#2563eb" font-weight="800" text-anchor="end">420.000₫</text>
<rect x="1038.0" y="1080" width="282.0" height="336" fill="#ffffff" rx="22" stroke="#e2e8f0" stroke-width="1"/>
<defs><linearGradient id="g59729" x1="0" y1="0" x2="1" y2="1"><stop offset="0" stop-color="#eff6ff"/><stop offset="1" stop-color="#e0f2fe"/></linearGradient></defs>
<rect x="1039.0" y="1081" width="280.0" height="190" fill="url(#g59729)" rx="22"/>
<path d="M1179.0 1127.93 L1220.8 1155.1 L1220.8 1196.9 L1179.0 1224.07 L1137.2 1196.9 L1137.2 1155.1 Z" fill="#3b82f6" opacity="0.9"/>
<path d="M1179.0 1127.93 L1220.8 1155.1 L1179.0 1182.27 L1137.2 1155.1 Z" fill="#dbeafe"/>
<path d="M1179.0 1182.27 L1220.8 1155.1 L1220.8 1196.9 L1179.0 1224.07 Z" fill="#1d4ed8" opacity="0.75"/>
<circle cx="1288.0" cy="1110" r="16" fill="#ffffff"/>
<text x="1288.0" y="1115" font-family="Inter, sans-serif" font-size="14" fill="#64748b" font-weight="400" text-anchor="middle">♡</text>
<rect x="1054.0" y="1096" width="50.8" height="20" fill="#ffffff" rx="10.0"/>
<text x="1079.4" y="1109.6" font-family="Inter, sans-serif" font-size="10" fill="#2563eb" font-weight="600" text-anchor="middle">STL ×4</text>
<text x="1056.0" y="1300" font-family="Inter, sans-serif" font-size="14.5" fill="#0f172a" font-weight="700" text-anchor="start">Giá đỡ điện thoại</text>
<text x="1056.0" y="1322" font-family="Inter, sans-serif" font-size="12" fill="#64748b" font-weight="400" text-anchor="start">Sạp DailyMake</text>
<path d="M1056.0 1342.5 l1.76 3.74 l4.18 0.05 l-3.3 2.5300000000000002 l1.21 3.96 l-3.8499999999999996 -2.42 l-3.8499999999999996 2.42 l1.21 -3.96 l-3.3 -2.5300000000000002 l4.18 -0.05 Z" fill="#f59e0b"/>
<path d="M1069.0 1342.5 l1.76 3.74 l4.18 0.05 l-3.3 2.5300000000000002 l1.21 3.96 l-3.8499999999999996 -2.42 l-3.8499999999999996 2.42 l1.21 -3.96 l-3.3 -2.5300000000000002 l4.18 -0.05 Z" fill="#f59e0b"/>
<path d="M1082.0 1342.5 l1.76 3.74 l4.18 0.05 l-3.3 2.5300000000000002 l1.21 3.96 l-3.8499999999999996 -2.42 l-3.8499999999999996 2.42 l1.21 -3.96 l-3.3 -2.5300000000000002 l4.18 -0.05 Z" fill="#f59e0b"/>
<path d="M1095.0 1342.5 l1.76 3.74 l4.18 0.05 l-3.3 2.5300000000000002 l1.21 3.96 l-3.8499999999999996 -2.42 l-3.8499999999999996 2.42 l1.21 -3.96 l-3.3 -2.5300000000000002 l4.18 -0.05 Z" fill="#f59e0b"/>
<path d="M1108.0 1342.5 l1.76 3.74 l4.18 0.05 l-3.3 2.5300000000000002 l1.21 3.96 l-3.8499999999999996 -2.42 l-3.8499999999999996 2.42 l1.21 -3.96 l-3.3 -2.5300000000000002 l4.18 -0.05 Z" fill="#f59e0b"/>
<text x="1126.0" y="1351" font-family="Inter, sans-serif" font-size="11.5" fill="#64748b" font-weight="600" text-anchor="start">4.8</text>
<text x="1302.0" y="1354" font-family="Inter, sans-serif" font-size="17" fill="#2563eb" font-weight="800" text-anchor="end">65.000₫</text>
<rect x="120" y="1478" width="1200" height="300" fill="#0f172a" rx="28"/>
<circle cx="1180" cy="1628" r="150" fill="#2563eb" opacity="0.18"/>
<rect x="168" y="1526" width="106.94" height="26" fill="#1e293b" rx="13.0"/>
<text x="221.47" y="1542.96" font-family="Inter, sans-serif" font-size="11" fill="#06b6d4" font-weight="600" text-anchor="middle">Dịch vụ in 3D</text>
<text x="168" y="1596" font-family="Inter, sans-serif" font-size="32" fill="#ffffff" font-weight="800" text-anchor="start">Có file STL? In và giao tận nơi</text>
<text x="168" y="1636" font-family="Inter, sans-serif" font-size="15" fill="#94a3b8" font-weight="400" text-anchor="start">Tải file lên, xem preview 3D, nhận báo giá trong 24 giờ.</text>
<text x="168" y="1662" font-family="Inter, sans-serif" font-size="15" fill="#94a3b8" font-weight="400" text-anchor="start">Đa dạng vật liệu PLA, ABS, Resin — giao toàn quốc.</text>
<rect x="168" y="1692" width="168" height="48" fill="#2563eb" rx="12"/>
<text x="252.0" y="1721.04" font-family="Inter, sans-serif" font-size="14" fill="#ffffff" font-weight="600" text-anchor="middle">Tải file STL lên</text>
<rect x="352" y="1692" width="140" height="48" fill="#ffffff" rx="12" stroke="#e2e8f0" stroke-width="1"/>
<text x="422.0" y="1721.04" font-family="Inter, sans-serif" font-size="14" fill="#475569" font-weight="600" text-anchor="middle">Xem bảng giá</text>
<circle cx="950" cy="1608" r="22" fill="#1e293b" stroke="#06b6d4" stroke-width="1.5"/>
<text x="950" y="1614" font-family="Inter, sans-serif" font-size="15" fill="#06b6d4" font-weight="700" text-anchor="middle">1</text>
<text x="950" y="1654" font-family="Inter, sans-serif" font-size="12" fill="#94a3b8" font-weight="600" text-anchor="middle">Tải STL</text>
<line x1="974" y1="1608" x2="1026" y2="1608" stroke="#334155" stroke-width="1.5"/>
<circle cx="1050" cy="1608" r="22" fill="#1e293b" stroke="#06b6d4" stroke-width="1.5"/>
<text x="1050" y="1614" font-family="Inter, sans-serif" font-size="15" fill="#06b6d4" font-weight="700" text-anchor="middle">2</text>
<text x="1050" y="1654" font-family="Inter, sans-serif" font-size="12" fill="#94a3b8" font-weight="600" text-anchor="middle">Nhận báo giá</text>
<line x1="1074" y1="1608" x2="1126" y2="1608" stroke="#334155" stroke-width="1.5"/>
<circle cx="1150" cy="1608" r="22" fill="#1e293b" stroke="#06b6d4" stroke-width="1.5"/>
<text x="1150" y="1614" font-family="Inter, sans-serif" font-size="15" fill="#06b6d4" font-weight="700" text-anchor="middle">3</text>
<text x="1150" y="1654" font-family="Inter, sans-serif" font-size="12" fill="#94a3b8" font-weight="600" text-anchor="middle">Xác nhận</text>
<line x1="1174" y1="1608" x2="1226" y2="1608" stroke="#334155" stroke-width="1.5"/>
<circle cx="1250" cy="1608" r="22" fill="#1e293b" stroke="#06b6d4" stroke-width="1.5"/>
<text x="1250" y="1614" font-family="Inter, sans-serif" font-size="15" fill="#06b6d4" font-weight="700" text-anchor="middle">4</text>
<text x="1250" y="1654" font-family="Inter, sans-serif" font-size="12" fill="#94a3b8" font-weight="600" text-anchor="middle">Giao hàng</text>
<text x="120" y="1844" font-family="Inter, sans-serif" font-size="32" fill="#0f172a" font-weight="800" text-anchor="start">Sạp bán hàng nổi bật</text>
<text x="120" y="1876" font-family="Inter, sans-serif" font-size="15" fill="#64748b" font-weight="400" text-anchor="start">Những nhà thiết kế được cộng đồng tin tưởng</text>
<rect x="120.0" y="1902" width="384.0" height="210" fill="#ffffff" rx="22" stroke="#e2e8f0" stroke-width="1"/>
<rect x="121.0" y="1903" width="382.0" height="72" fill="#dbeafe" rx="22"/>
<rect x="121.0" y="1944" width="382.0" height="31" fill="#dbeafe"/>
<circle cx="164.0" cy="1975" r="30" fill="#ffffff"/>
<circle cx="164.0" cy="1975" r="25" fill="#dbeafe"/>
<text x="164.0" y="1983.75" font-family="Inter, sans-serif" font-size="22.5" fill="#2563eb" font-weight="700" text-anchor="middle">D</text>
<text x="208.0" y="1972" font-family="Inter, sans-serif" font-size="15.5" fill="#0f172a" font-weight="700" text-anchor="start">Dragon Studio</text>
<text x="208.0" y="1992" font-family="Inter, sans-serif" font-size="12" fill="#64748b" font-weight="400" text-anchor="start">248 mô hình</text>
<path d="M144.0 2032.5 l1.76 3.74 l4.18 0.05 l-3.3 2.5300000000000002 l1.21 3.96 l-3.8499999999999996 -2.42 l-3.8499999999999996 2.42 l1.21 -3.96 l-3.3 -2.5300000000000002 l4.18 -0.05 Z" fill="#f59e0b"/>
<path d="M157.0 2032.5 l1.76 3.74 l4.18 0.05 l-3.3 2.5300000000000002 l1.21 3.96 l-3.8499999999999996 -2.42 l-3.8499999999999996 2.42 l1.21 -3.96 l-3.3 -2.5300000000000002 l4.18 -0.05 Z" fill="#f59e0b"/>
<path d="M170.0 2032.5 l1.76 3.74 l4.18 0.05 l-3.3 2.5300000000000002 l1.21 3.96 l-3.8499999999999996 -2.42 l-3.8499999999999996 2.42 l1.21 -3.96 l-3.3 -2.5300000000000002 l4.18 -0.05 Z" fill="#f59e0b"/>
<path d="M183.0 2032.5 l1.76 3.74 l4.18 0.05 l-3.3 2.5300000000000002 l1.21 3.96 l-3.8499999999999996 -2.42 l-3.8499999999999996 2.42 l1.21 -3.96 l-3.3 -2.5300000000000002 l4.18 -0.05 Z" fill="#f59e0b"/>
<path d="M196.0 2032.5 l1.76 3.74 l4.18 0.05 l-3.3 2.5300000000000002 l1.21 3.96 l-3.8499999999999996 -2.42 l-3.8499999999999996 2.42 l1.21 -3.96 l-3.3 -2.5300000000000002 l4.18 -0.05 Z" fill="#f59e0b"/>
<text x="216.0" y="2041" font-family="Inter, sans-serif" font-size="12" fill="#475569" font-weight="600" text-anchor="start">4.9</text>
<text x="250.0" y="2041" font-family="Inter, sans-serif" font-size="11.5" fill="#64748b" font-weight="400" text-anchor="start">·  12.4K theo dõi</text>
<rect x="144.0" y="2060" width="336.0" height="36" fill="#eff6ff" rx="12"/>
<text x="312.0" y="2082.5" font-family="Inter, sans-serif" font-size="12.5" fill="#2563eb" font-weight="600" text-anchor="middle">＋  Theo dõi</text>
<rect x="528.0" y="1902" width="384.0" height="210" fill="#ffffff" rx="22" stroke="#e2e8f0" stroke-width="1"/>
<rect x="529.0" y="1903" width="382.0" height="72" fill="#dbeafe" rx="22"/>
<rect x="529.0" y="1944" width="382.0" height="31" fill="#dbeafe"/>
<circle cx="572.0" cy="1975" r="30" fill="#ffffff"/>
<circle cx="572.0" cy="1975" r="25" fill="#dbeafe"/>
<text x="572.0" y="1983.75" font-family="Inter, sans-serif" font-size="22.5" fill="#2563eb" font-weight="700" text-anchor="middle">G</text>
<text x="616.0" y="1972" font-family="Inter, sans-serif" font-size="15.5" fill="#0f172a" font-weight="700" text-anchor="start">GeoPrint Lab</text>
<text x="616.0" y="1992" font-family="Inter, sans-serif" font-size="12" fill="#64748b" font-weight="400" text-anchor="start">132 mô hình</text>
<path d="M552.0 2032.5 l1.76 3.74 l4.18 0.05 l-3.3 2.5300000000000002 l1.21 3.96 l-3.8499999999999996 -2.42 l-3.8499999999999996 2.42 l1.21 -3.96 l-3.3 -2.5300000000000002 l4.18 -0.05 Z" fill="#f59e0b"/>
<path d="M565.0 2032.5 l1.76 3.74 l4.18 0.05 l-3.3 2.5300000000000002 l1.21 3.96 l-3.8499999999999996 -2.42 l-3.8499999999999996 2.42 l1.21 -3.96 l-3.3 -2.5300000000000002 l4.18 -0.05 Z" fill="#f59e0b"/>
<path d="M578.0 2032.5 l1.76 3.74 l4.18 0.05 l-3.3 2.5300000000000002 l1.21 3.96 l-3.8499999999999996 -2.42 l-3.8499999999999996 2.42 l1.21 -3.96 l-3.3 -2.5300000000000002 l4.18 -0.05 Z" fill="#f59e0b"/>
<path d="M591.0 2032.5 l1.76 3.74 l4.18 0.05 l-3.3 2.5300000000000002 l1.21 3.96 l-3.8499999999999996 -2.42 l-3.8499999999999996 2.42 l1.21 -3.96 l-3.3 -2.5300000000000002 l4.18 -0.05 Z" fill="#f59e0b"/>
<path d="M604.0 2032.5 l1.76 3.74 l4.18 0.05 l-3.3 2.5300000000000002 l1.21 3.96 l-3.8499999999999996 -2.42 l-3.8499999999999996 2.42 l1.21 -3.96 l-3.3 -2.5300000000000002 l4.18 -0.05 Z" fill="#f59e0b"/>
<text x="624.0" y="2041" font-family="Inter, sans-serif" font-size="12" fill="#475569" font-weight="600" text-anchor="start">4.8</text>
<text x="658.0" y="2041" font-family="Inter, sans-serif" font-size="11.5" fill="#64748b" font-weight="400" text-anchor="start">·  8.1K theo dõi</text>
<rect x="552.0" y="2060" width="336.0" height="36" fill="#eff6ff" rx="12"/>
<text x="720.0" y="2082.5" font-family="Inter, sans-serif" font-size="12.5" fill="#2563eb" font-weight="600" text-anchor="middle">＋  Theo dõi</text>
<rect x="936.0" y="1902" width="384.0" height="210" fill="#ffffff" rx="22" stroke="#e2e8f0" stroke-width="1"/>
<rect x="937.0" y="1903" width="382.0" height="72" fill="#dbeafe" rx="22"/>
<rect x="937.0" y="1944" width="382.0" height="31" fill="#dbeafe"/>
<circle cx="980.0" cy="1975" r="30" fill="#ffffff"/>
<circle cx="980.0" cy="1975" r="25" fill="#dbeafe"/>
<text x="980.0" y="1983.75" font-family="Inter, sans-serif" font-size="22.5" fill="#2563eb" font-weight="700" text-anchor="middle">T</text>
<text x="1024.0" y="1972" font-family="Inter, sans-serif" font-size="15.5" fill="#0f172a" font-weight="700" text-anchor="start">Tabletop VN</text>
<text x="1024.0" y="1992" font-family="Inter, sans-serif" font-size="12" fill="#64748b" font-weight="400" text-anchor="start">310 mô hình</text>
<path d="M960.0 2032.5 l1.76 3.74 l4.18 0.05 l-3.3 2.5300000000000002 l1.21 3.96 l-3.8499999999999996 -2.42 l-3.8499999999999996 2.42 l1.21 -3.96 l-3.3 -2.5300000000000002 l4.18 -0.05 Z" fill="#f59e0b"/>
<path d="M973.0 2032.5 l1.76 3.74 l4.18 0.05 l-3.3 2.5300000000000002 l1.21 3.96 l-3.8499999999999996 -2.42 l-3.8499999999999996 2.42 l1.21 -3.96 l-3.3 -2.5300000000000002 l4.18 -0.05 Z" fill="#f59e0b"/>
<path d="M986.0 2032.5 l1.76 3.74 l4.18 0.05 l-3.3 2.5300000000000002 l1.21 3.96 l-3.8499999999999996 -2.42 l-3.8499999999999996 2.42 l1.21 -3.96 l-3.3 -2.5300000000000002 l4.18 -0.05 Z" fill="#f59e0b"/>
<path d="M999.0 2032.5 l1.76 3.74 l4.18 0.05 l-3.3 2.5300000000000002 l1.21 3.96 l-3.8499999999999996 -2.42 l-3.8499999999999996 2.42 l1.21 -3.96 l-3.3 -2.5300000000000002 l4.18 -0.05 Z" fill="#f59e0b"/>
<path d="M1012.0 2032.5 l1.76 3.74 l4.18 0.05 l-3.3 2.5300000000000002 l1.21 3.96 l-3.8499999999999996 -2.42 l-3.8499999999999996 2.42 l1.21 -3.96 l-3.3 -2.5300000000000002 l4.18 -0.05 Z" fill="#f59e0b"/>
<text x="1032.0" y="2041" font-family="Inter, sans-serif" font-size="12" fill="#475569" font-weight="600" text-anchor="start">5.0</text>
<text x="1066.0" y="2041" font-family="Inter, sans-serif" font-size="11.5" fill="#64748b" font-weight="400" text-anchor="start">·  15.2K theo dõi</text>
<rect x="960.0" y="2060" width="336.0" height="36" fill="#eff6ff" rx="12"/>
<text x="1128.0" y="2082.5" font-family="Inter, sans-serif" font-size="12.5" fill="#2563eb" font-weight="600" text-anchor="middle">＋  Theo dõi</text>
<rect x="0" y="2180" width="1440" height="240" fill="#0f172a"/>
<rect x="120" y="2228" width="34.0" height="34.0" fill="#2563eb" rx="10.0"/>
<text x="137.0" y="2250.0" font-family="Inter, sans-serif" font-size="18.0" fill="#ffffff" font-weight="800" text-anchor="middle">P</text>
<text x="164.0" y="2250.0" font-family="Inter, sans-serif" font-size="16.0" fill="#ffffff" font-weight="700" text-anchor="start">Print Hub 3D</text>
<text x="120" y="2290" font-family="Inter, sans-serif" font-size="13" fill="#94a3b8" font-weight="400" text-anchor="start">Chợ mô hình 3D &amp; dịch vụ in 3D theo yêu cầu.</text>
<text x="120" y="2314" font-family="Inter, sans-serif" font-size="13" fill="#94a3b8" font-weight="400" text-anchor="start">Mua bán file STL, mở sạp kinh doanh, in 3D tận nơi.</text>
<text x="680" y="2232" font-family="Inter, sans-serif" font-size="13" fill="#ffffff" font-weight="700" text-anchor="start">Khám phá</text>
<text x="680" y="2262" font-family="Inter, sans-serif" font-size="12.5" fill="#94a3b8" font-weight="400" text-anchor="start">Chợ mô hình</text>
<text x="680" y="2288" font-family="Inter, sans-serif" font-size="12.5" fill="#94a3b8" font-weight="400" text-anchor="start">Danh mục</text>
<text x="680" y="2314" font-family="Inter, sans-serif" font-size="12.5" fill="#94a3b8" font-weight="400" text-anchor="start">Sạp nổi bật</text>
<text x="680" y="2340" font-family="Inter, sans-serif" font-size="12.5" fill="#94a3b8" font-weight="400" text-anchor="start">Mới nhất</text>
<text x="880" y="2232" font-family="Inter, sans-serif" font-size="13" fill="#ffffff" font-weight="700" text-anchor="start">Dịch vụ</text>
<text x="880" y="2262" font-family="Inter, sans-serif" font-size="12.5" fill="#94a3b8" font-weight="400" text-anchor="start">In 3D theo yêu cầu</text>
<text x="880" y="2288" font-family="Inter, sans-serif" font-size="12.5" fill="#94a3b8" font-weight="400" text-anchor="start">Báo giá tức thì</text>
<text x="880" y="2314" font-family="Inter, sans-serif" font-size="12.5" fill="#94a3b8" font-weight="400" text-anchor="start">Vật liệu in</text>
<text x="880" y="2340" font-family="Inter, sans-serif" font-size="12.5" fill="#94a3b8" font-weight="400" text-anchor="start">Vận chuyển</text>
<text x="1080" y="2232" font-family="Inter, sans-serif" font-size="13" fill="#ffffff" font-weight="700" text-anchor="start">Hỗ trợ</text>
<text x="1080" y="2262" font-family="Inter, sans-serif" font-size="12.5" fill="#94a3b8" font-weight="400" text-anchor="start">Trung tâm trợ giúp</text>
<text x="1080" y="2288" font-family="Inter, sans-serif" font-size="12.5" fill="#94a3b8" font-weight="400" text-anchor="start">Điều khoản</text>
<text x="1080" y="2314" font-family="Inter, sans-serif" font-size="12.5" fill="#94a3b8" font-weight="400" text-anchor="start">Bảo mật</text>
<text x="1080" y="2340" font-family="Inter, sans-serif" font-size="12.5" fill="#94a3b8" font-weight="400" text-anchor="start">Liên hệ</text>
<line x1="120" y1="2370" x2="1320" y2="2370" stroke="#1e293b" stroke-width="1"/>
<text x="120" y="2398" font-family="Inter, sans-serif" font-size="12" fill="#64748b" font-weight="400" text-anchor="start">© 2026 Print Hub 3D — Đồ án tốt nghiệp</text>
<text x="1320" y="2398" font-family="Inter, sans-serif" font-size="12" fill="#64748b" font-weight="400" text-anchor="end">Tiếng Việt  ·  English</text>
</svg>