<svg xmlns="http://www.w3.org/2000/svg" width="1440" height="1080" viewBox="0 0 1440 1080">
<rect x="0" y="0" width="1440" height="1080" fill="#f8fafc"/>
<rect x="0" y="0" width="1440" height="72" fill="#ffffff"/>
<line x1="0" y1="72" x2="1440" y2="72" stroke="#e2e8f0" stroke-width="1"/>
<rect x="120" y="19" width="34.0" height="34.0" fill="#2563eb" rx="10.0"/>
<text x="137.0" y="41.0" font-family="Inter, sans-serif" font-size="18.0" fill="#ffffff" font-weight="800" text-anchor="middle">P</text>
<text x="164.0" y="41.0" font-family="Inter, sans-serif" font-size="16.0" fill="#0f172a" font-weight="700" text-anchor="start">Print Hub 3D</text>
<text x="350" y="41" font-family="Inter, sans-serif" font-size="14" fill="#475569" font-weight="500" text-anchor="start">Trang chủ</text>
<text x="461.8" y="41" font-family="Inter, sans-serif" font-size="14" fill="#2563eb" font-weight="600" text-anchor="start">Chợ mô hình</text>
<rect x="461.8" y="50" width="88" height="2.5" fill="#2563eb" rx="2"/>
<text x="590.0" y="41" font-family="Inter, sans-serif" font-size="14" fill="#475569" font-weight="500" text-anchor="start">Dịch vụ in 3D</text>
<text x="734.6" y="41" font-family="Inter, sans-serif" font-size="14" fill="#475569" font-weight="500" text-anchor="start">Sạp bán hàng</text>
<circle cx="1302" cy="36" r="18" fill="#dbeafe"/>
<text x="1302" y="42.3" font-family="Inter, sans-serif" font-size="16.2" fill="#2563eb" font-weight="700" text-anchor="middle">T</text>
<text x="1274" y="41" font-family="Inter, sans-serif" font-size="13" fill="#475569" font-weight="500" text-anchor="end">Tuấn Anh</text>
<circle cx="1192" cy="36" r="17" fill="#f1f5f9"/>
<text x="1192" y="41" font-family="Inter, sans-serif" font-size="14" fill="#475569" font-weight="400" text-anchor="middle">🔔</text>
<circle cx="1200" cy="28" r="7" fill="#ef4444"/>
<text x="1200" y="31" font-family="Inter, sans-serif" font-size="9" fill="#ffffff" font-weight="700" text-anchor="middle">3</text>
<circle cx="1142" cy="36" r="17" fill="#f1f5f9"/>
<text x="1142" y="41" font-family="Inter, sans-serif" font-size="14" fill="#475569" font-weight="400" text-anchor="middle">🛒</text>
<circle cx="1150" cy="28" r="7" fill="#2563eb"/>
<text x="1150" y="31" font-family="Inter, sans-serif" font-size="9" fill="#ffffff" font-weight="700" text-anchor="middle">2</text>
<text x="120" y="136" font-family="Inter, sans-serif" font-size="34" fill="#0f172a" font-weight="800" text-anchor="start">Thanh toán</text>
<circle cx="210" cy="178" r="18" fill="#2563eb"/>
<text x="210" y="184" font-family="Inter, sans-serif" font-size="14" fill="#ffffff" font-weight="700" text-anchor="middle">✓</text>
<text x="210" y="220" font-family="Inter, sans-serif" font-size="12.5" fill="#0f172a" font-weight="600" text-anchor="middle">Giỏ hàng</text>
<line x1="230" y1="178" x2="440" y2="178" stroke="#2563eb" stroke-width="2.5"/>
<circle cx="460" cy="178" r="18" fill="#2563eb"/>
<text x="460" y="184" font-family="Inter, sans-serif" font-size="14" fill="#ffffff" font-weight="700" text-anchor="middle">✓</text>
<text x="460" y="220" font-family="Inter, sans-serif" font-size="12.5" fill="#0f172a" font-weight="600" text-anchor="middle">Thông tin giao hàng</text>
<line x1="480" y1="178" x2="690" y2="178" stroke="#e2e8f0" stroke-width="2.5"/>
<circle cx="710" cy="178" r="18" fill="#ffffff" stroke="#cbd5e1" stroke-width="2"/>
<text x="710" y="184" font-family="Inter, sans-serif" font-size="14" fill="#94a3b8" font-weight="700" text-anchor="middle">3</text>
<text x="710" y="220" font-family="Inter, sans-serif" font-size="12.5" fill="#94a3b8" font-weight="600" text-anchor="middle">Thanh toán</text>
<line x1="730" y1="178" x2="940" y2="178" stroke="#e2e8f0" stroke-width="2.5"/>
<circle cx="960" cy="178" r="18" fill="#ffffff" stroke="#cbd5e1" stroke-width="2"/>
<text x="960" y="184" font-family="Inter, sans-serif" font-size="14" fill="#94a3b8" font-weight="700" text-anchor="middle">4</text>
<text x="960" y="220" font-family="Inter, sans-serif" font-size="12.5" fill="#94a3b8" font-weight="600" text-anchor="middle">Hoàn tất</text>
<rect x="120" y="254" width="800" height="340" fill="#ffffff" rx="22" stroke="#e2e8f0" stroke-width="1"/>
<text x="148" y="296" font-family="Inter, sans-serif" font-size="18" fill="#0f172a" font-weight="700" text-anchor="start">Thông tin giao hàng</text>
<text x="148.0" y="330" font-family="Inter, sans-serif" font-size="12.5" fill="#475569" font-weight="600" text-anchor="start">Họ và tên *</text>
<rect x="148.0" y="342" width="348.0" height="46" fill="#f8fafc" rx="11" stroke="#e2e8f0" stroke-width="1"/>
<text x="164.0" y="371" font-family="Inter, sans-serif" font-size="13.5" fill="#0f172a" font-weight="400" text-anchor="start">Nguyễn Tuấn Anh</text>
<text x="520.0" y="330" font-family="Inter, sans-serif" font-size="12.5" fill="#475569" font-weight="600" text-anchor="start">Số điện thoại *</text>
<rect x="520.0" y="342" width="348.0" height="46" fill="#f8fafc" rx="11" stroke="#e2e8f0" stroke-width="1"/>
<text x="536.0" y="371" font-family="Inter, sans-serif" font-size="13.5" fill="#0f172a" font-weight="400" text-anchor="start">0901 234 567</text>
<text x="148.0" y="408" font-family="Inter, sans-serif" font-size="12.5" fill="#475569" font-weight="600" text-anchor="start">Email *</text>
<rect x="148.0" y="420" width="348.0" height="46" fill="#f8fafc" rx="11" stroke="#e2e8f0" stroke-width="1"/>
<text x="164.0" y="449" font-family="Inter, sans-serif" font-size="13.5" fill="#0f172a" font-weight="400" text-anchor="start">tanh@gmail.com</text>
<text x="520.0" y="408" font-family="Inter, sans-serif" font-size="12.5" fill="#475569" font-weight="600" text-anchor="start">Tỉnh / Thành phố *</text>
<rect x="520.0" y="420" width="348.0" height="46" fill="#f8fafc" rx="11" stroke="#e2e8f0" stroke-width="1"/>
<text x="536.0" y="449" font-family="Inter, sans-serif" font-size="13.5" fill="#0f172a" font-weight="400" text-anchor="start">TP. Hồ Chí Minh  ▾</text>
<text x="148.0" y="486" font-family="Inter, sans-serif" font-size="12.5" fill="#475569" font-weight="600" text-anchor="start">Địa chỉ chi tiết *</text>
<rect x="148.0" y="498" width="720" height="46" fill="#f8fafc" rx="11" stroke="#e2e8f0" stroke-width="1"/>
<text x="164.0" y="527" font-family="Inter, sans-serif" font-size="13.5" fill="#0f172a" font-weight="400" text-anchor="start">123 Nguyễn Văn Cừ, Phường 4, Quận 5</text>
<rect x="120" y="618" width="800" height="250" fill="#ffffff" rx="22" stroke="#e2e8f0" stroke-width="1"/>
<text x="148" y="660" font-family="Inter, sans-serif" font-size="18" fill="#0f172a" font-weight="700" text-anchor="start">Phương thức thanh toán</text>
<rect x="148" y="686" width="744" height="48" fill="#eff6ff" rx="12" stroke="#2563eb" stroke-width="2"/>
<circle cx="172" cy="710" r="9" fill="#ffffff" stroke="#2563eb" stroke-width="2"/>
<circle cx="172" cy="710" r="4.5" fill="#2563eb"/>
<text x="194" y="707" font-family="Inter, sans-serif" font-size="13.5" fill="#0f172a" font-weight="600" text-anchor="start">Thẻ tín dụng / ghi nợ (Stripe)</text>
<text x="194" y="724" font-family="Inter, sans-serif" font-size="11.5" fill="#64748b" font-weight="400" text-anchor="start">Visa · Mastercard · JCB</text>
<rect x="148" y="744" width="744" height="48" fill="#ffffff" rx="12" stroke="#e2e8f0" stroke-width="1"/>
<circle cx="172" cy="768" r="9" fill="#ffffff" stroke="#cbd5e1" stroke-width="2"/>
<text x="194" y="765" font-family="Inter, sans-serif" font-size="13.5" fill="#0f172a" font-weight="600" text-anchor="start">Chuyển khoản ngân hàng</text>
<text x="194" y="782" font-family="Inter, sans-serif" font-size="11.5" fill="#64748b" font-weight="400" text-anchor="start">Vietcombank · Techcombank · MB</text>
<rect x="148" y="802" width="744" height="48" fill="#ffffff" rx="12" stroke="#e2e8f0" stroke-width="1"/>
<circle cx="172" cy="826" r="9" fill="#ffffff" stroke="#cbd5e1" stroke-width="2"/>
<text x="194" y="823" font-family="Inter, sans-serif" font-size="13.5" fill="#0f172a" font-weight="600" text-anchor="start">Ví MoMo</text>
<text x="194" y="840" font-family="Inter, sans-serif" font-size="11.5" fill="#64748b" font-weight="400" text-anchor="start">Thanh toán qua ứng dụng MoMo</text>
<rect x="948" y="254" width="372" height="470" fill="#ffffff" rx="22" stroke="#e2e8f0" stroke-width="1"/>
<text x="976" y="296" font-family="Inter, sans-serif" font-size="18" fill="#0f172a" font-weight="700" text-anchor="start">Đơn hàng của bạn</text>
<line x1="976" y1="316" x2="1292" y2="316" stroke="#e2e8f0" stroke-width="1"/>
<defs><linearGradient id="g95897" x1="0" y1="0" x2="1" y2="1"><stop offset="0" stop-color="#eff6ff"/><stop offset="1" stop-color="#e0f2fe"/></linearGradient></defs>
<rect x="976" y="334" width="44" height="44" fill="url(#g95897)" rx="10"/>
<path d="M998.0 344.868 L1007.68 351.16 L1007.68 360.84 L998.0 367.132 L988.32 360.84 L988.32 351.16 Z" fill="#3b82f6" opacity="0.9"/>
<path d="M998.0 344.868 L1007.68 351.16 L998.0 357.452 L988.32 351.16 Z" fill="#dbeafe"/>
<path d="M998.0 357.452 L1007.68 351.16 L1007.68 360.84 L998.0 367.132 Z" fill="#1d4ed8" opacity="0.75"/>
<text x="1032" y="350" font-family="Inter, sans-serif" font-size="13" fill="#0f172a" font-weight="600" text-anchor="start">Rồng Á Đông</text>
<text x="1032" y="368" font-family="Inter, sans-serif" font-size="11.5" fill="#64748b" font-weight="400" text-anchor="start">×1</text>
<text x="1292" y="356" font-family="Inter, sans-serif" font-size="13" fill="#0f172a" font-weight="600" text-anchor="end">250.000₫</text>
<defs><linearGradient id="g58126" x1="0" y1="0" x2="1" y2="1"><stop offset="0" stop-color="#eff6ff"/><stop offset="1" stop-color="#e0f2fe"/></linearGradient></defs>
<rect x="976" y="396" width="44" height="44" fill="url(#g58126)" rx="10"/>
<path d="M998.0 406.868 L1007.68 413.16 L1007.68 422.84 L998.0 429.132 L988.32 422.84 L988.32 413.16 Z" fill="#3b82f6" opacity="0.9"/>
<path d="M998.0 406.868 L1007.68 413.16 L998.0 419.452 L988.32 413.16 Z" fill="#dbeafe"/>
<path d="M998.0 419.452 L1007.68 413.16 L1007.68 422.84 L998.0 429.132 Z" fill="#1d4ed8" opacity="0.75"/>
<text x="1032" y="412" font-family="Inter, sans-serif" font-size="13" fill="#0f172a" font-weight="600" text-anchor="start">Bộ cờ Trung Cổ</text>
<text x="1032" y="430" font-family="Inter, sans-serif" font-size="11.5" fill="#64748b" font-weight="400" text-anchor="start">×1</text>
<text x="1292" y="418" font-family="Inter, sans-serif" font-size="13" fill="#0f172a" font-weight="600" text-anchor="end">420.000₫</text>
<defs><linearGradient id="g35832" x1="0" y1="0" x2="1" y2="1"><stop offset="0" stop-color="#eff6ff"/><stop offset="1" stop-color="#e0f2fe"/></linearGradient></defs>
<rect x="976" y="458" width="44" height="44" fill="url(#g35832)" rx="10"/>
<path d="M998.0 468.868 L1007.68 475.16 L1007.68 484.84 L998.0 491.132 L988.32 484.84 L988.32 475.16 Z" fill="#3b82f6" opacity="0.9"/>
<path d="M998.0 468.868 L1007.68 475.16 L998.0 481.452 L988.32 475.16 Z" fill="#dbeafe"/>
<path d="M998.0 481.452 L1007.68 475.16 L1007.68 484.84 L998.0 491.132 Z" fill="#1d4ed8" opacity="0.75"/>
<text x="1032" y="474" font-family="Inter, sans-serif" font-size="13" fill="#0f172a" font-weight="600" text-anchor="start">Giá đỡ điện thoại</text>
<text x="1032" y="492" font-family="Inter, sans-serif" font-size="11.5" fill="#64748b" font-weight="400" text-anchor="start">×2</text>
<text x="1292" y="480" font-family="Inter, sans-serif" font-size="13" fill="#0f172a" font-weight="600" text-anchor="end">130.000₫</text>
<line x1="976" y1="534" x2="1292" y2="534" stroke="#e2e8f0" stroke-width="1"/>
<text x="976" y="566" font-family="Inter, sans-serif" font-size="13" fill="#64748b" font-weight="400" text-anchor="start">Tạm tính</text>
<text x="1292" y="566" font-family="Inter, sans-serif" font-size="13" fill="#0f172a" font-weight="600" text-anchor="end">800.000₫</text>
<text x="976" y="594" font-family="Inter, sans-serif" font-size="13" fill="#64748b" font-weight="400" text-anchor="start">Giảm giá</text>
<text x="1292" y="594" font-family="Inter, sans-serif" font-size="13" fill="#22c55e" font-weight="600" text-anchor="end">−80.000₫</text>
<text x="976" y="622" font-family="Inter, sans-serif" font-size="13" fill="#64748b" font-weight="400" text-anchor="start">VAT (10%)</text>
<text x="1292" y="622" font-family="Inter, sans-serif" font-size="13" fill="#0f172a" font-weight="600" text-anchor="end">72.000₫</text>
<line x1="976" y1="654" x2="1292" y2="654" stroke="#e2e8f0" stroke-width="1"/>
<text x="976" y="686" font-family="Inter, sans-serif" font-size="15" fill="#0f172a" font-weight="700" text-anchor="start">Tổng cộng</text>
<text x="1292" y="690" font-family="Inter, sans-serif" font-size="24" fill="#2563eb" font-weight="800" text-anchor="end">792.000₫</text>
<rect x="948" y="748" width="372" height="56" fill="#2563eb" rx="12"/>
<text x="1134.0" y="781.4" font-family="Inter, sans-serif" font-size="15" fill="#ffffff" font-weight="600" text-anchor="middle">🔒   Đặt hàng &amp; Thanh toán</text>
<text x="1134" y="828" font-family="Inter, sans-serif" font-size="11.5" fill="#64748b" font-weight="400" text-anchor="middle">Bằng việc đặt hàng, bạn đồng ý với</text>
<text x="1134" y="846" font-family="Inter, sans-serif" font-size="11.5" fill="#2563eb" font-weight="600" text-anchor="middle">Điều khoản dịch vụ của Print Hub 3D</text>
</svg>