<svg xmlns="http://www.w3.org/2000/svg" width="1440" height="1340" viewBox="0 0 1440 1340">
<rect x="0" y="0" width="1440" height="1340" fill="#f8fafc"/>
<rect x="0" y="0" width="1440" height="72" fill="#ffffff"/>
<line x1="0" y1="72" x2="1440" y2="72" stroke="#e2e8f0" stroke-width="1"/>
<rect x="120" y="19" width="34.0" height="34.0" fill="#2563eb" rx="10.0"/>
<text x="137.0" y="41.0" font-family="Inter, sans-serif" font-size="18.0" fill="#ffffff" font-weight="800" text-anchor="middle">P</text>
<text x="164.0" y="41.0" font-family="Inter, sans-serif" font-size="16.0" fill="#0f172a" font-weight="700" text-anchor="start">Print Hub 3D</text>
<text x="350" y="41" font-family="Inter, sans-serif" font-size="14" fill="#475569" font-weight="500" text-anchor="start">Trang chủ</text>
<text x="461.8" y="41" font-family="Inter, sans-serif" font-size="14" fill="#475569" font-weight="500" text-anchor="start">Chợ mô hình</text>
<text x="590.0" y="41" font-family="Inter, sans-serif" font-size="14" fill="#475569" font-weight="500" text-anchor="start">Dịch vụ in 3D</text>
<text x="734.6" y="41" font-family="Inter, sans-serif" font-size="14" fill="#2563eb" font-weight="600" text-anchor="start">Sạp bán hàng</text>
<rect x="734.6" y="50" width="96" height="2.5" fill="#2563eb" rx="2"/>
<circle cx="1302" cy="36" r="18" fill="#dbeafe"/>
<text x="1302" y="42.3" font-family="Inter, sans-serif" font-size="16.2" fill="#2563eb" font-weight="700" text-anchor="middle">T</text>
<text x="1274" y="41" font-family="Inter, sans-serif" font-size="13" fill="#475569" font-weight="500" text-anchor="end">Tuấn Anh</text>
<circle cx="1192" cy="36" r="17" fill="#f1f5f9"/>
<text x="1192" y="41" font-family="Inter, sans-serif" font-size="14" fill="#475569" font-weight="400" text-anchor="middle">🔔</text>
<circle cx="1200" cy="28" r="7" fill="#ef4444"/>
<text x="1200" y="31" font-family="Inter, sans-serif" font-size="9" fill="#ffffff" font-weight="700" text-anchor="middle">3</text>
<circle cx="1142" cy="36" r="17" fill="#f1f5f9"/>
<text x="1142" y="41" font-family="Inter, sans-serif" font-size="14" fill="#475569" font-weight="400" text-anchor="middle">🛒</text>
<circle cx="1150" cy="28" r="7" fill="#2563eb"/>
<text x="1150" y="31" font-family="Inter, sans-serif" font-size="9" fill="#ffffff" font-weight="700" text-anchor="middle">2</text>
<defs><linearGradient id="ban" x1="0" y1="0" x2="1" y2="0"><stop offset="0" stop-color="#1d4ed8"/><stop offset="1" stop-color="#06b6d4"/></linearGradient></defs>
<rect x="0" y="72" width="1440" height="260" fill="url(#ban)"/>
<circle cx="1150" cy="132" r="160" fill="#ffffff" opacity="0.08"/>
<circle cx="320" cy="292" r="200" fill="#ffffff" opacity="0.06"/>
<rect x="120" y="262" width="1200" height="168" fill="#ffffff" rx="24" stroke="#e2e8f0" stroke-width="1"/>
<circle cx="204" cy="322" r="56" fill="#ffffff"/>
<circle cx="204" cy="322" r="48" fill="#dbeafe"/>
<text x="204" y="338.8" font-family="Inter, sans-serif" font-size="43.2" fill="#2563eb" font-weight="700" text-anchor="middle">D</text>
<text x="276" y="316" font-family="Inter, sans-serif" font-size="30" fill="#0f172a" font-weight="800" text-anchor="start">Dragon Studio</text>
<circle cx="500" cy="306" r="11" fill="#2563eb"/>
<text x="500" y="311" font-family="Inter, sans-serif" font-size="13" fill="#ffffff" font-weight="700" text-anchor="middle">✓</text>
<text x="276" y="344" font-family="Inter, sans-serif" font-size="13.5" fill="#64748b" font-weight="400" text-anchor="start">Chuyên mô hình sưu tầm chi tiết cao · Tham gia từ 2024</text>
<path d="M276 364.0 l1.92 4.08 l4.5600000000000005 0.05 l-3.5999999999999996 2.7600000000000002 l1.32 4.32 l-4.199999999999999 -2.64 l-4.199999999999999 2.64 l1.32 -4.32 l-3.5999999999999996 -2.7600000000000002 l4.5600000000000005 -0.05 Z" fill="#f59e0b"/>
<path d="M290 364.0 l1.92 4.08 l4.5600000000000005 0.05 l-3.5999999999999996 2.7600000000000002 l1.32 4.32 l-4.199999999999999 -2.64 l-4.199999999999999 2.64 l1.32 -4.32 l-3.5999999999999996 -2.7600000000000002 l4.5600000000000005 -0.05 Z" fill="#f59e0b"/>
<path d="M304 364.0 l1.92 4.08 l4.5600000000000005 0.05 l-3.5999999999999996 2.7600000000000002 l1.32 4.32 l-4.199999999999999 -2.64 l-4.199999999999999 2.64 l1.32 -4.32 l-3.5999999999999996 -2.7600000000000002 l4.5600000000000005 -0.05 Z" fill="#f59e0b"/>
<path d="M318 364.0 l1.92 4.08 l4.5600000000000005 0.05 l-3.5999999999999996 2.7600000000000002 l1.32 4.32 l-4.199999999999999 -2.64 l-4.199999999999999 2.64 l1.32 -4.32 l-3.5999999999999996 -2.7600000000000002 l4.5600000000000005 -0.05 Z" fill="#f59e0b"/>
<path d="M332 364.0 l1.92 4.08 l4.5600000000000005 0.05 l-3.5999999999999996 2.7600000000000002 l1.32 4.32 l-4.199999999999999 -2.64 l-4.199999999999999 2.64 l1.32 -4.32 l-3.5999999999999996 -2.7600000000000002 l4.5600000000000005 -0.05 Z" fill="#f59e0b"/>
<text x="352" y="373" font-family="Inter, sans-serif" font-size="13" fill="#475569" font-weight="600" text-anchor="start">4.9  (312 đánh giá)</text>
<rect x="1020" y="304" width="132" height="44" fill="#2563eb" rx="12"/>
<text x="1086.0" y="330.86" font-family="Inter, sans-serif" font-size="13.5" fill="#ffffff" font-weight="600" text-anchor="middle">＋  Theo dõi</text>
<rect x="1164" y="304" width="132" height="44" fill="#ffffff" rx="12" stroke="#e2e8f0" stroke-width="1"/>
<text x="1230.0" y="330.86" font-family="Inter, sans-serif" font-size="13.5" fill="#475569" font-weight="600" text-anchor="middle">💬  Nhắn tin</text>
<text x="276" y="410" font-family="Inter, sans-serif" font-size="17" fill="#0f172a" font-weight="800" text-anchor="start">248</text>
<text x="328" y="410" font-family="Inter, sans-serif" font-size="12.5" fill="#64748b" font-weight="400" text-anchor="start">Mô hình</text>
<text x="416" y="410" font-family="Inter, sans-serif" font-size="17" fill="#0f172a" font-weight="800" text-anchor="start">12.4K</text>
<text x="468" y="410" font-family="Inter, sans-serif" font-size="12.5" fill="#64748b" font-weight="400" text-anchor="start">Theo dõi</text>
<text x="556" y="410" font-family="Inter, sans-serif" font-size="17" fill="#0f172a" font-weight="800" text-anchor="start">9.8K</text>
<text x="608" y="410" font-family="Inter, sans-serif" font-size="12.5" fill="#64748b" font-weight="400" text-anchor="start">Đã bán</text>
<text x="696" y="410" font-family="Inter, sans-serif" font-size="17" fill="#0f172a" font-weight="800" text-anchor="start">4.9★</text>
<text x="748" y="410" font-family="Inter, sans-serif" font-size="12.5" fill="#64748b" font-weight="400" text-anchor="start">Đánh giá</text>
<line x1="120" y1="470" x2="1320" y2="470" stroke="#e2e8f0" stroke-width="1"/>
<text x="120" y="504" font-family="Inter, sans-serif" font-size="14.5" fill="#2563eb" font-weight="700" text-anchor="start">Sản phẩm (248)</text>
<rect x="120" y="518" width="117.60000000000001" height="3" fill="#2563eb" rx="2"/>
<text x="310" y="504" font-family="Inter, sans-serif" font-size="14.5" fill="#64748b" font-weight="500" text-anchor="start">Đánh giá (312)</text>
<text x="500" y="504" font-family="Inter, sans-serif" font-size="14.5" fill="#64748b" font-weight="500" text-anchor="start">Giới thiệu</text>
<rect x="120" y="546" width="400" height="46" fill="#ffffff" rx="12" stroke="#e2e8f0" stroke-width="1"/>
<text x="138" y="575" font-family="Inter, sans-serif" font-size="14" fill="#94a3b8" font-weight="400" text-anchor="start">🔍</text>
<text x="164" y="575" font-family="Inter, sans-serif" font-size="13.5" fill="#94a3b8" font-weight="400" text-anchor="start">Tìm trong sạp này...</text>
<rect x="1150" y="546" width="170" height="46" fill="#ffffff" rx="12" stroke="#e2e8f0" stroke-width="1"/>
<text x="1235.0" y="573.86" font-family="Inter, sans-serif" font-size="13.5" fill="#475569" font-weight="600" text-anchor="middle">Mới nhất  ▾</text>
<rect x="120.0" y="620" width="282.0" height="298" fill="#ffffff" rx="20" stroke="#e2e8f0" stroke-width="1"/>
<defs><linearGradient id="g82678" x1="0" y1="0" x2="1" y2="1"><stop offset="0" stop-color="#eff6ff"/><stop offset="1" stop-color="#e0f2fe"/></linearGradient></defs>
<rect x="121.0" y="621" width="280.0" height="176" fill="url(#g82678)" rx="20"/>
<path d="M261.0 664.472 L299.72 689.64 L299.72 728.36 L261.0 753.528 L222.28 728.36 L222.28 689.64 Z" fill="#3b82f6" opacity="0.9"/>
<path d="M261.0 664.472 L299.72 689.64 L261.0 714.808 L222.28 689.64 Z" fill="#dbeafe"/>
<path d="M261.0 714.808 L299.72 689.64 L299.72 728.36 L261.0 753.528 Z" fill="#1d4ed8" opacity="0.75"/>
<rect x="134.0" y="634" width="50.8" height="20" fill="#ffffff" rx="10.0"/>
<text x="159.4" y="647.6" font-family="Inter, sans-serif" font-size="10" fill="#2563eb" font-weight="600" text-anchor="middle">STL ×4</text>
<circle cx="372.0" cy="648" r="15" fill="#ffffff"/>
<text x="372.0" y="653" font-family="Inter, sans-serif" font-size="13" fill="#64748b" font-weight="400" text-anchor="middle">♡</text>
<text x="136.0" y="826" font-family="Inter, sans-serif" font-size="14" fill="#0f172a" font-weight="700" text-anchor="start">Rồng Á Đông</text>
<path d="M136.0 849.0 l1.6 3.4000000000000004 l3.8 0.05 l-3.0 2.3000000000000003 l1.1 3.5999999999999996 l-3.5 -2.2 l-3.5 2.2 l1.1 -3.5999999999999996 l-3.0 -2.3000000000000003 l3.8 -0.05 Z" fill="#f59e0b"/>
<path d="M148.0 849.0 l1.6 3.4000000000000004 l3.8 0.05 l-3.0 2.3000000000000003 l1.1 3.5999999999999996 l-3.5 -2.2 l-3.5 2.2 l1.1 -3.5999999999999996 l-3.0 -2.3000000000000003 l3.8 -0.05 Z" fill="#f59e0b"/>
<path d="M160.0 849.0 l1.6 3.4000000000000004 l3.8 0.05 l-3.0 2.3000000000000003 l1.1 3.5999999999999996 l-3.5 -2.2 l-3.5 2.2 l1.1 -3.5999999999999996 l-3.0 -2.3000000000000003 l3.8 -0.05 Z" fill="#f59e0b"/>
<path d="M172.0 849.0 l1.6 3.4000000000000004 l3.8 0.05 l-3.0 2.3000000000000003 l1.1 3.5999999999999996 l-3.5 -2.2 l-3.5 2.2 l1.1 -3.5999999999999996 l-3.0 -2.3000000000000003 l3.8 -0.05 Z" fill="#f59e0b"/>
<path d="M184.0 849.0 l1.6 3.4000000000000004 l3.8 0.05 l-3.0 2.3000000000000003 l1.1 3.5999999999999996 l-3.5 -2.2 l-3.5 2.2 l1.1 -3.5999999999999996 l-3.0 -2.3000000000000003 l3.8 -0.05 Z" fill="#f59e0b"/>
<text x="200.0" y="857" font-family="Inter, sans-serif" font-size="11" fill="#64748b" font-weight="600" text-anchor="start">4.9</text>
<text x="136.0" y="894" font-family="Inter, sans-serif" font-size="16.5" fill="#2563eb" font-weight="800" text-anchor="start">250.000₫</text>
<rect x="356.0" y="876" width="32" height="32" fill="#eff6ff" rx="10"/>
<text x="372.0" y="897" font-family="Inter, sans-serif" font-size="13" fill="#2563eb" font-weight="400" text-anchor="middle">🛒</text>
<rect x="426.0" y="620" width="282.0" height="298" fill="#ffffff" rx="20" stroke="#e2e8f0" stroke-width="1"/>
<defs><linearGradient id="g84468" x1="0" y1="0" x2="1" y2="1"><stop offset="0" stop-color="#eff6ff"/><stop offset="1" stop-color="#e0f2fe"/></linearGradient></defs>
<rect x="427.0" y="621" width="280.0" height="176" fill="url(#g84468)" rx="20"/>
<path d="M567.0 664.472 L605.72 689.64 L605.72 728.36 L567.0 753.528 L528.28 728.36 L528.28 689.64 Z" fill="#3b82f6" opacity="0.9"/>
<path d="M567.0 664.472 L605.72 689.64 L567.0 714.808 L528.28 689.64 Z" fill="#dbeafe"/>
<path d="M567.0 714.808 L605.72 689.64 L605.72 728.36 L567.0 753.528 Z" fill="#1d4ed8" opacity="0.75"/>
<rect x="440.0" y="634" width="50.8" height="20" fill="#ffffff" rx="10.0"/>
<text x="465.4" y="647.6" font-family="Inter, sans-serif" font-size="10" fill="#2563eb" font-weight="600" text-anchor="middle">STL ×6</text>
<circle cx="678.0" cy="648" r="15" fill="#ffffff"/>
<text x="678.0" y="653" font-family="Inter, sans-serif" font-size="13" fill="#64748b" font-weight="400" text-anchor="middle">♡</text>
<text x="442.0" y="826" font-family="Inter, sans-serif" font-size="14" fill="#0f172a" font-weight="700" text-anchor="start">Kỳ lân băng giá</text>
<path d="M442.0 849.0 l1.6 3.4000000000000004 l3.8 0.05 l-3.0 2.3000000000000003 l1.1 3.5999999999999996 l-3.5 -2.2 l-3.5 2.2 l1.1 -3.5999999999999996 l-3.0 -2.3000000000000003 l3.8 -0.05 Z" fill="#f59e0b"/>
<path d="M454.0 849.0 l1.6 3.4000000000000004 l3.8 0.05 l-3.0 2.3000000000000003 l1.1 3.5999999999999996 l-3.5 -2.2 l-3.5 2.2 l1.1 -3.5999999999999996 l-3.0 -2.3000000000000003 l3.8 -0.05 Z" fill="#f59e0b"/>
<path d="M466.0 849.0 l1.6 3.4000000000000004 l3.8 0.05 l-3.0 2.3000000000000003 l1.1 3.5999999999999996 l-3.5 -2.2 l-3.5 2.2 l1.1 -3.5999999999999996 l-3.0 -2.3000000000000003 l3.8 -0.05 Z" fill="#f59e0b"/>
<path d="M478.0 849.0 l1.6 3.4000000000000004 l3.8 0.05 l-3.0 2.3000000000000003 l1.1 3.5999999999999996 l-3.5 -2.2 l-3.5 2.2 l1.1 -3.5999999999999996 l-3.0 -2.3000000000000003 l3.8 -0.05 Z" fill="#f59e0b"/>
<path d="M490.0 849.0 l1.6 3.4000000000000004 l3.8 0.05 l-3.0 2.3000000000000003 l1.1 3.5999999999999996 l-3.5 -2.2 l-3.5 2.2 l1.1 -3.5999999999999996 l-3.0 -2.3000000000000003 l3.8 -0.05 Z" fill="#f59e0b"/>
<text x="506.0" y="857" font-family="Inter, sans-serif" font-size="11" fill="#64748b" font-weight="600" text-anchor="start">4.9</text>
<text x="442.0" y="894" font-family="Inter, sans-serif" font-size="16.5" fill="#2563eb" font-weight="800" text-anchor="start">280.000₫</text>
<rect x="662.0" y="876" width="32" height="32" fill="#eff6ff" rx="10"/>
<text x="678.0" y="897" font-family="Inter, sans-serif" font-size="13" fill="#2563eb" font-weight="400" text-anchor="middle">🛒</text>
<rect x="732.0" y="620" width="282.0" height="298" fill="#ffffff" rx="20" stroke="#e2e8f0" stroke-width="1"/>
<defs><linearGradient id="g97218" x1="0" y1="0" x2="1" y2="1"><stop offset="0" stop-color="#eff6ff"/><stop offset="1" stop-color="#e0f2fe"/></linearGradient></defs>
<rect x="733.0" y="621" width="280.0" height="176" fill="url(#g97218)" rx="20"/>
<path d="M873.0 664.472 L911.72 689.64 L911.72 728.36 L873.0 753.528 L834.28 728.36 L834.28 689.64 Z" fill="#3b82f6" opacity="0.9"/>
<path d="M873.0 664.472 L911.72 689.64 L873.0 714.808 L834.28 689.64 Z" fill="#dbeafe"/>
<path d="M873.0 714.808 L911.72 689.64 L911.72 728.36 L873.0 753.528 Z" fill="#1d4ed8" opacity="0.75"/>
<rect x="746.0" y="634" width="50.8" height="20" fill="#ffffff" rx="10.0"/>
<text x="771.4" y="647.6" font-family="Inter, sans-serif" font-size="10" fill="#2563eb" font-weight="600" text-anchor="middle">STL ×5</text>
<circle cx="984.0" cy="648" r="15" fill="#ffffff"/>
<text x="984.0" y="653" font-family="Inter, sans-serif" font-size="13" fill="#64748b" font-weight="400" text-anchor="middle">♡</text>
<text x="748.0" y="826" font-family="Inter, sans-serif" font-size="14" fill="#0f172a" font-weight="700" text-anchor="start">Phượng hoàng lửa</text>
<path d="M748.0 849.0 l1.6 3.4000000000000004 l3.8 0.05 l-3.0 2.3000000000000003 l1.1 3.5999999999999996 l-3.5 -2.2 l-3.5 2.2 l1.1 -3.5999999999999996 l-3.0 -2.3000000000000003 l3.8 -0.05 Z" fill="#f59e0b"/>
<path d="M760.0 849.0 l1.6 3.4000000000000004 l3.8 0.05 l-3.0 2.3000000000000003 l1.1 3.5999999999999996 l-3.5 -2.2 l-3.5 2.2 l1.1 -3.5999999999999996 l-3.0 -2.3000000000000003 l3.8 -0.05 Z" fill="#f59e0b"/>
<path d="M772.0 849.0 l1.6 3.4000000000000004 l3.8 0.05 l-3.0 2.3000000000000003 l1.1 3.5999999999999996 l-3.5 -2.2 l-3.5 2.2 l1.1 -3.5999999999999996 l-3.0 -2.3000000000000003 l3.8 -0.05 Z" fill="#f59e0b"/>
<path d="M784.0 849.0 l1.6 3.4000000000000004 l3.8 0.05 l-3.0 2.3000000000000003 l1.1 3.5999999999999996 l-3.5 -2.2 l-3.5 2.2 l1.1 -3.5999999999999996 l-3.0 -2.3000000000000003 l3.8 -0.05 Z" fill="#f59e0b"/>
<path d="M796.0 849.0 l1.6 3.4000000000000004 l3.8 0.05 l-3.0 2.3000000000000003 l1.1 3.5999999999999996 l-3.5 -2.2 l-3.5 2.2 l1.1 -3.5999999999999996 l-3.0 -2.3000000000000003 l3.8 -0.05 Z" fill="#f59e0b"/>
<text x="812.0" y="857" font-family="Inter, sans-serif" font-size="11" fill="#64748b" font-weight="600" text-anchor="start">4.9</text>
<text x="748.0" y="894" font-family="Inter, sans-serif" font-size="16.5" fill="#2563eb" font-weight="800" text-anchor="start">310.000₫</text>
<rect x="968.0" y="876" width="32" height="32" fill="#eff6ff" rx="10"/>
<text x="984.0" y="897" font-family="Inter, sans-serif" font-size="13" fill="#2563eb" font-weight="400" text-anchor="middle">🛒</text>
<rect x="1038.0" y="620" width="282.0" height="298" fill="#ffffff" rx="20" stroke="#e2e8f0" stroke-width="1"/>
<defs><linearGradient id="g76264" x1="0" y1="0" x2="1" y2="1"><stop offset="0" stop-color="#eff6ff"/><stop offset="1" stop-color="#e0f2fe"/></linearGradient></defs>
<rect x="1039.0" y="621" width="280.0" height="176" fill="url(#g76264)" rx="20"/>
<path d="M1179.0 664.472 L1217.72 689.64 L1217.72 728.36 L1179.0 753.528 L1140.28 728.36 L1140.28 689.64 Z" fill="#3b82f6" opacity="0.9"/>
<path d="M1179.0 664.472 L1217.72 689.64 L1179.0 714.808 L1140.28 689.64 Z" fill="#dbeafe"/>
<path d="M1179.0 714.808 L1217.72 689.64 L1217.72 728.36 L1179.0 753.528 Z" fill="#1d4ed8" opacity="0.75"/>
<rect x="1052.0" y="634" width="50.8" height="20" fill="#ffffff" rx="10.0"/>
<text x="1077.4" y="647.6" font-family="Inter, sans-serif" font-size="10" fill="#2563eb" font-weight="600" text-anchor="middle">STL ×3</text>
<circle cx="1290.0" cy="648" r="15" fill="#ffffff"/>
<text x="1290.0" y="653" font-family="Inter, sans-serif" font-size="13" fill="#64748b" font-weight="400" text-anchor="middle">♡</text>
<text x="1054.0" y="826" font-family="Inter, sans-serif" font-size="14" fill="#0f172a" font-weight="700" text-anchor="start">Hổ trắng phương Bắc</text>
<path d="M1054.0 849.0 l1.6 3.4000000000000004 l3.8 0.05 l-3.0 2.3000000000000003 l1.1 3.5999999999999996 l-3.5 -2.2 l-3.5 2.2 l1.1 -3.5999999999999996 l-3.0 -2.3000000000000003 l3.8 -0.05 Z" fill="#f59e0b"/>
<path d="M1066.0 849.0 l1.6 3.4000000000000004 l3.8 0.05 l-3.0 2.3000000000000003 l1.1 3.5999999999999996 l-3.5 -2.2 l-3.5 2.2 l1.1 -3.5999999999999996 l-3.0 -2.3000000000000003 l3.8 -0.05 Z" fill="#f59e0b"/>
<path d="M1078.0 849.0 l1.6 3.4000000000000004 l3.8 0.05 l-3.0 2.3000000000000003 l1.1 3.5999999999999996 l-3.5 -2.2 l-3.5 2.2 l1.1 -3.5999999999999996 l-3.0 -2.3000000000000003 l3.8 -0.05 Z" fill="#f59e0b"/>
<path d="M1090.0 849.0 l1.6 3.4000000000000004 l3.8 0.05 l-3.0 2.3000000000000003 l1.1 3.5999999999999996 l-3.5 -2.2 l-3.5 2.2 l1.1 -3.5999999999999996 l-3.0 -2.3000000000000003 l3.8 -0.05 Z" fill="#f59e0b"/>
<path d="M1102.0 849.0 l1.6 3.4000000000000004 l3.8 0.05 l-3.0 2.3000000000000003 l1.1 3.5999999999999996 l-3.5 -2.2 l-3.5 2.2 l1.1 -3.5999999999999996 l-3.0 -2.3000000000000003 l3.8 -0.05 Z" fill="#f59e0b"/>
<text x="1118.0" y="857" font-family="Inter, sans-serif" font-size="11" fill="#64748b" font-weight="600" text-anchor="start">4.9</text>
<text x="1054.0" y="894" font-family="Inter, sans-serif" font-size="16.5" fill="#2563eb" font-weight="800" text-anchor="start">265.000₫</text>
<rect x="1274.0" y="876" width="32" height="32" fill="#eff6ff" rx="10"/>
<text x="1290.0" y="897" font-family="Inter, sans-serif" font-size="13" fill="#2563eb" font-weight="400" text-anchor="middle">🛒</text>
<rect x="120.0" y="940" width="282.0" height="298" fill="#ffffff" rx="20" stroke="#e2e8f0" stroke-width="1"/>
<defs><linearGradient id="g21733" x1="0" y1="0" x2="1" y2="1"><stop offset="0" stop-color="#eff6ff"/><stop offset="1" stop-color="#e0f2fe"/></linearGradient></defs>
<rect x="121.0" y="941" width="280.0" height="176" fill="url(#g21733)" rx="20"/>
<path d="M261.0 984.472 L299.72 1009.64 L299.72 1048.36 L261.0 1073.528 L222.28 1048.36 L222.28 1009.64 Z" fill="#3b82f6" opacity="0.9"/>
<path d="M261.0 984.472 L299.72 1009.64 L261.0 1034.808 L222.28 1009.64 Z" fill="#dbeafe"/>
<path d="M261.0 1034.808 L299.72 1009.64 L299.72 1048.36 L261.0 1073.528 Z" fill="#1d4ed8" opacity="0.75"/>
<rect x="134.0" y="954" width="50.8" height="20" fill="#ffffff" rx="10.0"/>
<text x="159.4" y="967.6" font-family="Inter, sans-serif" font-size="10" fill="#2563eb" font-weight="600" text-anchor="middle">STL ×7</text>
<circle cx="372.0" cy="968" r="15" fill="#ffffff"/>
<text x="372.0" y="973" font-family="Inter, sans-serif" font-size="13" fill="#64748b" font-weight="400" text-anchor="middle">♡</text>
<text x="136.0" y="1146" font-family="Inter, sans-serif" font-size="14" fill="#0f172a" font-weight="700" text-anchor="start">Rùa thần Huyền Vũ</text>
<path d="M136.0 1169.0 l1.6 3.4000000000000004 l3.8 0.05 l-3.0 2.3000000000000003 l1.1 3.5999999999999996 l-3.5 -2.2 l-3.5 2.2 l1.1 -3.5999999999999996 l-3.0 -2.3000000000000003 l3.8 -0.05 Z" fill="#f59e0b"/>
<path d="M148.0 1169.0 l1.6 3.4000000000000004 l3.8 0.05 l-3.0 2.3000000000000003 l1.1 3.5999999999999996 l-3.5 -2.2 l-3.5 2.2 l1.1 -3.5999999999999996 l-3.0 -2.3000000000000003 l3.8 -0.05 Z" fill="#f59e0b"/>
<path d="M160.0 1169.0 l1.6 3.4000000000000004 l3.8 0.05 l-3.0 2.3000000000000003 l1.1 3.5999999999999996 l-3.5 -2.2 l-3.5 2.2 l1.1 -3.5999999999999996 l-3.0 -2.3000000000000003 l3.8 -0.05 Z" fill="#f59e0b"/>
<path d="M172.0 1169.0 l1.6 3.4000000000000004 l3.8 0.05 l-3.0 2.3000000000000003 l1.1 3.5999999999999996 l-3.5 -2.2 l-3.5 2.2 l1.1 -3.5999999999999996 l-3.0 -2.3000000000000003 l3.8 -0.05 Z" fill="#f59e0b"/>
<path d="M184.0 1169.0 l1.6 3.4000000000000004 l3.8 0.05 l-3.0 2.3000000000000003 l1.1 3.5999999999999996 l-3.5 -2.2 l-3.5 2.2 l1.1 -3.5999999999999996 l-3.0 -2.3000000000000003 l3.8 -0.05 Z" fill="#f59e0b"/>
<text x="200.0" y="1177" font-family="Inter, sans-serif" font-size="11" fill="#64748b" font-weight="600" text-anchor="start">4.9</text>
<text x="136.0" y="1214" font-family="Inter, sans-serif" font-size="16.5" fill="#2563eb" font-weight="800" text-anchor="start">295.000₫</text>
<rect x="356.0" y="1196" width="32" height="32" fill="#eff6ff" rx="10"/>
<text x="372.0" y="1217" font-family="Inter, sans-serif" font-size="13" fill="#2563eb" font-weight="400" text-anchor="middle">🛒</text>
<rect x="426.0" y="940" width="282.0" height="298" fill="#ffffff" rx="20" stroke="#e2e8f0" stroke-width="1"/>
<defs><linearGradient id="g74425" x1="0" y1="0" x2="1" y2="1"><stop offset="0" stop-color="#eff6ff"/><stop offset="1" stop-color="#e0f2fe"/></linearGradient></defs>
<rect x="427.0" y="941" width="280.0" height="176" fill="url(#g74425)" rx="20"/>
<path d="M567.0 984.472 L605.72 1009.64 L605.72 1048.36 L567.0 1073.528 L528.28 1048.36 L528.28 1009.64 Z" fill="#3b82f6" opacity="0.9"/>
<path d="M567.0 984.472 L605.72 1009.64 L567.0 1034.808 L528.28 1009.64 Z" fill="#dbeafe"/>
<path d="M567.0 1034.808 L605.72 1009.64 L605.72 1048.36 L567.0 1073.528 Z" fill="#1d4ed8" opacity="0.75"/>
<rect x="440.0" y="954" width="50.8" height="20" fill="#ffffff" rx="10.0"/>
<text x="465.4" y="967.6" font-family="Inter, sans-serif" font-size="10" fill="#2563eb" font-weight="600" text-anchor="middle">STL ×2</text>
<circle cx="678.0" cy="968" r="15" fill="#ffffff"/>
<text x="678.0" y="973" font-family="Inter, sans-serif" font-size="13" fill="#64748b" font-weight="400" text-anchor="middle">♡</text>
<text x="442.0" y="1146" font-family="Inter, sans-serif" font-size="14" fill="#0f172a" font-weight="700" text-anchor="start">Sư tử đá</text>
<path d="M442.0 1169.0 l1.6 3.4000000000000004 l3.8 0.05 l-3.0 2.3000000000000003 l1.1 3.5999999999999996 l-3.5 -2.2 l-3.5 2.2 l1.1 -3.5999999999999996 l-3.0 -2.3000000000000003 l3.8 -0.05 Z" fill="#f59e0b"/>
<path d="M454.0 1169.0 l1.6 3.4000000000000004 l3.8 0.05 l-3.0 2.3000000000000003 l1.1 3.5999999999999996 l-3.5 -2.2 l-3.5 2.2 l1.1 -3.5999999999999996 l-3.0 -2.3000000000000003 l3.8 -0.05 Z" fill="#f59e0b"/>
<path d="M466.0 1169.0 l1.6 3.4000000000000004 l3.8 0.05 l-3.0 2.3000000000000003 l1.1 3.5999999999999996 l-3.5 -2.2 l-3.5 2.2 l1.1 -3.5999999999999996 l-3.0 -2.3000000000000003 l3.8 -0.05 Z" fill="#f59e0b"/>
<path d="M478.0 1169.0 l1.6 3.4000000000000004 l3.8 0.05 l-3.0 2.3000000000000003 l1.1 3.5999999999999996 l-3.5 -2.2 l-3.5 2.2 l1.1 -3.5999999999999996 l-3.0 -2.3000000000000003 l3.8 -0.05 Z" fill="#f59e0b"/>
<path d="M490.0 1169.0 l1.6 3.4000000000000004 l3.8 0.05 l-3.0 2.3000000000000003 l1.1 3.5999999999999996 l-3.5 -2.2 l-3.5 2.2 l1.1 -3.5999999999999996 l-3.0 -2.3000000000000003 l3.8 -0.05 Z" fill="#f59e0b"/>
<text x="506.0" y="1177" font-family="Inter, sans-serif" font-size="11" fill="#64748b" font-weight="600" text-anchor="start">4.9</text>
<text x="442.0" y="1214" font-family="Inter, sans-serif" font-size="16.5" fill="#2563eb" font-weight="800" text-anchor="start">220.000₫</text>
<rect x="662.0" y="1196" width="32" height="32" fill="#eff6ff" rx="10"/>
<text x="678.0" y="1217" font-family="Inter, sans-serif" font-size="13" fill="#2563eb" font-weight="400" text-anchor="middle">🛒</text>
<rect x="732.0" y="940" width="282.0" height="298" fill="#ffffff" rx="20" stroke="#e2e8f0" stroke-width="1"/>
<defs><linearGradient id="g23145" x1="0" y1="0" x2="1" y2="1"><stop offset="0" stop-color="#eff6ff"/><stop offset="1" stop-color="#e0f2fe"/></linearGradient></defs>
<rect x="733.0" y="941" width="280.0" height="176" fill="url(#g23145)" rx="20"/>
<path d="M873.0 984.472 L911.72 1009.64 L911.72 1048.36 L873.0 1073.528 L834.28 1048.36 L834.28 1009.64 Z" fill="#3b82f6" opacity="0.9"/>
<path d="M873.0 984.472 L911.72 1009.64 L873.0 1034.808 L834.28 1009.64 Z" fill="#dbeafe"/>
<path d="M873.0 1034.808 L911.72 1009.64 L911.72 1048.36 L873.0 1073.528 Z" fill="#1d4ed8" opacity="0.75"/>
<rect x="746.0" y="954" width="50.8" height="20" fill="#ffffff" rx="10.0"/>
<text x="771.4" y="967.6" font-family="Inter, sans-serif" font-size="10" fill="#2563eb" font-weight="600" text-anchor="middle">STL ×8</text>
<circle cx="984.0" cy="968" r="15" fill="#ffffff"/>
<text x="984.0" y="973" font-family="Inter, sans-serif" font-size="13" fill="#64748b" font-weight="400" text-anchor="middle">♡</text>
<text x="748.0" y="1146" font-family="Inter, sans-serif" font-size="14" fill="#0f172a" font-weight="700" text-anchor="start">Cá chép hóa rồng</text>
<path d="M748.0 1169.0 l1.6 3.4000000000000004 l3.8 0.05 l-3.0 2.3000000000000003 l1.1 3.5999999999999996 l-3.5 -2.2 l-3.5 2.2 l1.1 -3.5999999999999996 l-3.0 -2.3000000000000003 l3.8 -0.05 Z" fill="#f59e0b"/>
<path d="M760.0 1169.0 l1.6 3.4000000000000004 l3.8 0.05 l-3.0 2.3000000000000003 l1.1 3.5999999999999996 l-3.5 -2.2 l-3.5 2.2 l1.1 -3.5999999999999996 l-3.0 -2.3000000000000003 l3.8 -0.05 Z" fill="#f59e0b"/>
<path d="M772.0 1169.0 l1.6 3.4000000000000004 l3.8 0.05 l-3.0 2.3000000000000003 l1.1 3.5999999999999996 l-3.5 -2.2 l-3.5 2.2 l1.1 -3.5999999999999996 l-3.0 -2.3000000000000003 l3.8 -0.05 Z" fill="#f59e0b"/>
<path d="M784.0 1169.0 l1.6 3.4000000000000004 l3.8 0.05 l-3.0 2.3000000000000003 l1.1 3.5999999999999996 l-3.5 -2.2 l-3.5 2.2 l1.1 -3.5999999999999996 l-3.0 -2.3000000000000003 l3.8 -0.05 Z" fill="#f59e0b"/>
<path d="M796.0 1169.0 l1.6 3.4000000000000004 l3.8 0.05 l-3.0 2.3000000000000003 l1.1 3.5999999999999996 l-3.5 -2.2 l-3.5 2.2 l1.1 -3.5999999999999996 l-3.0 -2.3000000000000003 l3.8 -0.05 Z" fill="#f59e0b"/>
<text x="812.0" y="1177" font-family="Inter, sans-serif" font-size="11" fill="#64748b" font-weight="600" text-anchor="start">4.9</text>
<text x="748.0" y="1214" font-family="Inter, sans-serif" font-size="16.5" fill="#2563eb" font-weight="800" text-anchor="start">340.000₫</text>
<rect x="968.0" y="1196" width="32" height="32" fill="#eff6ff" rx="10"/>
<text x="984.0" y="1217" font-family="Inter, sans-serif" font-size="13" fill="#2563eb" font-weight="400" text-anchor="middle">🛒</text>
<rect x="1038.0" y="940" width="282.0" height="298" fill="#ffffff" rx="20" stroke="#e2e8f0" stroke-width="1"/>
<defs><linearGradient id="g86307" x1="0" y1="0" x2="1" y2="1"><stop offset="0" stop-color="#eff6ff"/><stop offset="1" stop-color="#e0f2fe"/></linearGradient></defs>
<rect x="1039.0" y="941" width="280.0" height="176" fill="url(#g86307)" rx="20"/>
<path d="M1179.0 984.472 L1217.72 1009.64 L1217.72 1048.36 L1179.0 1073.528 L1140.28 1048.36 L1140.28 1009.64 Z" fill="#3b82f6" opacity="0.9"/>
<path d="M1179.0 984.472 L1217.72 1009.64 L1179.0 1034.808 L1140.28 1009.64 Z" fill="#dbeafe"/>
<path d="M1179.0 1034.808 L1217.72 1009.64 L1217.72 1048.36 L1179.0 1073.528 Z" fill="#1d4ed8" opacity="0.75"/>
<rect x="1052.0" y="954" width="50.8" height="20" fill="#ffffff" rx="10.0"/>
<text x="1077.4" y="967.6" font-family="Inter, sans-serif" font-size="10" fill="#2563eb" font-weight="600" text-anchor="middle">STL ×3</text>
<circle cx="1290.0" cy="968" r="15" fill="#ffffff"/>
<text x="1290.0" y="973" font-family="Inter, sans-serif" font-size="13" fill="#64748b" font-weight="400" text-anchor="middle">♡</text>
<text x="1054.0" y="1146" font-family="Inter, sans-serif" font-size="14" fill="#0f172a" font-weight="700" text-anchor="start">Nghê chầu</text>
<path d="M1054.0 1169.0 l1.6 3.4000000000000004 l3.8 0.05 l-3.0 2.3000000000000003 l1.1 3.5999999999999996 l-3.5 -2.2 l-3.5 2.2 l1.1 -3.5999999999999996 l-3.0 -2.3000000000000003 l3.8 -0.05 Z" fill="#f59e0b"/>
<path d="M1066.0 1169.0 l1.6 3.4000000000000004 l3.8 0.05 l-3.0 2.3000000000000003 l1.1 3.5999999999999996 l-3.5 -2.2 l-3.5 2.2 l1.1 -3.5999999999999996 l-3.0 -2.3000000000000003 l3.8 -0.05 Z" fill="#f59e0b"/>
<path d="M1078.0 1169.0 l1.6 3.4000000000000004 l3.8 0.05 l-3.0 2.3000000000000003 l1.1 3.5999999999999996 l-3.5 -2.2 l-3.5 2.2 l1.1 -3.5999999999999996 l-3.0 -2.3000000000000003 l3.8 -0.05 Z" fill="#f59e0b"/>
<path d="M1090.0 1169.0 l1.6 3.4000000000000004 l3.8 0.05 l-3.0 2.3000000000000003 l1.1 3.5999999999999996 l-3.5 -2.2 l-3.5 2.2 l1.1 -3.5999999999999996 l-3.0 -2.3000000000000003 l3.8 -0.05 Z" fill="#f59e0b"/>
<path d="M1102.0 1169.0 l1.6 3.4000000000000004 l3.8 0.05 l-3.0 2.3000000000000003 l1.1 3.5999999999999996 l-3.5 -2.2 l-3.5 2.2 l1.1 -3.5999999999999996 l-3.0 -2.3000000000000003 l3.8 -0.05 Z" fill="#f59e0b"/>
<text x="1118.0" y="1177" font-family="Inter, sans-serif" font-size="11" fill="#64748b" font-weight="600" text-anchor="start">4.9</text>
<text x="1054.0" y="1214" font-family="Inter, sans-serif" font-size="16.5" fill="#2563eb" font-weight="800" text-anchor="start">199.000₫</text>
<rect x="1274.0" y="1196" width="32" height="32" fill="#eff6ff" rx="10"/>
<text x="1290.0" y="1217" font-family="Inter, sans-serif" font-size="13" fill="#2563eb" font-weight="400" text-anchor="middle">🛒</text>
</svg>