<svg xmlns="http://www.w3.org/2000/svg" width="1440" height="1040" viewBox="0 0 1440 1040">
<rect x="0" y="0" width="1440" height="1040" fill="#f8fafc"/>
<rect x="0" y="0" width="1440" height="72" fill="#ffffff"/>
<line x1="0" y1="72" x2="1440" y2="72" stroke="#e2e8f0" stroke-width="1"/>
<rect x="120" y="19" width="34.0" height="34.0" fill="#2563eb" rx="10.0"/>
<text x="137.0" y="41.0" font-family="Inter, sans-serif" font-size="18.0" fill="#ffffff" font-weight="800" text-anchor="middle">P</text>
<text x="164.0" y="41.0" font-family="Inter, sans-serif" font-size="16.0" fill="#0f172a" font-weight="700" text-anchor="start">Print Hub 3D</text>
<text x="350" y="41" font-family="Inter, sans-serif" font-size="14" fill="#475569" font-weight="500" text-anchor="start">Trang chủ</text>
<text x="461.8" y="41" font-family="Inter, sans-serif" font-size="14" fill="#475569" font-weight="500" text-anchor="start">Chợ mô hình</text>
<text x="590.0" y="41" font-family="Inter, sans-serif" font-size="14" fill="#475569" font-weight="500" text-anchor="start">Dịch vụ in 3D</text>
<text x="734.6" y="41" font-family="Inter, sans-serif" font-size="14" fill="#2563eb" font-weight="600" text-anchor="start">Sạp bán hàng</text>
<rect x="734.6" y="50" width="96" height="2.5" fill="#2563eb" rx="2"/>
<circle cx="1302" cy="36" r="18" fill="#dbeafe"/>
<text x="1302" y="42.3" font-family="Inter, sans-serif" font-size="16.2" fill="#2563eb" font-weight="700" text-anchor="middle">T</text>
<text x="1274" y="41" font-family="Inter, sans-serif" font-size="13" fill="#475569" font-weight="500" text-anchor="end">Tuấn Anh</text>
<circle cx="1192" cy="36" r="17" fill="#f1f5f9"/>
<text x="1192" y="41" font-family="Inter, sans-serif" font-size="14" fill="#475569" font-weight="400" text-anchor="middle">🔔</text>
<circle cx="1200" cy="28" r="7" fill="#ef4444"/>
<text x="1200" y="31" font-family="Inter, sans-serif" font-size="9" fill="#ffffff" font-weight="700" text-anchor="middle">3</text>
<circle cx="1142" cy="36" r="17" fill="#f1f5f9"/>
<text x="1142" y="41" font-family="Inter, sans-serif" font-size="14" fill="#475569" font-weight="400" text-anchor="middle">🛒</text>
<circle cx="1150" cy="28" r="7" fill="#2563eb"/>
<text x="1150" y="31" font-family="Inter, sans-serif" font-size="9" fill="#ffffff" font-weight="700" text-anchor="middle">2</text>
<rect x="0" y="72" width="264" height="968" fill="#ffffff"/>
<line x1="264" y1="72" x2="264" y2="1040" stroke="#e2e8f0" stroke-width="1"/>
<text x="28" y="118" font-family="Inter, sans-serif" font-size="11" fill="#94a3b8" font-weight="700" text-anchor="start" letter-spacing="1.2">SẠP CỦA TÔI</text>
<rect x="16" y="144" width="232" height="42" fill="#eff6ff" rx="12"/>
<text x="38" y="171" font-family="Inter, sans-serif" font-size="14" fill="#2563eb" font-weight="600" text-anchor="start">▦</text>
<text x="64" y="171" font-family="Inter, sans-serif" font-size="13.5" fill="#2563eb" font-weight="600" text-anchor="start">Tổng quan</text>
<text x="38" y="219" font-family="Inter, sans-serif" font-size="14" fill="#64748b" font-weight="600" text-anchor="start">▣</text>
<text x="64" y="219" font-family="Inter, sans-serif" font-size="13.5" fill="#475569" font-weight="500" text-anchor="start">Sản phẩm</text>
<text x="38" y="267" font-family="Inter, sans-serif" font-size="14" fill="#64748b" font-weight="600" text-anchor="start">🛒</text>
<text x="64" y="267" font-family="Inter, sans-serif" font-size="13.5" fill="#475569" font-weight="500" text-anchor="start">Đơn hàng</text>
<text x="38" y="315" font-family="Inter, sans-serif" font-size="14" fill="#64748b" font-weight="600" text-anchor="start">💰</text>
<text x="64" y="315" font-family="Inter, sans-serif" font-size="13.5" fill="#475569" font-weight="500" text-anchor="start">Ví &amp; rút tiền</text>
<text x="38" y="363" font-family="Inter, sans-serif" font-size="14" fill="#64748b" font-weight="600" text-anchor="start">★</text>
<text x="64" y="363" font-family="Inter, sans-serif" font-size="13.5" fill="#475569" font-weight="500" text-anchor="start">Đánh giá</text>
<text x="38" y="411" font-family="Inter, sans-serif" font-size="14" fill="#64748b" font-weight="600" text-anchor="start">🏪</text>
<text x="64" y="411" font-family="Inter, sans-serif" font-size="13.5" fill="#475569" font-weight="500" text-anchor="start">Tùy chỉnh sạp</text>
<text x="38" y="459" font-family="Inter, sans-serif" font-size="14" fill="#64748b" font-weight="600" text-anchor="start">📊</text>
<text x="64" y="459" font-family="Inter, sans-serif" font-size="13.5" fill="#475569" font-weight="500" text-anchor="start">Thống kê</text>
<line x1="24" y1="512" x2="240" y2="512" stroke="#e2e8f0" stroke-width="1"/>
<circle cx="48" cy="558" r="20" fill="#dbeafe"/>
<text x="48" y="565.0" font-family="Inter, sans-serif" font-size="18.0" fill="#2563eb" font-weight="700" text-anchor="middle">D</text>
<text x="78" y="554" font-family="Inter, sans-serif" font-size="13" fill="#0f172a" font-weight="700" text-anchor="start">Dragon Studio</text>
<text x="78" y="572" font-family="Inter, sans-serif" font-size="11.5" fill="#22c55e" font-weight="600" text-anchor="start">Sạp đang hoạt động</text>
<text x="304" y="124" font-family="Inter, sans-serif" font-size="30" fill="#0f172a" font-weight="800" text-anchor="start">Tổng quan sạp</text>
<text x="304" y="152" font-family="Inter, sans-serif" font-size="13" fill="#64748b" font-weight="400" text-anchor="start">Cập nhật lần cuối: hôm nay, 14:32</text>
<rect x="1242" y="106" width="158" height="44" fill="#2563eb" rx="12"/>
<text x="1321.0" y="132.86" font-family="Inter, sans-serif" font-size="13.5" fill="#ffffff" font-weight="600" text-anchor="middle">＋  Đăng sản phẩm</text>
<rect x="304.0" y="180" width="259.0" height="132" fill="#ffffff" rx="20" stroke="#e2e8f0" stroke-width="1"/>
<rect x="328.0" y="204" width="40" height="40" fill="#eff6ff" rx="12.8"/>
<text x="348.0" y="232.0" font-family="Inter, sans-serif" font-size="20.0" fill="#2563eb" font-weight="700" text-anchor="middle">💰</text>
<text x="328.0" y="272" font-family="Inter, sans-serif" font-size="24" fill="#0f172a" font-weight="800" text-anchor="start">24.680.000₫</text>
<text x="328.0" y="294" font-family="Inter, sans-serif" font-size="12.5" fill="#64748b" font-weight="400" text-anchor="start">Doanh thu tháng</text>
<rect x="467.0" y="208" width="52.54" height="22" fill="#f0fdf4" rx="11.0"/>
<text x="493.27" y="222.78" font-family="Inter, sans-serif" font-size="10.5" fill="#22c55e" font-weight="600" text-anchor="middle">+18,2%</text>
<rect x="583.0" y="180" width="259.0" height="132" fill="#ffffff" rx="20" stroke="#e2e8f0" stroke-width="1"/>
<rect x="607.0" y="204" width="40" height="40" fill="#eff6ff" rx="12.8"/>
<text x="627.0" y="232.0" font-family="Inter, sans-serif" font-size="20.0" fill="#2563eb" font-weight="700" text-anchor="middle">🛒</text>
<text x="607.0" y="272" font-family="Inter, sans-serif" font-size="24" fill="#0f172a" font-weight="800" text-anchor="start">37</text>
<text x="607.0" y="294" font-family="Inter, sans-serif" font-size="12.5" fill="#64748b" font-weight="400" text-anchor="start">Đơn hàng mới</text>
<rect x="746.0" y="208" width="34.269999999999996" height="22" fill="#f0fdf4" rx="11.0"/>
<text x="763.135" y="222.78" font-family="Inter, sans-serif" font-size="10.5" fill="#22c55e" font-weight="600" text-anchor="middle">+12</text>
<rect x="862.0" y="180" width="259.0" height="132" fill="#ffffff" rx="20" stroke="#e2e8f0" stroke-width="1"/>
<rect x="886.0" y="204" width="40" height="40" fill="#eff6ff" rx="12.8"/>
<text x="906.0" y="232.0" font-family="Inter, sans-serif" font-size="20.0" fill="#2563eb" font-weight="700" text-anchor="middle">▣</text>
<text x="886.0" y="272" font-family="Inter, sans-serif" font-size="24" fill="#0f172a" font-weight="800" text-anchor="start">248</text>
<text x="886.0" y="294" font-family="Inter, sans-serif" font-size="12.5" fill="#64748b" font-weight="400" text-anchor="start">Sản phẩm đang bán</text>
<rect x="1025.0" y="208" width="82.99" height="22" fill="#eff6ff" rx="11.0"/>
<text x="1066.495" y="222.78" font-family="Inter, sans-serif" font-size="10.5" fill="#f59e0b" font-weight="600" text-anchor="middle">3 chờ duyệt</text>
<rect x="1141.0" y="180" width="259.0" height="132" fill="#ffffff" rx="20" stroke="#e2e8f0" stroke-width="1"/>
<rect x="1165.0" y="204" width="40" height="40" fill="#eff6ff" rx="12.8"/>
<text x="1185.0" y="232.0" font-family="Inter, sans-serif" font-size="20.0" fill="#2563eb" font-weight="700" text-anchor="middle">🏦</text>
<text x="1165.0" y="272" font-family="Inter, sans-serif" font-size="24" fill="#0f172a" font-weight="800" text-anchor="start">8.940.000₫</text>
<text x="1165.0" y="294" font-family="Inter, sans-serif" font-size="12.5" fill="#64748b" font-weight="400" text-anchor="start">Số dư ví</text>
<rect x="1304.0" y="208" width="76.9" height="22" fill="#eff6ff" rx="11.0"/>
<text x="1342.45" y="222.78" font-family="Inter, sans-serif" font-size="10.5" fill="#2563eb" font-weight="600" text-anchor="middle">Có thể rút</text>
<rect x="304" y="336" width="679.52" height="320" fill="#ffffff" rx="20" stroke="#e2e8f0" stroke-width="1"/>
<text x="332" y="380" font-family="Inter, sans-serif" font-size="17" fill="#0f172a" font-weight="700" text-anchor="start">Doanh thu 6 tháng gần nhất</text>
<rect x="855.52" y="362" width="86.69999999999999" height="26" fill="#f1f5f9" rx="13.0"/>
<text x="898.87" y="379.14" font-family="Inter, sans-serif" font-size="11.5" fill="#475569" font-weight="600" text-anchor="middle">6 tháng  ▾</text>
<line x1="332" y1="412.0" x2="955.52" y2="412.0" stroke="#f1f5f9" stroke-width="1"/>
<text x="324" y="416.0" font-family="Inter, sans-serif" font-size="10" fill="#94a3b8" font-weight="400" text-anchor="end">30M</text>
<line x1="332" y1="457.0" x2="955.52" y2="457.0" stroke="#f1f5f9" stroke-width="1"/>
<text x="324" y="461.0" font-family="Inter, sans-serif" font-size="10" fill="#94a3b8" font-weight="400" text-anchor="end">22M</text>
<line x1="332" y1="502.0" x2="955.52" y2="502.0" stroke="#f1f5f9" stroke-width="1"/>
<text x="324" y="506.0" font-family="Inter, sans-serif" font-size="10" fill="#94a3b8" font-weight="400" text-anchor="end">15M</text>
<line x1="332" y1="547.0" x2="955.52" y2="547.0" stroke="#f1f5f9" stroke-width="1"/>
<text x="324" y="551.0" font-family="Inter, sans-serif" font-size="10" fill="#94a3b8" font-weight="400" text-anchor="end">7M</text>
<line x1="332" y1="592.0" x2="955.52" y2="592.0" stroke="#f1f5f9" stroke-width="1"/>
<text x="324" y="596.0" font-family="Inter, sans-serif" font-size="10" fill="#94a3b8" font-weight="400" text-anchor="end">0</text>
<rect x="361.0976" y="516.4" width="45.7248" height="75.6" fill="#dbeafe" rx="8"/>
<text x="383.96" y="614" font-family="Inter, sans-serif" font-size="11.5" fill="#64748b" font-weight="600" text-anchor="middle">T2</text>
<rect x="465.0176" y="493.0" width="45.7248" height="99.00000000000001" fill="#dbeafe" rx="8"/>
<text x="487.88" y="614" font-family="Inter, sans-serif" font-size="11.5" fill="#64748b" font-weight="600" text-anchor="middle">T3</text>
<rect x="568.9376" y="505.6" width="45.7248" height="86.39999999999999" fill="#dbeafe" rx="8"/>
<text x="591.8" y="614" font-family="Inter, sans-serif" font-size="11.5" fill="#64748b" font-weight="600" text-anchor="middle">T4</text>
<rect x="672.8576" y="469.6" width="45.7248" height="122.4" fill="#dbeafe" rx="8"/>
<text x="695.72" y="614" font-family="Inter, sans-serif" font-size="11.5" fill="#64748b" font-weight="600" text-anchor="middle">T5</text>
<rect x="776.7776" y="458.8" width="45.7248" height="133.2" fill="#dbeafe" rx="8"/>
<text x="799.64" y="614" font-family="Inter, sans-serif" font-size="11.5" fill="#64748b" font-weight="600" text-anchor="middle">T6</text>
<rect x="880.6976000000001" y="433.6" width="45.7248" height="158.4" fill="#2563eb" rx="8"/>
<text x="903.5600000000001" y="614" font-family="Inter, sans-serif" font-size="11.5" fill="#64748b" font-weight="600" text-anchor="middle">T7</text>
<text x="903.5600000000001" y="425.6" font-family="Inter, sans-serif" font-size="10.5" fill="#2563eb" font-weight="700" text-anchor="middle">24,7M</text>
<rect x="1003.52" y="336" width="396.48" height="320" fill="#ffffff" rx="20" stroke="#e2e8f0" stroke-width="1"/>
<text x="1027.52" y="380" font-family="Inter, sans-serif" font-size="17" fill="#0f172a" font-weight="700" text-anchor="start">Bán chạy nhất</text>
<defs><linearGradient id="g39120" x1="0" y1="0" x2="1" y2="1"><stop offset="0" stop-color="#eff6ff"/><stop offset="1" stop-color="#e0f2fe"/></linearGradient></defs>
<rect x="1027.52" y="412" width="42" height="42" fill="url(#g39120)" rx="10"/>
<path d="M1048.52 422.374 L1057.76 428.38 L1057.76 437.62 L1048.52 443.626 L1039.28 437.62 L1039.28 428.38 Z" fill="#3b82f6" opacity="0.9"/>
<path d="M1048.52 422.374 L1057.76 428.38 L1048.52 434.386 L1039.28 428.38 Z" fill="#dbeafe"/>
<path d="M1048.52 434.386 L1057.76 428.38 L1057.76 437.62 L1048.52 443.626 Z" fill="#1d4ed8" opacity="0.75"/>
<text x="1081.52" y="430" font-family="Inter, sans-serif" font-size="13" fill="#0f172a" font-weight="600" text-anchor="start">Rồng Á Đông</text>
<text x="1081.52" y="448" font-family="Inter, sans-serif" font-size="11.5" fill="#64748b" font-weight="400" text-anchor="start">184 lượt</text>
<text x="1376.0" y="438" font-family="Inter, sans-serif" font-size="13" fill="#2563eb" font-weight="700" text-anchor="end">46,0M</text>
<defs><linearGradient id="g90616" x1="0" y1="0" x2="1" y2="1"><stop offset="0" stop-color="#eff6ff"/><stop offset="1" stop-color="#e0f2fe"/></linearGradient></defs>
<rect x="1027.52" y="470" width="42" height="42" fill="url(#g90616)" rx="10"/>
<path d="M1048.52 480.374 L1057.76 486.38 L1057.76 495.62 L1048.52 501.626 L1039.28 495.62 L1039.28 486.38 Z" fill="#3b82f6" opacity="0.9"/>
<path d="M1048.52 480.374 L1057.76 486.38 L1048.52 492.386 L1039.28 486.38 Z" fill="#dbeafe"/>
<path d="M1048.52 492.386 L1057.76 486.38 L1057.76 495.62 L1048.52 501.626 Z" fill="#1d4ed8" opacity="0.75"/>
<text x="1081.52" y="488" font-family="Inter, sans-serif" font-size="13" fill="#0f172a" font-weight="600" text-anchor="start">Bộ cờ Trung Cổ</text>
<text x="1081.52" y="506" font-family="Inter, sans-serif" font-size="11.5" fill="#64748b" font-weight="400" text-anchor="start">132 lượt</text>
<text x="1376.0" y="496" font-family="Inter, sans-serif" font-size="13" fill="#2563eb" font-weight="700" text-anchor="end">55,4M</text>
<defs><linearGradient id="g86775" x1="0" y1="0" x2="1" y2="1"><stop offset="0" stop-color="#eff6ff"/><stop offset="1" stop-color="#e0f2fe"/></linearGradient></defs>
<rect x="1027.52" y="528" width="42" height="42" fill="url(#g86775)" rx="10"/>
<path d="M1048.52 538.374 L1057.76 544.38 L1057.76 553.62 L1048.52 559.626 L1039.28 553.62 L1039.28 544.38 Z" fill="#3b82f6" opacity="0.9"/>
<path d="M1048.52 538.374 L1057.76 544.38 L1048.52 550.386 L1039.28 544.38 Z" fill="#dbeafe"/>
<path d="M1048.52 550.386 L1057.76 544.38 L1057.76 553.62 L1048.52 559.626 Z" fill="#1d4ed8" opacity="0.75"/>
<text x="1081.52" y="546" font-family="Inter, sans-serif" font-size="13" fill="#0f172a" font-weight="600" text-anchor="start">Kỳ lân băng giá</text>
<text x="1081.52" y="564" font-family="Inter, sans-serif" font-size="11.5" fill="#64748b" font-weight="400" text-anchor="start">98 lượt</text>
<text x="1376.0" y="554" font-family="Inter, sans-serif" font-size="13" fill="#2563eb" font-weight="700" text-anchor="end">27,4M</text>
<defs><linearGradient id="g35279" x1="0" y1="0" x2="1" y2="1"><stop offset="0" stop-color="#eff6ff"/><stop offset="1" stop-color="#e0f2fe"/></linearGradient></defs>
<rect x="1027.52" y="586" width="42" height="42" fill="url(#g35279)" rx="10"/>
<path d="M1048.52 596.374 L1057.76 602.38 L1057.76 611.62 L1048.52 617.626 L1039.28 611.62 L1039.28 602.38 Z" fill="#3b82f6" opacity="0.9"/>
<path d="M1048.52 596.374 L1057.76 602.38 L1048.52 608.386 L1039.28 602.38 Z" fill="#dbeafe"/>
<path d="M1048.52 608.386 L1057.76 602.38 L1057.76 611.62 L1048.52 617.626 Z" fill="#1d4ed8" opacity="0.75"/>
<text x="1081.52" y="604" font-family="Inter, sans-serif" font-size="13" fill="#0f172a" font-weight="600" text-anchor="start">Phượng hoàng lửa</text>
<text x="1081.52" y="622" font-family="Inter, sans-serif" font-size="11.5" fill="#64748b" font-weight="400" text-anchor="start">76 lượt</text>
<text x="1376.0" y="612" font-family="Inter, sans-serif" font-size="13" fill="#2563eb" font-weight="700" text-anchor="end">23,6M</text>
<rect x="304" y="684" width="1096" height="280" fill="#ffffff" rx="20" stroke="#e2e8f0" stroke-width="1"/>
<text x="332" y="728" font-family="Inter, sans-serif" font-size="17" fill="#0f172a" font-weight="700" text-anchor="start">Đơn hàng cần xử lý</text>
<text x="1372" y="728" font-family="Inter, sans-serif" font-size="13" fill="#2563eb" font-weight="600" text-anchor="end">Xem tất cả →</text>
<text x="332" y="766" font-family="Inter, sans-serif" font-size="12" fill="#64748b" font-weight="600" text-anchor="start">Mã đơn</text>
<text x="498.4" y="766" font-family="Inter, sans-serif" font-size="12" fill="#64748b" font-weight="600" text-anchor="start">Khách hàng</text>
<text x="685.6" y="766" font-family="Inter, sans-serif" font-size="12" fill="#64748b" font-weight="600" text-anchor="start">Sản phẩm</text>
<text x="904.0" y="766" font-family="Inter, sans-serif" font-size="12" fill="#64748b" font-weight="600" text-anchor="start">Tổng tiền</text>
<text x="1060.0" y="766" font-family="Inter, sans-serif" font-size="12" fill="#64748b" font-weight="600" text-anchor="start">Trạng thái</text>
<text x="1247.2" y="766" font-family="Inter, sans-serif" font-size="12" fill="#64748b" font-weight="600" text-anchor="start">Thao tác</text>
<line x1="332" y1="780" x2="1372" y2="780" stroke="#e2e8f0" stroke-width="1"/>
<text x="332" y="812" font-family="Inter, sans-serif" font-size="12.5" fill="#0f172a" font-weight="600" text-anchor="start">#PH2601</text>
<text x="498.4" y="812" font-family="Inter, sans-serif" font-size="12.5" fill="#475569" font-weight="400" text-anchor="start">Nguyễn Minh</text>
<text x="685.6" y="812" font-family="Inter, sans-serif" font-size="12.5" fill="#475569" font-weight="400" text-anchor="start">Rồng Á Đông ×1</text>
<text x="904.0" y="812" font-family="Inter, sans-serif" font-size="12.5" fill="#0f172a" font-weight="600" text-anchor="start">250.000₫</text>
<rect x="1060.0" y="797" width="91.08" height="22" fill="#fffbeb" rx="11.0"/>
<text x="1105.54" y="811.78" font-family="Inter, sans-serif" font-size="10.5" fill="#f59e0b" font-weight="600" text-anchor="middle">Chờ xác nhận</text>
<text x="1247.2" y="812" font-family="Inter, sans-serif" font-size="12.5" fill="#2563eb" font-weight="600" text-anchor="start">Xác nhận</text>
<line x1="332" y1="832" x2="1372" y2="832" stroke="#f1f5f9" stroke-width="1"/>
<text x="332" y="860" font-family="Inter, sans-serif" font-size="12.5" fill="#0f172a" font-weight="600" text-anchor="start">#PH2598</text>
<text x="498.4" y="860" font-family="Inter, sans-serif" font-size="12.5" fill="#475569" font-weight="400" text-anchor="start">Trần Hoa</text>
<text x="685.6" y="860" font-family="Inter, sans-serif" font-size="12.5" fill="#475569" font-weight="400" text-anchor="start">Bộ cờ ×1, Kỳ lân ×1</text>
<text x="904.0" y="860" font-family="Inter, sans-serif" font-size="12.5" fill="#0f172a" font-weight="600" text-anchor="start">700.000₫</text>
<rect x="1060.0" y="845" width="84.99" height="22" fill="#eff6ff" rx="11.0"/>
<text x="1102.495" y="859.78" font-family="Inter, sans-serif" font-size="10.5" fill="#2563eb" font-weight="600" text-anchor="middle">Đã xác nhận</text>
<text x="1247.2" y="860" font-family="Inter, sans-serif" font-size="12.5" fill="#2563eb" font-weight="600" text-anchor="start">Chi tiết</text>
<line x1="332" y1="880" x2="1372" y2="880" stroke="#f1f5f9" stroke-width="1"/>
<text x="332" y="908" font-family="Inter, sans-serif" font-size="12.5" fill="#0f172a" font-weight="600" text-anchor="start">#PH2591</text>
<text x="498.4" y="908" font-family="Inter, sans-serif" font-size="12.5" fill="#475569" font-weight="400" text-anchor="start">Lê Bảo</text>
<text x="685.6" y="908" font-family="Inter, sans-serif" font-size="12.5" fill="#475569" font-weight="400" text-anchor="start">Phượng hoàng ×2</text>
<text x="904.0" y="908" font-family="Inter, sans-serif" font-size="12.5" fill="#0f172a" font-weight="600" text-anchor="start">620.000₫</text>
<rect x="1060.0" y="893" width="66.72" height="22" fill="#f0fdf4" rx="11.0"/>
<text x="1093.36" y="907.78" font-family="Inter, sans-serif" font-size="10.5" fill="#22c55e" font-weight="600" text-anchor="middle">Hoàn tất</text>
<text x="1247.2" y="908" font-family="Inter, sans-serif" font-size="12.5" fill="#2563eb" font-weight="600" text-anchor="start">Chi tiết</text>
</svg>