<svg xmlns="http://www.w3.org/2000/svg" width="390" height="960" viewBox="0 0 390 960">
<rect x="0" y="0" width="390" height="960" fill="#f8fafc"/>
<rect x="0" y="0" width="390" height="44" fill="#ffffff"/>
<text x="28" y="28" font-family="Inter, sans-serif" font-size="13" fill="#0f172a" font-weight="700" text-anchor="start">9:41</text>
<text x="366" y="28" font-family="Inter, sans-serif" font-size="11" fill="#0f172a" font-weight="600" text-anchor="end">▮▮▮ ᯤ ▰</text>
<rect x="0" y="44" width="390" height="56" fill="#ffffff"/>
<line x1="0" y1="100" x2="390" y2="100" stroke="#e2e8f0" stroke-width="1"/>
<rect x="20" y="55" width="27.88" height="27.88" fill="#2563eb" rx="8.2"/>
<text x="33.94" y="73.03999999999999" font-family="Inter, sans-serif" font-size="14.76" fill="#ffffff" font-weight="800" text-anchor="middle">P</text>
<text x="56.08" y="73.03999999999999" font-family="Inter, sans-serif" font-size="13.12" fill="#0f172a" font-weight="700" text-anchor="start">Print Hub 3D</text>
<circle cx="314" cy="72" r="16" fill="#f1f5f9"/>
<text x="314" y="77" font-family="Inter, sans-serif" font-size="13" fill="#475569" font-weight="400" text-anchor="middle">🔔</text>
<circle cx="356" cy="72" r="16" fill="#f1f5f9"/>
<text x="356" y="77" font-family="Inter, sans-serif" font-size="13" fill="#475569" font-weight="400" text-anchor="middle">🛒</text>
<circle cx="364" cy="64" r="6.5" fill="#2563eb"/>
<text x="364" y="67" font-family="Inter, sans-serif" font-size="8" fill="#ffffff" font-weight="700" text-anchor="middle">2</text>
<rect x="20" y="116" width="350" height="46" fill="#ffffff" rx="14" stroke="#e2e8f0" stroke-width="1"/>
<text x="38" y="145" font-family="Inter, sans-serif" font-size="14" fill="#94a3b8" font-weight="400" text-anchor="start">🔍</text>
<text x="62" y="145" font-family="Inter, sans-serif" font-size="13.5" fill="#94a3b8" font-weight="400" text-anchor="start">Tìm mô hình 3D...</text>
<defs><linearGradient id="mh" x1="0" y1="0" x2="1" y2="1"><stop offset="0" stop-color="#1d4ed8"/><stop offset="1" stop-color="#06b6d4"/></linearGradient></defs>
<rect x="20" y="178" width="350" height="168" fill="url(#mh)" rx="20"/>
<circle cx="320" cy="208" r="70" fill="#ffffff" opacity="0.1"/>
<rect x="38" y="198" width="35.4" height="22" fill="#ffffff" rx="11.0"/>
<text x="55.7" y="212.6" font-family="Inter, sans-serif" font-size="10" fill="#2563eb" font-weight="600" text-anchor="middle">Mới</text>
<text x="38" y="252" font-family="Inter, sans-serif" font-size="22" fill="#ffffff" font-weight="800" text-anchor="start">Chợ mô hình 3D</text>
<text x="38" y="278" font-family="Inter, sans-serif" font-size="12.5" fill="#dbeafe" font-weight="400" text-anchor="start">12.400+ file STL chất lượng cao</text>
<rect x="38" y="296" width="132" height="38" fill="#ffffff" rx="12" stroke="#e2e8f0" stroke-width="1"/>
<text x="104.0" y="319.32" font-family="Inter, sans-serif" font-size="12" fill="#475569" font-weight="600" text-anchor="middle">Khám phá ngay</text>
<text x="20" y="372" font-family="Inter, sans-serif" font-size="17" fill="#0f172a" font-weight="700" text-anchor="start">Danh mục</text>
<text x="370" y="372" font-family="Inter, sans-serif" font-size="12.5" fill="#2563eb" font-weight="600" text-anchor="end">Tất cả →</text>
<rect x="20" y="390" width="78" height="86" fill="#ffffff" rx="16" stroke="#e2e8f0" stroke-width="1"/>
<rect x="41" y="404" width="36" height="36" fill="#eff6ff" rx="11.52"/>
<text x="59.0" y="429.2" font-family="Inter, sans-serif" font-size="18.0" fill="#2563eb" font-weight="700" text-anchor="middle">◈</text>
<text x="59" y="464" font-family="Inter, sans-serif" font-size="10.5" fill="#475569" font-weight="600" text-anchor="middle">Sưu tầm</text>
<rect x="108" y="390" width="78" height="86" fill="#ffffff" rx="16" stroke="#e2e8f0" stroke-width="1"/>
<rect x="129" y="404" width="36" height="36" fill="#eff6ff" rx="11.52"/>
<text x="147.0" y="429.2" font-family="Inter, sans-serif" font-size="18.0" fill="#2563eb" font-weight="700" text-anchor="middle">⚙</text>
<text x="147" y="464" font-family="Inter, sans-serif" font-size="10.5" fill="#475569" font-weight="600" text-anchor="middle">Chức năng</text>
<rect x="196" y="390" width="78" height="86" fill="#ffffff" rx="16" stroke="#e2e8f0" stroke-width="1"/>
<rect x="217" y="404" width="36" height="36" fill="#eff6ff" rx="11.52"/>
<text x="235.0" y="429.2" font-family="Inter, sans-serif" font-size="18.0" fill="#2563eb" font-weight="700" text-anchor="middle">🏠</text>
<text x="235" y="464" font-family="Inter, sans-serif" font-size="10.5" fill="#475569" font-weight="600" text-anchor="middle">Trang trí</text>
<rect x="284" y="390" width="78" height="86" fill="#ffffff" rx="16" stroke="#e2e8f0" stroke-width="1"/>
<rect x="305" y="404" width="36" height="36" fill="#eff6ff" rx="11.52"/>
<text x="323.0" y="429.2" font-family="Inter, sans-serif" font-size="18.0" fill="#2563eb" font-weight="700" text-anchor="middle">♟</text>
<text x="323" y="464" font-family="Inter, sans-serif" font-size="10.5" fill="#475569" font-weight="600" text-anchor="middle">Board game</text>
<text x="20" y="504" font-family="Inter, sans-serif" font-size="17" fill="#0f172a" font-weight="700" text-anchor="start">Nổi bật tuần này</text>
<text x="370" y="504" font-family="Inter, sans-serif" font-size="12.5" fill="#2563eb" font-weight="600" text-anchor="end">Tất cả →</text>
<rect x="20.0" y="522" width="168.0" height="216" fill="#ffffff" rx="18" stroke="#e2e8f0" stroke-width="1"/>
<defs><linearGradient id="g55170" x1="0" y1="0" x2="1" y2="1"><stop offset="0" stop-color="#eff6ff"/><stop offset="1" stop-color="#e0f2fe"/></linearGradient></defs>
<rect x="21.0" y="523" width="166.0" height="124" fill="url(#g55170)" rx="18"/>
<path d="M104.0 553.628 L131.28 571.36 L131.28 598.64 L104.0 616.372 L76.72 598.64 L76.72 571.36 Z" fill="#3b82f6" opacity="0.9"/>
<path d="M104.0 553.628 L131.28 571.36 L104.0 589.092 L76.72 571.36 Z" fill="#dbeafe"/>
<path d="M104.0 589.092 L131.28 571.36 L131.28 598.64 L104.0 616.372 Z" fill="#1d4ed8" opacity="0.75"/>
<circle cx="164.0" cy="546" r="13" fill="#ffffff"/>
<text x="164.0" y="551" font-family="Inter, sans-serif" font-size="11" fill="#64748b" font-weight="400" text-anchor="middle">♡</text>
<rect x="30.0" y="534" width="43.31999999999999" height="18" fill="#ffffff" rx="9.0"/>
<text x="51.66" y="546.24" font-family="Inter, sans-serif" font-size="9" fill="#2563eb" font-weight="600" text-anchor="middle">STL ×4</text>
<text x="32.0" y="670" font-family="Inter, sans-serif" font-size="12.5" fill="#0f172a" font-weight="700" text-anchor="start">Rồng Á Đông</text>
<path d="M32.0 687.5 l1.44 3.06 l3.42 0.05 l-2.6999999999999997 2.0700000000000003 l0.99 3.2399999999999998 l-3.15 -1.98 l-3.15 1.98 l0.99 -3.2399999999999998 l-2.6999999999999997 -2.0700000000000003 l3.42 -0.05 Z" fill="#f59e0b"/>
<path d="M43.0 687.5 l1.44 3.06 l3.42 0.05 l-2.6999999999999997 2.0700000000000003 l0.99 3.2399999999999998 l-3.15 -1.98 l-3.15 1.98 l0.99 -3.2399999999999998 l-2.6999999999999997 -2.0700000000000003 l3.42 -0.05 Z" fill="#f59e0b"/>
<path d="M54.0 687.5 l1.44 3.06 l3.42 0.05 l-2.6999999999999997 2.0700000000000003 l0.99 3.2399999999999998 l-3.15 -1.98 l-3.15 1.98 l0.99 -3.2399999999999998 l-2.6999999999999997 -2.0700000000000003 l3.42 -0.05 Z" fill="#f59e0b"/>
<path d="M65.0 687.5 l1.44 3.06 l3.42 0.05 l-2.6999999999999997 2.0700000000000003 l0.99 3.2399999999999998 l-3.15 -1.98 l-3.15 1.98 l0.99 -3.2399999999999998 l-2.6999999999999997 -2.0700000000000003 l3.42 -0.05 Z" fill="#f59e0b"/>
<path d="M76.0 687.5 l1.44 3.06 l3.42 0.05 l-2.6999999999999997 2.0700000000000003 l0.99 3.2399999999999998 l-3.15 -1.98 l-3.15 1.98 l0.99 -3.2399999999999998 l-2.6999999999999997 -2.0700000000000003 l3.42 -0.05 Z" fill="#f59e0b"/>
<text x="88.0" y="695" font-family="Inter, sans-serif" font-size="10" fill="#64748b" font-weight="600" text-anchor="start">4.9</text>
<text x="32.0" y="724" font-family="Inter, sans-serif" font-size="14" fill="#2563eb" font-weight="800" text-anchor="start">250.000₫</text>
<rect x="202.0" y="522" width="168.0" height="216" fill="#ffffff" rx="18" stroke="#e2e8f0" stroke-width="1"/>
<defs><linearGradient id="g1290" x1="0" y1="0" x2="1" y2="1"><stop offset="0" stop-color="#eff6ff"/><stop offset="1" stop-color="#e0f2fe"/></linearGradient></defs>
<rect x="203.0" y="523" width="166.0" height="124" fill="url(#g1290)" rx="18"/>
<path d="M286.0 553.628 L313.28 571.36 L313.28 598.64 L286.0 616.372 L258.72 598.64 L258.72 571.36 Z" fill="#3b82f6" opacity="0.9"/>
<path d="M286.0 553.628 L313.28 571.36 L286.0 589.092 L258.72 571.36 Z" fill="#dbeafe"/>
<path d="M286.0 589.092 L313.28 571.36 L313.28 598.64 L286.0 616.372 Z" fill="#1d4ed8" opacity="0.75"/>
<circle cx="346.0" cy="546" r="13" fill="#ffffff"/>
<text x="346.0" y="551" font-family="Inter, sans-serif" font-size="11" fill="#64748b" font-weight="400" text-anchor="middle">♡</text>
<rect x="212.0" y="534" width="43.31999999999999" height="18" fill="#ffffff" rx="9.0"/>
<text x="233.66" y="546.24" font-family="Inter, sans-serif" font-size="9" fill="#2563eb" font-weight="600" text-anchor="middle">STL ×4</text>
<text x="214.0" y="670" font-family="Inter, sans-serif" font-size="12.5" fill="#0f172a" font-weight="700" text-anchor="start">Chậu hình học</text>
<path d="M214.0 687.5 l1.44 3.06 l3.42 0.05 l-2.6999999999999997 2.0700000000000003 l0.99 3.2399999999999998 l-3.15 -1.98 l-3.15 1.98 l0.99 -3.2399999999999998 l-2.6999999999999997 -2.0700000000000003 l3.42 -0.05 Z" fill="#f59e0b"/>
<path d="M225.0 687.5 l1.44 3.06 l3.42 0.05 l-2.6999999999999997 2.0700000000000003 l0.99 3.2399999999999998 l-3.15 -1.98 l-3.15 1.98 l0.99 -3.2399999999999998 l-2.6999999999999997 -2.0700000000000003 l3.42 -0.05 Z" fill="#f59e0b"/>
<path d="M236.0 687.5 l1.44 3.06 l3.42 0.05 l-2.6999999999999997 2.0700000000000003 l0.99 3.2399999999999998 l-3.15 -1.98 l-3.15 1.98 l0.99 -3.2399999999999998 l-2.6999999999999997 -2.0700000000000003 l3.42 -0.05 Z" fill="#f59e0b"/>
<path d="M247.0 687.5 l1.44 3.06 l3.42 0.05 l-2.6999999999999997 2.0700000000000003 l0.99 3.2399999999999998 l-3.15 -1.98 l-3.15 1.98 l0.99 -3.2399999999999998 l-2.6999999999999997 -2.0700000000000003 l3.42 -0.05 Z" fill="#f59e0b"/>
<path d="M258.0 687.5 l1.44 3.06 l3.42 0.05 l-2.6999999999999997 2.0700000000000003 l0.99 3.2399999999999998 l-3.15 -1.98 l-3.15 1.98 l0.99 -3.2399999999999998 l-2.6999999999999997 -2.0700000000000003 l3.42 -0.05 Z" fill="#f59e0b"/>
<text x="270.0" y="695" font-family="Inter, sans-serif" font-size="10" fill="#64748b" font-weight="600" text-anchor="start">4.7</text>
<text x="214.0" y="724" font-family="Inter, sans-serif" font-size="14" fill="#2563eb" font-weight="800" text-anchor="start">89.000₫</text>
<rect x="20" y="758" width="350" height="104" fill="#0f172a" rx="18"/>
<circle cx="320" cy="810" r="62" fill="#2563eb" opacity="0.22"/>
<rect x="38" y="776" width="89.63" height="20" fill="#1e293b" rx="10.0"/>
<text x="82.815" y="789.42" font-family="Inter, sans-serif" font-size="9.5" fill="#06b6d4" font-weight="600" text-anchor="middle">Dịch vụ in 3D</text>
<text x="38" y="820" font-family="Inter, sans-serif" font-size="14" fill="#ffffff" font-weight="700" text-anchor="start">Có file STL? In &amp; giao tận nơi</text>
<text x="38" y="842" font-family="Inter, sans-serif" font-size="11.5" fill="#94a3b8" font-weight="400" text-anchor="start">Báo giá trong 24 giờ</text>
<rect x="0" y="876" width="390" height="84" fill="#ffffff"/>
<line x1="0" y1="876" x2="390" y2="876" stroke="#e2e8f0" stroke-width="1"/>
<rect x="17.0" y="888" width="44" height="30" fill="#eff6ff" rx="12"/>
<text x="39.0" y="909" font-family="Inter, sans-serif" font-size="17" fill="#2563eb" font-weight="600" text-anchor="middle">⌂</text>
<text x="39.0" y="931" font-family="Inter, sans-serif" font-size="9.5" fill="#2563eb" font-weight="600" text-anchor="middle">Trang chủ</text>
<text x="117.0" y="909" font-family="Inter, sans-serif" font-size="17" fill="#94a3b8" font-weight="600" text-anchor="middle">▣</text>
<text x="117.0" y="931" font-family="Inter, sans-serif" font-size="9.5" fill="#94a3b8" font-weight="500" text-anchor="middle">Chợ</text>
<text x="195.0" y="909" font-family="Inter, sans-serif" font-size="17" fill="#94a3b8" font-weight="600" text-anchor="middle">⬆</text>
<text x="195.0" y="931" font-family="Inter, sans-serif" font-size="9.5" fill="#94a3b8" font-weight="500" text-anchor="middle">In 3D</text>
<text x="273.0" y="909" font-family="Inter, sans-serif" font-size="17" fill="#94a3b8" font-weight="600" text-anchor="middle">♡</text>
<text x="273.0" y="931" font-family="Inter, sans-serif" font-size="9.5" fill="#94a3b8" font-weight="500" text-anchor="middle">Yêu thích</text>
<text x="351.0" y="909" font-family="Inter, sans-serif" font-size="17" fill="#94a3b8" font-weight="600" text-anchor="middle">◍</text>
<text x="351.0" y="931" font-family="Inter, sans-serif" font-size="9.5" fill="#94a3b8" font-weight="500" text-anchor="middle">Tài khoản</text>
<rect x="129.0" y="948" width="132" height="4.5" fill="#0f172a" rx="3"/>
</svg>