<svg xmlns="http://www.w3.org/2000/svg" width="390" height="1000" viewBox="0 0 390 1000">
<rect x="0" y="0" width="390" height="1000" fill="#f8fafc"/>
<rect x="0" y="0" width="390" height="44" fill="#ffffff"/>
<text x="28" y="28" font-family="Inter, sans-serif" font-size="13" fill="#0f172a" font-weight="700" text-anchor="start">9:41</text>
<text x="366" y="28" font-family="Inter, sans-serif" font-size="11" fill="#0f172a" font-weight="600" text-anchor="end">▮▮▮ ᯤ ▰</text>
<rect x="0" y="44" width="390" height="56" fill="#ffffff"/>
<line x1="0" y1="100" x2="390" y2="100" stroke="#e2e8f0" stroke-width="1"/>
<path d="M32 72 L22 72 M26 68 L22 72 L26 76" fill="none" stroke="#0f172a" stroke-width="2" stroke-linecap="round" stroke-linejoin="round"/>
<text x="195.0" y="77" font-family="Inter, sans-serif" font-size="15" fill="#0f172a" font-weight="700" text-anchor="middle">Chợ mô hình</text>
<circle cx="360" cy="72" r="15" fill="#f1f5f9"/>
<text x="360" y="77" font-family="Inter, sans-serif" font-size="15" fill="#475569" font-weight="700" text-anchor="middle">⋯</text>
<rect x="20" y="116" width="294" height="44" fill="#ffffff" rx="13" stroke="#e2e8f0" stroke-width="1"/>
<text x="36" y="144" font-family="Inter, sans-serif" font-size="13" fill="#94a3b8" font-weight="400" text-anchor="start">🔍</text>
<text x="58" y="144" font-family="Inter, sans-serif" font-size="13" fill="#94a3b8" font-weight="400" text-anchor="start">Tìm mô hình...</text>
<rect x="322" y="116" width="48" height="44" fill="#2563eb" rx="13"/>
<text x="346" y="144" font-family="Inter, sans-serif" font-size="15" fill="#ffffff" font-weight="600" text-anchor="middle">⚙</text>
<circle cx="362" cy="124" r="8" fill="#ef4444"/>
<text x="362" y="127" font-family="Inter, sans-serif" font-size="8.5" fill="#ffffff" font-weight="700" text-anchor="middle">2</text>
<rect x="20" y="174" width="66.02" height="30" fill="#2563eb" rx="15.0"/>
<text x="53.01" y="193.14" font-family="Inter, sans-serif" font-size="11.5" fill="#ffffff" font-weight="600" text-anchor="middle">Tất cả</text>
<rect x="94.02" y="174" width="72.69" height="30" fill="#ffffff" rx="15.0"/>
<text x="130.365" y="193.14" font-family="Inter, sans-serif" font-size="11.5" fill="#475569" font-weight="600" text-anchor="middle">Sưu tầm</text>
<rect x="94.02" y="174" width="72.69" height="30" fill="none" rx="15" stroke="#e2e8f0" stroke-width="1"/>
<rect x="174.70999999999998" y="174" width="86.03" height="30" fill="#ffffff" rx="15.0"/>
<text x="217.72499999999997" y="193.14" font-family="Inter, sans-serif" font-size="11.5" fill="#475569" font-weight="600" text-anchor="middle">Chức năng</text>
<rect x="174.70999999999998" y="174" width="86.03" height="30" fill="none" rx="15" stroke="#e2e8f0" stroke-width="1"/>
<rect x="268.74" y="174" width="86.03" height="30" fill="#ffffff" rx="15.0"/>
<text x="311.755" y="193.14" font-family="Inter, sans-serif" font-size="11.5" fill="#475569" font-weight="600" text-anchor="middle">Trang trí</text>
<rect x="268.74" y="174" width="86.03" height="30" fill="none" rx="15" stroke="#e2e8f0" stroke-width="1"/>
<text x="20" y="220" font-family="Inter, sans-serif" font-size="12.5" fill="#64748b" font-weight="400" text-anchor="start">12.418 kết quả</text>
<text x="370" y="220" font-family="Inter, sans-serif" font-size="12.5" fill="#475569" font-weight="600" text-anchor="end">Mới nhất ▾</text>
<rect x="20.0" y="236" width="168.0" height="216" fill="#ffffff" rx="18" stroke="#e2e8f0" stroke-width="1"/>
<defs><linearGradient id="g28958" x1="0" y1="0" x2="1" y2="1"><stop offset="0" stop-color="#eff6ff"/><stop offset="1" stop-color="#e0f2fe"/></linearGradient></defs>
<rect x="21.0" y="237" width="166.0" height="122" fill="url(#g28958)" rx="18"/>
<path d="M104.0 267.134 L130.84 284.58 L130.84 311.42 L104.0 328.866 L77.16 311.42 L77.16 284.58 Z" fill="#3b82f6" opacity="0.9"/>
<path d="M104.0 267.134 L130.84 284.58 L104.0 302.026 L77.16 284.58 Z" fill="#dbeafe"/>
<path d="M104.0 302.026 L130.84 284.58 L130.84 311.42 L104.0 328.866 Z" fill="#1d4ed8" opacity="0.75"/>
<circle cx="164.0" cy="260" r="13" fill="#ffffff"/>
<text x="164.0" y="265" font-family="Inter, sans-serif" font-size="11" fill="#64748b" font-weight="400" text-anchor="middle">♡</text>
<text x="32.0" y="384" font-family="Inter, sans-serif" font-size="12.5" fill="#0f172a" font-weight="700" text-anchor="start">Rồng Á Đông</text>
<text x="32.0" y="403" font-family="Inter, sans-serif" font-size="10" fill="#64748b" font-weight="400" text-anchor="start">Dragon Studio</text>
<path d="M32.0 419.5 l1.44 3.06 l3.42 0.05 l-2.6999999999999997 2.0700000000000003 l0.99 3.2399999999999998 l-3.15 -1.98 l-3.15 1.98 l0.99 -3.2399999999999998 l-2.6999999999999997 -2.0700000000000003 l3.42 -0.05 Z" fill="#f59e0b"/>
<path d="M43.0 419.5 l1.44 3.06 l3.42 0.05 l-2.6999999999999997 2.0700000000000003 l0.99 3.2399999999999998 l-3.15 -1.98 l-3.15 1.98 l0.99 -3.2399999999999998 l-2.6999999999999997 -2.0700000000000003 l3.42 -0.05 Z" fill="#f59e0b"/>
<path d="M54.0 419.5 l1.44 3.06 l3.42 0.05 l-2.6999999999999997 2.0700000000000003 l0.99 3.2399999999999998 l-3.15 -1.98 l-3.15 1.98 l0.99 -3.2399999999999998 l-2.6999999999999997 -2.0700000000000003 l3.42 -0.05 Z" fill="#f59e0b"/>
<path d="M65.0 419.5 l1.44 3.06 l3.42 0.05 l-2.6999999999999997 2.0700000000000003 l0.99 3.2399999999999998 l-3.15 -1.98 l-3.15 1.98 l0.99 -3.2399999999999998 l-2.6999999999999997 -2.0700000000000003 l3.42 -0.05 Z" fill="#f59e0b"/>
<path d="M76.0 419.5 l1.44 3.06 l3.42 0.05 l-2.6999999999999997 2.0700000000000003 l0.99 3.2399999999999998 l-3.15 -1.98 l-3.15 1.98 l0.99 -3.2399999999999998 l-2.6999999999999997 -2.0700000000000003 l3.42 -0.05 Z" fill="#f59e0b"/>
<text x="88.0" y="427" font-family="Inter, sans-serif" font-size="10" fill="#64748b" font-weight="600" text-anchor="start">4.9</text>
<text x="32.0" y="444" font-family="Inter, sans-serif" font-size="13.5" fill="#2563eb" font-weight="800" text-anchor="start">250.000₫</text>
<rect x="202.0" y="236" width="168.0" height="216" fill="#ffffff" rx="18" stroke="#e2e8f0" stroke-width="1"/>
<defs><linearGradient id="g67837" x1="0" y1="0" x2="1" y2="1"><stop offset="0" stop-color="#eff6ff"/><stop offset="1" stop-color="#e0f2fe"/></linearGradient></defs>
<rect x="203.0" y="237" width="166.0" height="122" fill="url(#g67837)" rx="18"/>
<path d="M286.0 267.134 L312.84 284.58 L312.84 311.42 L286.0 328.866 L259.16 311.42 L259.16 284.58 Z" fill="#3b82f6" opacity="0.9"/>
<path d="M286.0 267.134 L312.84 284.58 L286.0 302.026 L259.16 284.58 Z" fill="#dbeafe"/>
<path d="M286.0 302.026 L312.84 284.58 L312.84 311.42 L286.0 328.866 Z" fill="#1d4ed8" opacity="0.75"/>
<circle cx="346.0" cy="260" r="13" fill="#ffffff"/>
<text x="346.0" y="265" font-family="Inter, sans-serif" font-size="11" fill="#64748b" font-weight="400" text-anchor="middle">♡</text>
<text x="214.0" y="384" font-family="Inter, sans-serif" font-size="12.5" fill="#0f172a" font-weight="700" text-anchor="start">Chậu hình học</text>
<text x="214.0" y="403" font-family="Inter, sans-serif" font-size="10" fill="#64748b" font-weight="400" text-anchor="start">Dragon Studio</text>
<path d="M214.0 419.5 l1.44 3.06 l3.42 0.05 l-2.6999999999999997 2.0700000000000003 l0.99 3.2399999999999998 l-3.15 -1.98 l-3.15 1.98 l0.99 -3.2399999999999998 l-2.6999999999999997 -2.0700000000000003 l3.42 -0.05 Z" fill="#f59e0b"/>
<path d="M225.0 419.5 l1.44 3.06 l3.42 0.05 l-2.6999999999999997 2.0700000000000003 l0.99 3.2399999999999998 l-3.15 -1.98 l-3.15 1.98 l0.99 -3.2399999999999998 l-2.6999999999999997 -2.0700000000000003 l3.42 -0.05 Z" fill="#f59e0b"/>
<path d="M236.0 419.5 l1.44 3.06 l3.42 0.05 l-2.6999999999999997 2.0700000000000003 l0.99 3.2399999999999998 l-3.15 -1.98 l-3.15 1.98 l0.99 -3.2399999999999998 l-2.6999999999999997 -2.0700000000000003 l3.42 -0.05 Z" fill="#f59e0b"/>
<path d="M247.0 419.5 l1.44 3.06 l3.42 0.05 l-2.6999999999999997 2.0700000000000003 l0.99 3.2399999999999998 l-3.15 -1.98 l-3.15 1.98 l0.99 -3.2399999999999998 l-2.6999999999999997 -2.0700000000000003 l3.42 -0.05 Z" fill="#f59e0b"/>
<path d="M258.0 419.5 l1.44 3.06 l3.42 0.05 l-2.6999999999999997 2.0700000000000003 l0.99 3.2399999999999998 l-3.15 -1.98 l-3.15 1.98 l0.99 -3.2399999999999998 l-2.6999999999999997 -2.0700000000000003 l3.42 -0.05 Z" fill="#f59e0b"/>
<text x="270.0" y="427" font-family="Inter, sans-serif" font-size="10" fill="#64748b" font-weight="600" text-anchor="start">4.7</text>
<text x="214.0" y="444" font-family="Inter, sans-serif" font-size="13.5" fill="#2563eb" font-weight="800" text-anchor="start">89.000₫</text>
<rect x="20.0" y="468" width="168.0" height="216" fill="#ffffff" rx="18" stroke="#e2e8f0" stroke-width="1"/>
<defs><linearGradient id="g74351" x1="0" y1="0" x2="1" y2="1"><stop offset="0" stop-color="#eff6ff"/><stop offset="1" stop-color="#e0f2fe"/></linearGradient></defs>
<rect x="21.0" y="469" width="166.0" height="122" fill="url(#g74351)" rx="18"/>
<path d="M104.0 499.134 L130.84 516.58 L130.84 543.42 L104.0 560.866 L77.16 543.42 L77.16 516.58 Z" fill="#3b82f6" opacity="0.9"/>
<path d="M104.0 499.134 L130.84 516.58 L104.0 534.026 L77.16 516.58 Z" fill="#dbeafe"/>
<path d="M104.0 534.026 L130.84 516.58 L130.84 543.42 L104.0 560.866 Z" fill="#1d4ed8" opacity="0.75"/>
<circle cx="164.0" cy="492" r="13" fill="#ffffff"/>
<text x="164.0" y="497" font-family="Inter, sans-serif" font-size="11" fill="#64748b" font-weight="400" text-anchor="middle">♡</text>
<text x="32.0" y="616" font-family="Inter, sans-serif" font-size="12.5" fill="#0f172a" font-weight="700" text-anchor="start">Bộ cờ Trung Cổ</text>
<text x="32.0" y="635" font-family="Inter, sans-serif" font-size="10" fill="#64748b" font-weight="400" text-anchor="start">Dragon Studio</text>
<path d="M32.0 651.5 l1.44 3.06 l3.42 0.05 l-2.6999999999999997 2.0700000000000003 l0.99 3.2399999999999998 l-3.15 -1.98 l-3.15 1.98 l0.99 -3.2399999999999998 l-2.6999999999999997 -2.0700000000000003 l3.42 -0.05 Z" fill="#f59e0b"/>
<path d="M43.0 651.5 l1.44 3.06 l3.42 0.05 l-2.6999999999999997 2.0700000000000003 l0.99 3.2399999999999998 l-3.15 -1.98 l-3.15 1.98 l0.99 -3.2399999999999998 l-2.6999999999999997 -2.0700000000000003 l3.42 -0.05 Z" fill="#f59e0b"/>
<path d="M54.0 651.5 l1.44 3.06 l3.42 0.05 l-2.6999999999999997 2.0700000000000003 l0.99 3.2399999999999998 l-3.15 -1.98 l-3.15 1.98 l0.99 -3.2399999999999998 l-2.6999999999999997 -2.0700000000000003 l3.42 -0.05 Z" fill="#f59e0b"/>
<path d="M65.0 651.5 l1.44 3.06 l3.42 0.05 l-2.6999999999999997 2.0700000000000003 l0.99 3.2399999999999998 l-3.15 -1.98 l-3.15 1.98 l0.99 -3.2399999999999998 l-2.6999999999999997 -2.0700000000000003 l3.42 -0.05 Z" fill="#f59e0b"/>
<path d="M76.0 651.5 l1.44 3.06 l3.42 0.05 l-2.6999999999999997 2.0700000000000003 l0.99 3.2399999999999998 l-3.15 -1.98 l-3.15 1.98 l0.99 -3.2399999999999998 l-2.6999999999999997 -2.0700000000000003 l3.42 -0.05 Z" fill="#f59e0b"/>
<text x="88.0" y="659" font-family="Inter, sans-serif" font-size="10" fill="#64748b" font-weight="600" text-anchor="start">5.0</text>
<text x="32.0" y="676" font-family="Inter, sans-serif" font-size="13.5" fill="#2563eb" font-weight="800" text-anchor="start">420.000₫</text>
<rect x="202.0" y="468" width="168.0" height="216" fill="#ffffff" rx="18" stroke="#e2e8f0" stroke-width="1"/>
<defs><linearGradient id="g22444" x1="0" y1="0" x2="1" y2="1"><stop offset="0" stop-color="#eff6ff"/><stop offset="1" stop-color="#e0f2fe"/></linearGradient></defs>
<rect x="203.0" y="469" width="166.0" height="122" fill="url(#g22444)" rx="18"/>
<path d="M286.0 499.134 L312.84 516.58 L312.84 543.42 L286.0 560.866 L259.16 543.42 L259.16 516.58 Z" fill="#3b82f6" opacity="0.9"/>
<path d="M286.0 499.134 L312.84 516.58 L286.0 534.026 L259.16 516.58 Z" fill="#dbeafe"/>
<path d="M286.0 534.026 L312.84 516.58 L312.84 543.42 L286.0 560.866 Z" fill="#1d4ed8" opacity="0.75"/>
<circle cx="346.0" cy="492" r="13" fill="#ffffff"/>
<text x="346.0" y="497" font-family="Inter, sans-serif" font-size="11" fill="#64748b" font-weight="400" text-anchor="middle">♡</text>
<text x="214.0" y="616" font-family="Inter, sans-serif" font-size="12.5" fill="#0f172a" font-weight="700" text-anchor="start">Giá đỡ ĐT</text>
<text x="214.0" y="635" font-family="Inter, sans-serif" font-size="10" fill="#64748b" font-weight="400" text-anchor="start">Dragon Studio</text>
<path d="M214.0 651.5 l1.44 3.06 l3.42 0.05 l-2.6999999999999997 2.0700000000000003 l0.99 3.2399999999999998 l-3.15 -1.98 l-3.15 1.98 l0.99 -3.2399999999999998 l-2.6999999999999997 -2.0700000000000003 l3.42 -0.05 Z" fill="#f59e0b"/>
<path d="M225.0 651.5 l1.44 3.06 l3.42 0.05 l-2.6999999999999997 2.0700000000000003 l0.99 3.2399999999999998 l-3.15 -1.98 l-3.15 1.98 l0.99 -3.2399999999999998 l-2.6999999999999997 -2.0700000000000003 l3.42 -0.05 Z" fill="#f59e0b"/>
<path d="M236.0 651.5 l1.44 3.06 l3.42 0.05 l-2.6999999999999997 2.0700000000000003 l0.99 3.2399999999999998 l-3.15 -1.98 l-3.15 1.98 l0.99 -3.2399999999999998 l-2.6999999999999997 -2.0700000000000003 l3.42 -0.05 Z" fill="#f59e0b"/>
<path d="M247.0 651.5 l1.44 3.06 l3.42 0.05 l-2.6999999999999997 2.0700000000000003 l0.99 3.2399999999999998 l-3.15 -1.98 l-3.15 1.98 l0.99 -3.2399999999999998 l-2.6999999999999997 -2.0700000000000003 l3.42 -0.05 Z" fill="#f59e0b"/>
<path d="M258.0 651.5 l1.44 3.06 l3.42 0.05 l-2.6999999999999997 2.0700000000000003 l0.99 3.2399999999999998 l-3.15 -1.98 l-3.15 1.98 l0.99 -3.2399999999999998 l-2.6999999999999997 -2.0700000000000003 l3.42 -0.05 Z" fill="#f59e0b"/>
<text x="270.0" y="659" font-family="Inter, sans-serif" font-size="10" fill="#64748b" font-weight="600" text-anchor="start">4.8</text>
<text x="214.0" y="676" font-family="Inter, sans-serif" font-size="13.5" fill="#2563eb" font-weight="800" text-anchor="start">65.000₫</text>
<rect x="20.0" y="700" width="168.0" height="216" fill="#ffffff" rx="18" stroke="#e2e8f0" stroke-width="1"/>
<defs><linearGradient id="g68952" x1="0" y1="0" x2="1" y2="1"><stop offset="0" stop-color="#eff6ff"/><stop offset="1" stop-color="#e0f2fe"/></linearGradient></defs>
<rect x="21.0" y="701" width="166.0" height="122" fill="url(#g68952)" rx="18"/>
<path d="M104.0 731.134 L130.84 748.58 L130.84 775.42 L104.0 792.866 L77.16 775.42 L77.16 748.58 Z" fill="#3b82f6" opacity="0.9"/>
<path d="M104.0 731.134 L130.84 748.58 L104.0 766.026 L77.16 748.58 Z" fill="#dbeafe"/>
<path d="M104.0 766.026 L130.84 748.58 L130.84 775.42 L104.0 792.866 Z" fill="#1d4ed8" opacity="0.75"/>
<circle cx="164.0" cy="724" r="13" fill="#ffffff"/>
<text x="164.0" y="729" font-family="Inter, sans-serif" font-size="11" fill="#64748b" font-weight="400" text-anchor="middle">♡</text>
<text x="32.0" y="848" font-family="Inter, sans-serif" font-size="12.5" fill="#0f172a" font-weight="700" text-anchor="start">Phi hành gia</text>
<text x="32.0" y="867" font-family="Inter, sans-serif" font-size="10" fill="#64748b" font-weight="400" text-anchor="start">Dragon Studio</text>
<path d="M32.0 883.5 l1.44 3.06 l3.42 0.05 l-2.6999999999999997 2.0700000000000003 l0.99 3.2399999999999998 l-3.15 -1.98 l-3.15 1.98 l0.99 -3.2399999999999998 l-2.6999999999999997 -2.0700000000000003 l3.42 -0.05 Z" fill="#f59e0b"/>
<path d="M43.0 883.5 l1.44 3.06 l3.42 0.05 l-2.6999999999999997 2.0700000000000003 l0.99 3.2399999999999998 l-3.15 -1.98 l-3.15 1.98 l0.99 -3.2399999999999998 l-2.6999999999999997 -2.0700000000000003 l3.42 -0.05 Z" fill="#f59e0b"/>
<path d="M54.0 883.5 l1.44 3.06 l3.42 0.05 l-2.6999999999999997 2.0700000000000003 l0.99 3.2399999999999998 l-3.15 -1.98 l-3.15 1.98 l0.99 -3.2399999999999998 l-2.6999999999999997 -2.0700000000000003 l3.42 -0.05 Z" fill="#f59e0b"/>
<path d="M65.0 883.5 l1.44 3.06 l3.42 0.05 l-2.6999999999999997 2.0700000000000003 l0.99 3.2399999999999998 l-3.15 -1.98 l-3.15 1.98 l0.99 -3.2399999999999998 l-2.6999999999999997 -2.0700000000000003 l3.42 -0.05 Z" fill="#f59e0b"/>
<path d="M76.0 883.5 l1.44 3.06 l3.42 0.05 l-2.6999999999999997 2.0700000000000003 l0.99 3.2399999999999998 l-3.15 -1.98 l-3.15 1.98 l0.99 -3.2399999999999998 l-2.6999999999999997 -2.0700000000000003 l3.42 -0.05 Z" fill="#f59e0b"/>
<text x="88.0" y="891" font-family="Inter, sans-serif" font-size="10" fill="#64748b" font-weight="600" text-anchor="start">4.6</text>
<text x="32.0" y="908" font-family="Inter, sans-serif" font-size="13.5" fill="#2563eb" font-weight="800" text-anchor="start">185.000₫</text>
<rect x="202.0" y="700" width="168.0" height="216" fill="#ffffff" rx="18" stroke="#e2e8f0" stroke-width="1"/>
<defs><linearGradient id="g574" x1="0" y1="0" x2="1" y2="1"><stop offset="0" stop-color="#eff6ff"/><stop offset="1" stop-color="#e0f2fe"/></linearGradient></defs>
<rect x="203.0" y="701" width="166.0" height="122" fill="url(#g574)" rx="18"/>
<path d="M286.0 731.134 L312.84 748.58 L312.84 775.42 L286.0 792.866 L259.16 775.42 L259.16 748.58 Z" fill="#3b82f6" opacity="0.9"/>
<path d="M286.0 731.134 L312.84 748.58 L286.0 766.026 L259.16 748.58 Z" fill="#dbeafe"/>
<path d="M286.0 766.026 L312.84 748.58 L312.84 775.42 L286.0 792.866 Z" fill="#1d4ed8" opacity="0.75"/>
<circle cx="346.0" cy="724" r="13" fill="#ffffff"/>
<text x="346.0" y="729" font-family="Inter, sans-serif" font-size="11" fill="#64748b" font-weight="400" text-anchor="middle">♡</text>
<text x="214.0" y="848" font-family="Inter, sans-serif" font-size="12.5" fill="#0f172a" font-weight="700" text-anchor="start">Hộp đựng bút</text>
<text x="214.0" y="867" font-family="Inter, sans-serif" font-size="10" fill="#64748b" font-weight="400" text-anchor="start">Dragon Studio</text>
<path d="M214.0 883.5 l1.44 3.06 l3.42 0.05 l-2.6999999999999997 2.0700000000000003 l0.99 3.2399999999999998 l-3.15 -1.98 l-3.15 1.98 l0.99 -3.2399999999999998 l-2.6999999999999997 -2.0700000000000003 l3.42 -0.05 Z" fill="#f59e0b"/>
<path d="M225.0 883.5 l1.44 3.06 l3.42 0.05 l-2.6999999999999997 2.0700000000000003 l0.99 3.2399999999999998 l-3.15 -1.98 l-3.15 1.98 l0.99 -3.2399999999999998 l-2.6999999999999997 -2.0700000000000003 l3.42 -0.05 Z" fill="#f59e0b"/>
<path d="M236.0 883.5 l1.44 3.06 l3.42 0.05 l-2.6999999999999997 2.0700000000000003 l0.99 3.2399999999999998 l-3.15 -1.98 l-3.15 1.98 l0.99 -3.2399999999999998 l-2.6999999999999997 -2.0700000000000003 l3.42 -0.05 Z" fill="#f59e0b"/>
<path d="M247.0 883.5 l1.44 3.06 l3.42 0.05 l-2.6999999999999997 2.0700000000000003 l0.99 3.2399999999999998 l-3.15 -1.98 l-3.15 1.98 l0.99 -3.2399999999999998 l-2.6999999999999997 -2.0700000000000003 l3.42 -0.05 Z" fill="#f59e0b"/>
<path d="M258.0 883.5 l1.44 3.06 l3.42 0.05 l-2.6999999999999997 2.0700000000000003 l0.99 3.2399999999999998 l-3.15 -1.98 l-3.15 1.98 l0.99 -3.2399999999999998 l-2.6999999999999997 -2.0700000000000003 l3.42 -0.05 Z" fill="#f59e0b"/>
<text x="270.0" y="891" font-family="Inter, sans-serif" font-size="10" fill="#64748b" font-weight="600" text-anchor="start">4.5</text>
<text x="214.0" y="908" font-family="Inter, sans-serif" font-size="13.5" fill="#2563eb" font-weight="800" text-anchor="start">72.000₫</text>
<rect x="0" y="916" width="390" height="84" fill="#ffffff"/>
<line x1="0" y1="916" x2="390" y2="916" stroke="#e2e8f0" stroke-width="1"/>
<text x="39.0" y="949" font-family="Inter, sans-serif" font-size="17" fill="#94a3b8" font-weight="600" text-anchor="middle">⌂</text>
<text x="39.0" y="971" font-family="Inter, sans-serif" font-size="9.5" fill="#94a3b8" font-weight="500" text-anchor="middle">Trang chủ</text>
<rect x="95.0" y="928" width="44" height="30" fill="#eff6ff" rx="12"/>
<text x="117.0" y="949" font-family="Inter, sans-serif" font-size="17" fill="#2563eb" font-weight="600" text-anchor="middle">▣</text>
<text x="117.0" y="971" font-family="Inter, sans-serif" font-size="9.5" fill="#2563eb" font-weight="600" text-anchor="middle">Chợ</text>
<text x="195.0" y="949" font-family="Inter, sans-serif" font-size="17" fill="#94a3b8" font-weight="600" text-anchor="middle">⬆</text>
<text x="195.0" y="971" font-family="Inter, sans-serif" font-size="9.5" fill="#94a3b8" font-weight="500" text-anchor="middle">In 3D</text>
<text x="273.0" y="949" font-family="Inter, sans-serif" font-size="17" fill="#94a3b8" font-weight="600" text-anchor="middle">♡</text>
<text x="273.0" y="971" font-family="Inter, sans-serif" font-size="9.5" fill="#94a3b8" font-weight="500" text-anchor="middle">Yêu thích</text>
<text x="351.0" y="949" font-family="Inter, sans-serif" font-size="17" fill="#94a3b8" font-weight="600" text-anchor="middle">◍</text>
<text x="351.0" y="971" font-family="Inter, sans-serif" font-size="9.5" fill="#94a3b8" font-weight="500" text-anchor="middle">Tài khoản</text>
<rect x="129.0" y="988" width="132" height="4.5" fill="#0f172a" rx="3"/>
</svg>