<svg xmlns="http://www.w3.org/2000/svg" width="390" height="940" viewBox="0 0 390 940">
<rect x="0" y="0" width="390" height="940" fill="#f8fafc"/>
<rect x="0" y="0" width="390" height="44" fill="#ffffff"/>
<text x="28" y="28" font-family="Inter, sans-serif" font-size="13" fill="#0f172a" font-weight="700" text-anchor="start">9:41</text>
<text x="366" y="28" font-family="Inter, sans-serif" font-size="11" fill="#0f172a" font-weight="600" text-anchor="end">▮▮▮ ᯤ ▰</text>
<defs><linearGradient id="g28548" x1="0" y1="0" x2="1" y2="1"><stop offset="0" stop-color="#eff6ff"/><stop offset="1" stop-color="#e0f2fe"/></linearGradient></defs>
<rect x="0" y="44" width="390" height="330" fill="url(#g28548)"/>
<path d="M195.0 125.51000000000002 L267.6 172.7 L267.6 245.3 L195.0 292.49 L122.4 245.3 L122.4 172.7 Z" fill="#3b82f6" opacity="0.9"/>
<path d="M195.0 125.51000000000002 L267.6 172.7 L195.0 219.89 L122.4 172.7 Z" fill="#dbeafe"/>
<path d="M195.0 219.89 L267.6 172.7 L267.6 245.3 L195.0 292.49 Z" fill="#1d4ed8" opacity="0.75"/>
<circle cx="32" cy="76" r="17" fill="#ffffff"/>
<path d="M35 76 L27 76 M30 72 L27 76 L30 80" fill="none" stroke="#0f172a" stroke-width="2" stroke-linecap="round" stroke-linejoin="round"/>
<circle cx="316" cy="76" r="17" fill="#ffffff"/>
<text x="316" y="81" font-family="Inter, sans-serif" font-size="14" fill="#64748b" font-weight="400" text-anchor="middle">♡</text>
<circle cx="358" cy="76" r="17" fill="#ffffff"/>
<text x="358" y="81" font-family="Inter, sans-serif" font-size="13" fill="#475569" font-weight="600" text-anchor="middle">⤴</text>
<rect x="24" y="320" width="137.70999999999998" height="26" fill="#ffffff" rx="13.0"/>
<text x="92.85499999999999" y="336.78" font-family="Inter, sans-serif" font-size="10.5" fill="#2563eb" font-weight="600" text-anchor="middle">◆  Kéo để xoay 360°</text>
<circle cx="174.0" cy="358" r="3.5" fill="#ffffff" opacity="1"/>
<circle cx="188.0" cy="358" r="3.5" fill="#ffffff" opacity="0.45"/>
<circle cx="202.0" cy="358" r="3.5" fill="#ffffff" opacity="0.45"/>
<circle cx="216.0" cy="358" r="3.5" fill="#ffffff" opacity="0.45"/>
<rect x="0" y="374" width="390" height="566" fill="#f8fafc" rx="22"/>
<rect x="20" y="392" width="111.35" height="24" fill="#eff6ff" rx="12.0"/>
<text x="75.675" y="407.78" font-family="Inter, sans-serif" font-size="10.5" fill="#2563eb" font-weight="600" text-anchor="middle">Mô hình sưu tầm</text>
<text x="20" y="446" font-family="Inter, sans-serif" font-size="20" fill="#0f172a" font-weight="800" text-anchor="start">Rồng Á Đông chi tiết cao</text>
<path d="M20 468.0 l1.92 4.08 l4.5600000000000005 0.05 l-3.5999999999999996 2.7600000000000002 l1.32 4.32 l-4.199999999999999 -2.64 l-4.199999999999999 2.64 l1.32 -4.32 l-3.5999999999999996 -2.7600000000000002 l4.5600000000000005 -0.05 Z" fill="#f59e0b"/>
<path d="M34 468.0 l1.92 4.08 l4.5600000000000005 0.05 l-3.5999999999999996 2.7600000000000002 l1.32 4.32 l-4.199999999999999 -2.64 l-4.199999999999999 2.64 l1.32 -4.32 l-3.5999999999999996 -2.7600000000000002 l4.5600000000000005 -0.05 Z" fill="#f59e0b"/>
<path d="M48 468.0 l1.92 4.08 l4.5600000000000005 0.05 l-3.5999999999999996 2.7600000000000002 l1.32 4.32 l-4.199999999999999 -2.64 l-4.199999999999999 2.64 l1.32 -4.32 l-3.5999999999999996 -2.7600000000000002 l4.5600000000000005 -0.05 Z" fill="#f59e0b"/>
<path d="M62 468.0 l1.92 4.08 l4.5600000000000005 0.05 l-3.5999999999999996 2.7600000000000002 l1.32 4.32 l-4.199999999999999 -2.64 l-4.199999999999999 2.64 l1.32 -4.32 l-3.5999999999999996 -2.7600000000000002 l4.5600000000000005 -0.05 Z" fill="#f59e0b"/>
<path d="M76 468.0 l1.92 4.08 l4.5600000000000005 0.05 l-3.5999999999999996 2.7600000000000002 l1.32 4.32 l-4.199999999999999 -2.64 l-4.199999999999999 2.64 l1.32 -4.32 l-3.5999999999999996 -2.7600000000000002 l4.5600000000000005 -0.05 Z" fill="#f59e0b"/>
<text x="94" y="478" font-family="Inter, sans-serif" font-size="12" fill="#64748b" font-weight="400" text-anchor="start">4.9  (184)  ·  1.204 đã bán</text>
<text x="20" y="520" font-family="Inter, sans-serif" font-size="28" fill="#2563eb" font-weight="800" text-anchor="start">250.000₫</text>
<text x="178" y="519" font-family="Inter, sans-serif" font-size="13" fill="#94a3b8" font-weight="400" text-anchor="start">320.000₫</text>
<line x1="178" y1="514" x2="244" y2="514" stroke="#94a3b8" stroke-width="1.3"/>
<rect x="256" y="502" width="40.36" height="22" fill="#fee2e2" rx="11.0"/>
<text x="276.18" y="516.78" font-family="Inter, sans-serif" font-size="10.5" fill="#ef4444" font-weight="600" text-anchor="middle">-22%</text>
<rect x="20" y="542" width="350" height="66" fill="#ffffff" rx="16" stroke="#e2e8f0" stroke-width="1"/>
<circle cx="52" cy="575" r="19" fill="#dbeafe"/>
<text x="52" y="581.65" font-family="Inter, sans-serif" font-size="17.1" fill="#2563eb" font-weight="700" text-anchor="middle">D</text>
<text x="82" y="570" font-family="Inter, sans-serif" font-size="13" fill="#0f172a" font-weight="700" text-anchor="start">Dragon Studio</text>
<circle cx="192" cy="566" r="7" fill="#2563eb"/>
<text x="192" y="569" font-family="Inter, sans-serif" font-size="8.5" fill="#ffffff" font-weight="700" text-anchor="middle">✓</text>
<text x="82" y="588" font-family="Inter, sans-serif" font-size="11" fill="#64748b" font-weight="400" text-anchor="start">248 mô hình · 4.9★</text>
<rect x="294" y="560" width="72" height="30" fill="#ffffff" rx="12" stroke="#e2e8f0" stroke-width="1"/>
<text x="330.0" y="578.96" font-family="Inter, sans-serif" font-size="11" fill="#475569" font-weight="600" text-anchor="middle">Xem sạp</text>
<text x="20" y="646" font-family="Inter, sans-serif" font-size="14" fill="#0f172a" font-weight="700" text-anchor="start">Thông số</text>
<text x="20.0" y="672" font-family="Inter, sans-serif" font-size="11" fill="#64748b" font-weight="400" text-anchor="start">Số file STL</text>
<text x="20.0" y="689" font-family="Inter, sans-serif" font-size="12.5" fill="#0f172a" font-weight="600" text-anchor="start">4 file</text>
<text x="195.0" y="672" font-family="Inter, sans-serif" font-size="11" fill="#64748b" font-weight="400" text-anchor="start">Dung lượng</text>
<text x="195.0" y="689" font-family="Inter, sans-serif" font-size="12.5" fill="#0f172a" font-weight="600" text-anchor="start">48,2 MB</text>
<text x="20.0" y="712" font-family="Inter, sans-serif" font-size="11" fill="#64748b" font-weight="400" text-anchor="start">Kích thước</text>
<text x="20.0" y="729" font-family="Inter, sans-serif" font-size="12.5" fill="#0f172a" font-weight="600" text-anchor="start">180×120×210</text>
<text x="195.0" y="712" font-family="Inter, sans-serif" font-size="11" fill="#64748b" font-weight="400" text-anchor="start">Vật liệu</text>
<text x="195.0" y="729" font-family="Inter, sans-serif" font-size="12.5" fill="#0f172a" font-weight="600" text-anchor="start">PLA / Resin</text>
<line x1="20" y1="764" x2="370" y2="764" stroke="#e2e8f0" stroke-width="1"/>
<text x="20" y="792" font-family="Inter, sans-serif" font-size="12.5" fill="#2563eb" font-weight="700" text-anchor="start">Mô tả</text>
<rect x="20" y="804" width="37.0" height="2.5" fill="#2563eb" rx="2"/>
<text x="138" y="792" font-family="Inter, sans-serif" font-size="12.5" fill="#64748b" font-weight="500" text-anchor="start">Đánh giá (184)</text>
<text x="256" y="792" font-family="Inter, sans-serif" font-size="12.5" fill="#64748b" font-weight="500" text-anchor="start">Hướng dẫn</text>
<rect x="0" y="844" width="390" height="96" fill="#ffffff"/>
<line x1="0" y1="844" x2="390" y2="844" stroke="#e2e8f0" stroke-width="1"/>
<rect x="20" y="862" width="50" height="46" fill="#ffffff" rx="13" stroke="#e2e8f0" stroke-width="1"/>
<text x="45" y="891" font-family="Inter, sans-serif" font-size="15" fill="#475569" font-weight="400" text-anchor="middle">💬</text>
<rect x="80" y="862" width="106" height="46" fill="#ffffff" rx="12" stroke="#e2e8f0" stroke-width="1"/>
<text x="133.0" y="889.5" font-family="Inter, sans-serif" font-size="12.5" fill="#475569" font-weight="600" text-anchor="middle">Thêm giỏ</text>
<rect x="196" y="862" width="174" height="46" fill="#2563eb" rx="12"/>
<text x="283.0" y="889.86" font-family="Inter, sans-serif" font-size="13.5" fill="#ffffff" font-weight="600" text-anchor="middle">Mua ngay</text>
<rect x="129.0" y="928" width="132" height="4.5" fill="#0f172a" rx="3"/>
</svg>