<svg xmlns="http://www.w3.org/2000/svg" width="390" height="1010" viewBox="0 0 390 1010">
<rect x="0" y="0" width="390" height="1010" fill="#f8fafc"/>
<rect x="0" y="0" width="390" height="44" fill="#ffffff"/>
<text x="28" y="28" font-family="Inter, sans-serif" font-size="13" fill="#0f172a" font-weight="700" text-anchor="start">9:41</text>
<text x="366" y="28" font-family="Inter, sans-serif" font-size="11" fill="#0f172a" font-weight="600" text-anchor="end">▮▮▮ ᯤ ▰</text>
<defs><linearGradient id="mb" x1="0" y1="0" x2="1" y2="0"><stop offset="0" stop-color="#1d4ed8"/><stop offset="1" stop-color="#06b6d4"/></linearGradient></defs>
<rect x="0" y="44" width="390" height="150" fill="url(#mb)"/>
<circle cx="330" cy="80" r="66" fill="#ffffff" opacity="0.1"/>
<circle cx="32" cy="76" r="17" fill="#ffffff" opacity="0.9"/>
<path d="M35 76 L27 76 M30 72 L27 76 L30 80" fill="none" stroke="#0f172a" stroke-width="2" stroke-linecap="round" stroke-linejoin="round"/>
<circle cx="358" cy="76" r="17" fill="#ffffff" opacity="0.9"/>
<text x="358" y="81" font-family="Inter, sans-serif" font-size="15" fill="#0f172a" font-weight="700" text-anchor="middle">⋯</text>
<rect x="16" y="156" width="358" height="196" fill="#ffffff" rx="20" stroke="#e2e8f0" stroke-width="1"/>
<circle cx="195.0" cy="160" r="40" fill="#ffffff"/>
<circle cx="195.0" cy="160" r="34" fill="#dbeafe"/>
<text x="195.0" y="171.9" font-family="Inter, sans-serif" font-size="30.6" fill="#2563eb" font-weight="700" text-anchor="middle">D</text>
<text x="195.0" y="226" font-family="Inter, sans-serif" font-size="19" fill="#0f172a" font-weight="800" text-anchor="middle">Dragon Studio</text>
<circle cx="279.0" cy="220" r="8" fill="#2563eb"/>
<text x="279.0" y="223" font-family="Inter, sans-serif" font-size="9.5" fill="#ffffff" font-weight="700" text-anchor="middle">✓</text>
<text x="195.0" y="248" font-family="Inter, sans-serif" font-size="11.5" fill="#64748b" font-weight="400" text-anchor="middle">Mô hình sưu tầm chi tiết cao</text>
<path d="M149.0 264.5 l1.76 3.74 l4.18 0.05 l-3.3 2.5300000000000002 l1.21 3.96 l-3.8499999999999996 -2.42 l-3.8499999999999996 2.42 l1.21 -3.96 l-3.3 -2.5300000000000002 l4.18 -0.05 Z" fill="#f59e0b"/>
<path d="M162.0 264.5 l1.76 3.74 l4.18 0.05 l-3.3 2.5300000000000002 l1.21 3.96 l-3.8499999999999996 -2.42 l-3.8499999999999996 2.42 l1.21 -3.96 l-3.3 -2.5300000000000002 l4.18 -0.05 Z" fill="#f59e0b"/>
<path d="M175.0 264.5 l1.76 3.74 l4.18 0.05 l-3.3 2.5300000000000002 l1.21 3.96 l-3.8499999999999996 -2.42 l-3.8499999999999996 2.42 l1.21 -3.96 l-3.3 -2.5300000000000002 l4.18 -0.05 Z" fill="#f59e0b"/>
<path d="M188.0 264.5 l1.76 3.74 l4.18 0.05 l-3.3 2.5300000000000002 l1.21 3.96 l-3.8499999999999996 -2.42 l-3.8499999999999996 2.42 l1.21 -3.96 l-3.3 -2.5300000000000002 l4.18 -0.05 Z" fill="#f59e0b"/>
<path d="M201.0 264.5 l1.76 3.74 l4.18 0.05 l-3.3 2.5300000000000002 l1.21 3.96 l-3.8499999999999996 -2.42 l-3.8499999999999996 2.42 l1.21 -3.96 l-3.3 -2.5300000000000002 l4.18 -0.05 Z" fill="#f59e0b"/>
<text x="219.0" y="273" font-family="Inter, sans-serif" font-size="11.5" fill="#475569" font-weight="600" text-anchor="start">4.9 (312)</text>
<text x="65.0" y="304" font-family="Inter, sans-serif" font-size="15" fill="#0f172a" font-weight="800" text-anchor="middle">248</text>
<text x="65.0" y="321" font-family="Inter, sans-serif" font-size="10" fill="#64748b" font-weight="400" text-anchor="middle">Mô hình</text>
<text x="195.0" y="304" font-family="Inter, sans-serif" font-size="15" fill="#0f172a" font-weight="800" text-anchor="middle">12.4K</text>
<text x="195.0" y="321" font-family="Inter, sans-serif" font-size="10" fill="#64748b" font-weight="400" text-anchor="middle">Theo dõi</text>
<text x="325.0" y="304" font-family="Inter, sans-serif" font-size="15" fill="#0f172a" font-weight="800" text-anchor="middle">9.8K</text>
<text x="325.0" y="321" font-family="Inter, sans-serif" font-size="10" fill="#64748b" font-weight="400" text-anchor="middle">Đã bán</text>
<rect x="28" y="334" width="161.0" height="40" fill="#2563eb" rx="12"/>
<text x="108.5" y="358.5" font-family="Inter, sans-serif" font-size="12.5" fill="#ffffff" font-weight="600" text-anchor="middle">＋ Theo dõi</text>
<rect x="201.0" y="334" width="161.0" height="40" fill="#ffffff" rx="12" stroke="#e2e8f0" stroke-width="1"/>
<text x="281.5" y="358.5" font-family="Inter, sans-serif" font-size="12.5" fill="#475569" font-weight="600" text-anchor="middle">💬 Nhắn tin</text>
<line x1="20" y1="396" x2="370" y2="396" stroke="#e2e8f0" stroke-width="1"/>
<text x="20" y="424" font-family="Inter, sans-serif" font-size="13" fill="#2563eb" font-weight="700" text-anchor="start">Sản phẩm</text>
<rect x="20" y="436" width="62.4" height="2.5" fill="#2563eb" rx="2"/>
<text x="136" y="424" font-family="Inter, sans-serif" font-size="13" fill="#64748b" font-weight="500" text-anchor="start">Đánh giá</text>
<text x="252" y="424" font-family="Inter, sans-serif" font-size="13" fill="#64748b" font-weight="500" text-anchor="start">Giới thiệu</text>
<rect x="20" y="456" width="260" height="40" fill="#ffffff" rx="12" stroke="#e2e8f0" stroke-width="1"/>
<text x="36" y="482" font-family="Inter, sans-serif" font-size="12" fill="#94a3b8" font-weight="400" text-anchor="start">🔍  Tìm trong sạp</text>
<rect x="268" y="456" width="102" height="40" fill="#ffffff" rx="12" stroke="#e2e8f0" stroke-width="1"/>
<text x="319.0" y="480.14" font-family="Inter, sans-serif" font-size="11.5" fill="#475569" font-weight="600" text-anchor="middle">Mới nhất ▾</text>
<rect x="20.0" y="512" width="168.0" height="186" fill="#ffffff" rx="18" stroke="#e2e8f0" stroke-width="1"/>
<defs><linearGradient id="g62996" x1="0" y1="0" x2="1" y2="1"><stop offset="0" stop-color="#eff6ff"/><stop offset="1" stop-color="#e0f2fe"/></linearGradient></defs>
<rect x="21.0" y="513" width="166.0" height="116" fill="url(#g62996)" rx="18"/>
<path d="M104.0 541.652 L129.52 558.24 L129.52 583.76 L104.0 600.348 L78.48 583.76 L78.48 558.24 Z" fill="#3b82f6" opacity="0.9"/>
<path d="M104.0 541.652 L129.52 558.24 L104.0 574.828 L78.48 558.24 Z" fill="#dbeafe"/>
<path d="M104.0 574.828 L129.52 558.24 L129.52 583.76 L104.0 600.348 Z" fill="#1d4ed8" opacity="0.75"/>
<text x="32.0" y="654" font-family="Inter, sans-serif" font-size="12" fill="#0f172a" font-weight="700" text-anchor="start">Rồng Á Đông</text>
<path d="M32.0 667.5 l1.44 3.06 l3.42 0.05 l-2.6999999999999997 2.0700000000000003 l0.99 3.2399999999999998 l-3.15 -1.98 l-3.15 1.98 l0.99 -3.2399999999999998 l-2.6999999999999997 -2.0700000000000003 l3.42 -0.05 Z" fill="#f59e0b"/>
<path d="M43.0 667.5 l1.44 3.06 l3.42 0.05 l-2.6999999999999997 2.0700000000000003 l0.99 3.2399999999999998 l-3.15 -1.98 l-3.15 1.98 l0.99 -3.2399999999999998 l-2.6999999999999997 -2.0700000000000003 l3.42 -0.05 Z" fill="#f59e0b"/>
<path d="M54.0 667.5 l1.44 3.06 l3.42 0.05 l-2.6999999999999997 2.0700000000000003 l0.99 3.2399999999999998 l-3.15 -1.98 l-3.15 1.98 l0.99 -3.2399999999999998 l-2.6999999999999997 -2.0700000000000003 l3.42 -0.05 Z" fill="#f59e0b"/>
<path d="M65.0 667.5 l1.44 3.06 l3.42 0.05 l-2.6999999999999997 2.0700000000000003 l0.99 3.2399999999999998 l-3.15 -1.98 l-3.15 1.98 l0.99 -3.2399999999999998 l-2.6999999999999997 -2.0700000000000003 l3.42 -0.05 Z" fill="#f59e0b"/>
<path d="M76.0 667.5 l1.44 3.06 l3.42 0.05 l-2.6999999999999997 2.0700000000000003 l0.99 3.2399999999999998 l-3.15 -1.98 l-3.15 1.98 l0.99 -3.2399999999999998 l-2.6999999999999997 -2.0700000000000003 l3.42 -0.05 Z" fill="#f59e0b"/>
<text x="32.0" y="692" font-family="Inter, sans-serif" font-size="13" fill="#2563eb" font-weight="800" text-anchor="start">250.000₫</text>
<rect x="202.0" y="512" width="168.0" height="186" fill="#ffffff" rx="18" stroke="#e2e8f0" stroke-width="1"/>
<defs><linearGradient id="g95690" x1="0" y1="0" x2="1" y2="1"><stop offset="0" stop-color="#eff6ff"/><stop offset="1" stop-color="#e0f2fe"/></linearGradient></defs>
<rect x="203.0" y="513" width="166.0" height="116" fill="url(#g95690)" rx="18"/>
<path d="M286.0 541.652 L311.52 558.24 L311.52 583.76 L286.0 600.348 L260.48 583.76 L260.48 558.24 Z" fill="#3b82f6" opacity="0.9"/>
<path d="M286.0 541.652 L311.52 558.24 L286.0 574.828 L260.48 558.24 Z" fill="#dbeafe"/>
<path d="M286.0 574.828 L311.52 558.24 L311.52 583.76 L286.0 600.348 Z" fill="#1d4ed8" opacity="0.75"/>
<text x="214.0" y="654" font-family="Inter, sans-serif" font-size="12" fill="#0f172a" font-weight="700" text-anchor="start">Kỳ lân băng giá</text>
<path d="M214.0 667.5 l1.44 3.06 l3.42 0.05 l-2.6999999999999997 2.0700000000000003 l0.99 3.2399999999999998 l-3.15 -1.98 l-3.15 1.98 l0.99 -3.2399999999999998 l-2.6999999999999997 -2.0700000000000003 l3.42 -0.05 Z" fill="#f59e0b"/>
<path d="M225.0 667.5 l1.44 3.06 l3.42 0.05 l-2.6999999999999997 2.0700000000000003 l0.99 3.2399999999999998 l-3.15 -1.98 l-3.15 1.98 l0.99 -3.2399999999999998 l-2.6999999999999997 -2.0700000000000003 l3.42 -0.05 Z" fill="#f59e0b"/>
<path d="M236.0 667.5 l1.44 3.06 l3.42 0.05 l-2.6999999999999997 2.0700000000000003 l0.99 3.2399999999999998 l-3.15 -1.98 l-3.15 1.98 l0.99 -3.2399999999999998 l-2.6999999999999997 -2.0700000000000003 l3.42 -0.05 Z" fill="#f59e0b"/>
<path d="M247.0 667.5 l1.44 3.06 l3.42 0.05 l-2.6999999999999997 2.0700000000000003 l0.99 3.2399999999999998 l-3.15 -1.98 l-3.15 1.98 l0.99 -3.2399999999999998 l-2.6999999999999997 -2.0700000000000003 l3.42 -0.05 Z" fill="#f59e0b"/>
<path d="M258.0 667.5 l1.44 3.06 l3.42 0.05 l-2.6999999999999997 2.0700000000000003 l0.99 3.2399999999999998 l-3.15 -1.98 l-3.15 1.98 l0.99 -3.2399999999999998 l-2.6999999999999997 -2.0700000000000003 l3.42 -0.05 Z" fill="#f59e0b"/>
<text x="214.0" y="692" font-family="Inter, sans-serif" font-size="13" fill="#2563eb" font-weight="800" text-anchor="start">280.000₫</text>
<rect x="20.0" y="712" width="168.0" height="186" fill="#ffffff" rx="18" stroke="#e2e8f0" stroke-width="1"/>
<defs><linearGradient id="g14686" x1="0" y1="0" x2="1" y2="1"><stop offset="0" stop-color="#eff6ff"/><stop offset="1" stop-color="#e0f2fe"/></linearGradient></defs>
<rect x="21.0" y="713" width="166.0" height="116" fill="url(#g14686)" rx="18"/>
<path d="M104.0 741.652 L129.52 758.24 L129.52 783.76 L104.0 800.348 L78.48 783.76 L78.48 758.24 Z" fill="#3b82f6" opacity="0.9"/>
<path d="M104.0 741.652 L129.52 758.24 L104.0 774.828 L78.48 758.24 Z" fill="#dbeafe"/>
<path d="M104.0 774.828 L129.52 758.24 L129.52 783.76 L104.0 800.348 Z" fill="#1d4ed8" opacity="0.75"/>
<text x="32.0" y="854" font-family="Inter, sans-serif" font-size="12" fill="#0f172a" font-weight="700" text-anchor="start">Phượng hoàng lửa</text>
<path d="M32.0 867.5 l1.44 3.06 l3.42 0.05 l-2.6999999999999997 2.0700000000000003 l0.99 3.2399999999999998 l-3.15 -1.98 l-3.15 1.98 l0.99 -3.2399999999999998 l-2.6999999999999997 -2.0700000000000003 l3.42 -0.05 Z" fill="#f59e0b"/>
<path d="M43.0 867.5 l1.44 3.06 l3.42 0.05 l-2.6999999999999997 2.0700000000000003 l0.99 3.2399999999999998 l-3.15 -1.98 l-3.15 1.98 l0.99 -3.2399999999999998 l-2.6999999999999997 -2.0700000000000003 l3.42 -0.05 Z" fill="#f59e0b"/>
<path d="M54.0 867.5 l1.44 3.06 l3.42 0.05 l-2.6999999999999997 2.0700000000000003 l0.99 3.2399999999999998 l-3.15 -1.98 l-3.15 1.98 l0.99 -3.2399999999999998 l-2.6999999999999997 -2.0700000000000003 l3.42 -0.05 Z" fill="#f59e0b"/>
<path d="M65.0 867.5 l1.44 3.06 l3.42 0.05 l-2.6999999999999997 2.0700000000000003 l0.99 3.2399999999999998 l-3.15 -1.98 l-3.15 1.98 l0.99 -3.2399999999999998 l-2.6999999999999997 -2.0700000000000003 l3.42 -0.05 Z" fill="#f59e0b"/>
<path d="M76.0 867.5 l1.44 3.06 l3.42 0.05 l-2.6999999999999997 2.0700000000000003 l0.99 3.2399999999999998 l-3.15 -1.98 l-3.15 1.98 l0.99 -3.2399999999999998 l-2.6999999999999997 -2.0700000000000003 l3.42 -0.05 Z" fill="#f59e0b"/>
<text x="32.0" y="892" font-family="Inter, sans-serif" font-size="13" fill="#2563eb" font-weight="800" text-anchor="start">310.000₫</text>
<rect x="202.0" y="712" width="168.0" height="186" fill="#ffffff" rx="18" stroke="#e2e8f0" stroke-width="1"/>
<defs><linearGradient id="g8192" x1="0" y1="0" x2="1" y2="1"><stop offset="0" stop-color="#eff6ff"/><stop offset="1" stop-color="#e0f2fe"/></linearGradient></defs>
<rect x="203.0" y="713" width="166.0" height="116" fill="url(#g8192)" rx="18"/>
<path d="M286.0 741.652 L311.52 758.24 L311.52 783.76 L286.0 800.348 L260.48 783.76 L260.48 758.24 Z" fill="#3b82f6" opacity="0.9"/>
<path d="M286.0 741.652 L311.52 758.24 L286.0 774.828 L260.48 758.24 Z" fill="#dbeafe"/>
<path d="M286.0 774.828 L311.52 758.24 L311.52 783.76 L286.0 800.348 Z" fill="#1d4ed8" opacity="0.75"/>
<text x="214.0" y="854" font-family="Inter, sans-serif" font-size="12" fill="#0f172a" font-weight="700" text-anchor="start">Hổ trắng</text>
<path d="M214.0 867.5 l1.44 3.06 l3.42 0.05 l-2.6999999999999997 2.0700000000000003 l0.99 3.2399999999999998 l-3.15 -1.98 l-3.15 1.98 l0.99 -3.2399999999999998 l-2.6999999999999997 -2.0700000000000003 l3.42 -0.05 Z" fill="#f59e0b"/>
<path d="M225.0 867.5 l1.44 3.06 l3.42 0.05 l-2.6999999999999997 2.0700000000000003 l0.99 3.2399999999999998 l-3.15 -1.98 l-3.15 1.98 l0.99 -3.2399999999999998 l-2.6999999999999997 -2.0700000000000003 l3.42 -0.05 Z" fill="#f59e0b"/>
<path d="M236.0 867.5 l1.44 3.06 l3.42 0.05 l-2.6999999999999997 2.0700000000000003 l0.99 3.2399999999999998 l-3.15 -1.98 l-3.15 1.98 l0.99 -3.2399999999999998 l-2.6999999999999997 -2.0700000000000003 l3.42 -0.05 Z" fill="#f59e0b"/>
<path d="M247.0 867.5 l1.44 3.06 l3.42 0.05 l-2.6999999999999997 2.0700000000000003 l0.99 3.2399999999999998 l-3.15 -1.98 l-3.15 1.98 l0.99 -3.2399999999999998 l-2.6999999999999997 -2.0700000000000003 l3.42 -0.05 Z" fill="#f59e0b"/>
<path d="M258.0 867.5 l1.44 3.06 l3.42 0.05 l-2.6999999999999997 2.0700000000000003 l0.99 3.2399999999999998 l-3.15 -1.98 l-3.15 1.98 l0.99 -3.2399999999999998 l-2.6999999999999997 -2.0700000000000003 l3.42 -0.05 Z" fill="#f59e0b"/>
<text x="214.0" y="892" font-family="Inter, sans-serif" font-size="13" fill="#2563eb" font-weight="800" text-anchor="start">265.000₫</text>
<rect x="0" y="926" width="390" height="84" fill="#ffffff"/>
<line x1="0" y1="926" x2="390" y2="926" stroke="#e2e8f0" stroke-width="1"/>
<text x="39.0" y="959" font-family="Inter, sans-serif" font-size="17" fill="#94a3b8" font-weight="600" text-anchor="middle">⌂</text>
<text x="39.0" y="981" font-family="Inter, sans-serif" font-size="9.5" fill="#94a3b8" font-weight="500" text-anchor="middle">Trang chủ</text>
<rect x="95.0" y="938" width="44" height="30" fill="#eff6ff" rx="12"/>
<text x="117.0" y="959" font-family="Inter, sans-serif" font-size="17" fill="#2563eb" font-weight="600" text-anchor="middle">▣</text>
<text x="117.0" y="981" font-family="Inter, sans-serif" font-size="9.5" fill="#2563eb" font-weight="600" text-anchor="middle">Chợ</text>
<text x="195.0" y="959" font-family="Inter, sans-serif" font-size="17" fill="#94a3b8" font-weight="600" text-anchor="middle">⬆</text>
<text x="195.0" y="981" font-family="Inter, sans-serif" font-size="9.5" fill="#94a3b8" font-weight="500" text-anchor="middle">In 3D</text>
<text x="273.0" y="959" font-family="Inter, sans-serif" font-size="17" fill="#94a3b8" font-weight="600" text-anchor="middle">♡</text>
<text x="273.0" y="981" font-family="Inter, sans-serif" font-size="9.5" fill="#94a3b8" font-weight="500" text-anchor="middle">Yêu thích</text>
<text x="351.0" y="959" font-family="Inter, sans-serif" font-size="17" fill="#94a3b8" font-weight="600" text-anchor="middle">◍</text>
<text x="351.0" y="981" font-family="Inter, sans-serif" font-size="9.5" fill="#94a3b8" font-weight="500" text-anchor="middle">Tài khoản</text>
<rect x="129.0" y="998" width="132" height="4.5" fill="#0f172a" rx="3"/>
</svg>