<svg xmlns="http://www.w3.org/2000/svg" width="390" height="844" viewBox="0 0 390 844">
<rect x="0" y="0" width="390" height="844" fill="#ffffff"/>
<rect x="0" y="0" width="390" height="44" fill="#ffffff"/>
<text x="28" y="28" font-family="Inter, sans-serif" font-size="13" fill="#0f172a" font-weight="700" text-anchor="start">9:41</text>
<text x="366" y="28" font-family="Inter, sans-serif" font-size="11" fill="#0f172a" font-weight="600" text-anchor="end">▮▮▮ ᯤ ▰</text>
<defs><linearGradient id="ml" x1="0" y1="0" x2="1" y2="1"><stop offset="0" stop-color="#1d4ed8"/><stop offset="1" stop-color="#06b6d4"/></linearGradient></defs>
<rect x="0" y="0" width="390" height="268" fill="url(#ml)"/>
<circle cx="340" cy="60" r="80" fill="#ffffff" opacity="0.1"/>
<circle cx="40" cy="230" r="90" fill="#ffffff" opacity="0.07"/>
<rect x="0" y="0" width="390" height="44" fill="#ffffff"/>
<text x="28" y="28" font-family="Inter, sans-serif" font-size="13" fill="#0f172a" font-weight="700" text-anchor="start">9:41</text>
<text x="366" y="28" font-family="Inter, sans-serif" font-size="11" fill="#0f172a" font-weight="600" text-anchor="end">▮▮▮ ᯤ ▰</text>
<rect x="0" y="0" width="390" height="44" fill="none"/>
<text x="28" y="28" font-family="Inter, sans-serif" font-size="13" fill="#ffffff" font-weight="700" text-anchor="start">9:41</text>
<text x="366" y="28" font-family="Inter, sans-serif" font-size="11" fill="#ffffff" font-weight="600" text-anchor="end">▮▮▮ ᯤ ▰</text>
<rect x="24" y="72" width="32.3" height="32.3" fill="#2563eb" rx="9.5"/>
<text x="40.15" y="92.9" font-family="Inter, sans-serif" font-size="17.099999999999998" fill="#ffffff" font-weight="800" text-anchor="middle">P</text>
<text x="65.8" y="92.9" font-family="Inter, sans-serif" font-size="15.2" fill="#ffffff" font-weight="700" text-anchor="start">Print Hub 3D</text>
<text x="24" y="176" font-family="Inter, sans-serif" font-size="30" fill="#ffffff" font-weight="800" text-anchor="start">Chào mừng</text>
<text x="24" y="206" font-family="Inter, sans-serif" font-size="30" fill="#ffffff" font-weight="800" text-anchor="start">trở lại 👋</text>
<text x="24" y="238" font-family="Inter, sans-serif" font-size="13" fill="#dbeafe" font-weight="400" text-anchor="start">Đăng nhập để tiếp tục</text>
<rect x="0" y="268" width="390" height="576" fill="#ffffff" rx="26"/>
<text x="24" y="308" font-family="Inter, sans-serif" font-size="12.5" fill="#475569" font-weight="600" text-anchor="start">Email</text>
<rect x="24" y="320" width="342" height="52" fill="#f8fafc" rx="13" stroke="#e2e8f0" stroke-width="1"/>
<text x="42" y="352" font-family="Inter, sans-serif" font-size="13.5" fill="#0f172a" font-weight="400" text-anchor="start">tanh29012004@gmail.com</text>
<text x="24" y="404" font-family="Inter, sans-serif" font-size="12.5" fill="#475569" font-weight="600" text-anchor="start">Mật khẩu</text>
<rect x="24" y="416" width="342" height="52" fill="#f8fafc" rx="13" stroke="#2563eb" stroke-width="2"/>
<text x="42" y="448" font-family="Inter, sans-serif" font-size="15" fill="#0f172a" font-weight="400" text-anchor="start">••••••••••••</text>
<text x="348" y="448" font-family="Inter, sans-serif" font-size="14" fill="#94a3b8" font-weight="400" text-anchor="end">👁</text>
<rect x="24" y="490" width="18" height="18" fill="#2563eb" rx="5"/>
<path d="M28 499 l3.5 3.5 l7 -8" fill="none" stroke="#ffffff" stroke-width="2.2" stroke-linecap="round" stroke-linejoin="round"/>
<text x="52" y="504" font-family="Inter, sans-serif" font-size="12.5" fill="#475569" font-weight="400" text-anchor="start">Ghi nhớ</text>
<text x="366" y="504" font-family="Inter, sans-serif" font-size="12.5" fill="#2563eb" font-weight="600" text-anchor="end">Quên mật khẩu?</text>
<rect x="24" y="532" width="342" height="54" fill="#2563eb" rx="12"/>
<text x="195.0" y="564.4" font-family="Inter, sans-serif" font-size="15" fill="#ffffff" font-weight="600" text-anchor="middle">Đăng nhập</text>
<line x1="24" y1="620" x2="150" y2="620" stroke="#e2e8f0" stroke-width="1"/>
<text x="195.0" y="625" font-family="Inter, sans-serif" font-size="12" fill="#94a3b8" font-weight="400" text-anchor="middle">hoặc</text>
<line x1="240" y1="620" x2="366" y2="620" stroke="#e2e8f0" stroke-width="1"/>
<rect x="24.0" y="644" width="163.0" height="50" fill="#ffffff" rx="13" stroke="#e2e8f0" stroke-width="1"/>
<text x="77.5" y="675" font-family="Inter, sans-serif" font-size="14" fill="#475569" font-weight="700" text-anchor="start">G</text>
<text x="113.5" y="675" font-family="Inter, sans-serif" font-size="12.5" fill="#475569" font-weight="600" text-anchor="middle">Google</text>
<rect x="203.0" y="644" width="163.0" height="50" fill="#ffffff" rx="13" stroke="#e2e8f0" stroke-width="1"/>
<text x="256.5" y="675" font-family="Inter, sans-serif" font-size="14" fill="#475569" font-weight="700" text-anchor="start">f</text>
<text x="292.5" y="675" font-family="Inter, sans-serif" font-size="12.5" fill="#475569" font-weight="600" text-anchor="middle">Facebook</text>
<text x="195.0" y="740" font-family="Inter, sans-serif" font-size="13" fill="#64748b" font-weight="400" text-anchor="middle">Chưa có tài khoản?</text>
<text x="269.0" y="740" font-family="Inter, sans-serif" font-size="13" fill="#2563eb" font-weight="700" text-anchor="start">Đăng ký</text>
<rect x="129.0" y="832" width="132" height="4.5" fill="#0f172a" rx="3"/>
</svg>